<svg width="48" height="48" viewBox="0 0 48 48" fill="none" xmlns="http://www.w3.org/2000/svg">
<path d="M3 18.2C3 12.8795 3 10.2193 4.03544 8.18709C4.94624 6.39955 6.39955 4.94624 8.18709 4.03544C10.2193 3 12.8795 3 18.2 3H29.8C35.1205 3 37.7807 3 39.8129 4.03544C41.6004 4.94624 43.0538 6.39955 43.9646 8.18709C45 10.2193 45 12.8795 45 18.2V29.8C45 35.1205 45 37.7807 43.9646 39.8129C43.0538 41.6004 41.6004 43.0538 39.8129 43.9646C37.7807 45 35.1205 45 29.8 45H18.2C12.8795 45 10.2193 45 8.18709 43.9646C6.39955 43.0538 4.94624 41.6004 4.03544 39.8129C3 37.7807 3 35.1205 3 29.8V18.2Z" fill="#00005B"/>
<path d="M27.0636 12L13.6927 25.5736L12 32.5053L18.809 30.7675L32.1799 17.1939L27.0636 12Z" fill="#9999FF"/>
<path d="M27.596 35.9614C26.6842 35.8457 26.1673 35.0449 25.9603 34.2043C24.1344 35.1891 22.5558 35.8842 19.6648 35.8842H12.7607C12.5515 35.8842 12.3803 35.7104 12.3803 35.498C12.3803 35.2856 12.5515 35.1118 12.7607 35.1118H19.6648C22.6509 35.1118 24.1344 34.3781 25.8652 33.4127C25.763 31.544 26.9069 27.0672 29.6121 28.3347C32.3168 29.6217 27.6678 33.2126 26.6831 33.8182C26.7666 34.4119 27.0782 35.1258 27.7292 35.2084C29.4219 35.4208 30.9245 33.7989 31.8184 32.8528C32.1107 32.5356 32.8802 31.5774 33.2829 32.2928C33.4351 32.5825 33.2829 32.9107 33.0166 33.4899C32.7829 34.0076 32.0682 35.2277 33.0547 35.2277C33.5682 35.2277 35.1278 34.0499 35.2609 33.6444C35.318 33.432 35.5272 33.3355 35.7364 33.3934C35.9457 33.4513 36.0408 33.6637 35.9837 33.8761C35.7555 34.6484 33.8915 36 33.0547 36C32.5221 36 32.1417 35.8262 31.9325 35.498C31.6282 34.996 31.8184 34.3202 32.0847 33.683C30.9055 34.88 29.3863 36.1886 27.596 35.9614ZM26.588 32.93C27.061 32.6209 30.8054 29.7996 29.2507 29.0105C27.3525 28.154 26.6202 31.7375 26.588 32.93Z" fill="#9999FF"/>
</svg>
