<svg width="48" height="48" viewBox="0 0 48 48" fill="none" xmlns="http://www.w3.org/2000/svg">
<path d="M3 18.2C3 12.8795 3 10.2193 4.03544 8.18709C4.94624 6.39955 6.39955 4.94624 8.18709 4.03544C10.2193 3 12.8795 3 18.2 3H29.8C35.1205 3 37.7807 3 39.8129 4.03544C41.6004 4.94624 43.0538 6.39955 43.9646 8.18709C45 10.2193 45 12.8795 45 18.2V29.8C45 35.1205 45 37.7807 43.9646 39.8129C43.0538 41.6004 41.6004 43.0538 39.8129 43.9646C37.7807 45 35.1205 45 29.8 45H18.2C12.8795 45 10.2193 45 8.18709 43.9646C6.39955 43.0538 4.94624 41.6004 4.03544 39.8129C3 37.7807 3 35.1205 3 29.8V18.2Z" fill="#470137"/>
<path d="M7.50137 34.044V15.3285C7.48798 15.2102 7.57438 15.1009 7.68748 15.0931C9.40694 14.9682 11.1499 15.0052 12.8723 15.0048C16.2398 15.0048 19.6575 16.2244 21.3141 19.5219C22.0141 20.9247 22.3642 22.5383 22.3644 24.3626C22.3849 25.6366 22.2006 26.9051 21.8193 28.1145C21.4901 29.1389 20.9855 30.0914 20.3303 30.9248C19.72 31.6923 18.9976 32.3529 18.1899 32.8817C15.1545 34.8663 11.1068 34.559 7.66087 34.3383C7.55451 34.3383 7.50134 34.2402 7.50137 34.044ZM11.1706 18.6243V30.8071C15.2264 30.8071 18.6042 29.0893 18.5356 24.4509C18.6247 19.749 15.0763 18.3743 11.1706 18.6243Z" fill="#FF61F6"/>
<path d="M37.93 34.3413H34.6764C34.4979 34.3668 34.4131 34.2019 34.3641 34.047C33.7002 30.6128 33.0049 27.2315 32.3859 23.8947C31.6535 27.2881 30.9087 30.6734 30.0954 34.047C30.0604 34.2433 29.9653 34.3413 29.8091 34.3413H26.5555C26.3737 34.3618 26.2427 34.2555 26.1911 34.0764L22.8073 19.9515C22.7553 19.7947 22.8247 19.7162 23.0155 19.7161H26.2952C26.4513 19.7161 26.5381 19.7749 26.5555 19.8926C27.303 23.3591 27.9583 26.8327 28.5076 30.3392C29.1805 26.8659 29.9627 23.3932 30.668 20.0104C30.6833 19.8224 30.7412 19.7161 30.9283 19.7161H34.3381C34.4422 19.7161 34.5028 19.7851 34.5203 19.9221C35.284 23.3782 35.8732 26.7745 36.4725 30.4569C37.2788 26.9892 37.7448 23.4317 38.5287 19.9515C38.5633 19.7947 38.6414 19.7162 38.763 19.7161H41.8083C41.9645 19.7161 42.0252 19.8043 41.9905 19.9809L38.2424 34.0764C38.1953 34.2324 38.1018 34.3639 37.93 34.3413Z" fill="#FF61F6"/>
</svg>
