<svg width="48" height="48" viewBox="0 0 48 48" fill="none" xmlns="http://www.w3.org/2000/svg">
<path d="M3 18.2C3 12.8795 3 10.2193 4.03544 8.18709C4.94624 6.39955 6.39955 4.94624 8.18709 4.03544C10.2193 3 12.8795 3 18.2 3H29.8C35.1205 3 37.7807 3 39.8129 4.03544C41.6004 4.94624 43.0538 6.39955 43.9646 8.18709C45 10.2193 45 12.8795 45 18.2V29.8C45 35.1205 45 37.7807 43.9646 39.8129C43.0538 41.6004 41.6004 43.0538 39.8129 43.9646C37.7807 45 35.1205 45 29.8 45H18.2C12.8795 45 10.2193 45 8.18709 43.9646C6.39955 43.0538 4.94624 41.6004 4.03544 39.8129C3 37.7807 3 35.1205 3 29.8V18.2Z" fill="#00005B"/>
<path d="M14.0889 32.7196H10.7265C10.5755 32.7196 10.5 32.6323 10.5 32.4561V13.8507C10.5 13.669 10.5562 13.5872 10.6756 13.5872C12.652 13.5256 14.6277 13.5 16.605 13.5C20.2231 13.5 23.9268 15.1174 23.9268 19.3856C23.9474 21.6939 22.4179 23.6583 20.3941 24.4917C22.048 27.1083 23.7161 29.7432 25.3683 32.3616C25.4381 32.4465 25.5032 32.7334 25.3121 32.7123H21.214C21.0614 32.7212 20.9051 32.6743 20.8172 32.5378C19.4582 30.4878 18.2551 28.2989 17.0791 26.1325C16.9236 25.8853 16.7221 25.6265 16.4101 25.6437H14.3224V32.4597C14.3224 32.6323 14.2399 32.7196 14.0889 32.7196ZM14.3154 22.1803C16.1971 22.1803 20.098 22.6035 19.9972 19.5855C19.9972 16.6853 16.3127 16.9163 14.3154 17.0997V22.1803Z" fill="#9999FF"/>
<path d="M38.8556 18.3205V29.4596C38.8556 30.224 38.8498 30.995 38.9262 31.7562C38.9545 32.0392 38.9779 32.2086 38.9969 32.4033C39.0155 32.5596 38.9497 32.6374 38.7991 32.6374H35.7743C35.6318 32.653 35.4921 32.5687 35.4351 32.4326C35.3616 32.163 35.2973 31.8766 35.2937 31.5953C34.2141 32.5923 32.7875 32.9882 31.3644 32.9996C28.2836 33.0379 26.5461 30.4345 26.6152 27.3533V18.3497C26.5966 18.2154 26.7116 18.0964 26.8414 18.1156H30.2008C30.3306 18.0966 30.4454 18.2154 30.427 18.3497V26.8852C30.427 28.4445 31.1859 29.4596 32.7496 29.4596C33.5719 29.4702 34.3883 29.1303 35.0507 28.6405V18.3205C35.0507 18.1842 35.1355 18.1157 35.3051 18.1157H38.6577C38.7712 18.0991 38.8716 18.203 38.8556 18.3205Z" fill="#9999FF"/>
</svg>
