<svg width="48" height="48" viewBox="0 0 48 48" fill="none" xmlns="http://www.w3.org/2000/svg">
<path d="M3 18.2C3 12.8795 3 10.2193 4.03544 8.18709C4.94624 6.39955 6.39955 4.94624 8.18709 4.03544C10.2193 3 12.8795 3 18.2 3H29.8C35.1205 3 37.7807 3 39.8129 4.03544C41.6004 4.94624 43.0538 6.39955 43.9646 8.18709C45 10.2193 45 12.8795 45 18.2V29.8C45 35.1205 45 37.7807 43.9646 39.8129C43.0538 41.6004 41.6004 43.0538 39.8129 43.9646C37.7807 45 35.1205 45 29.8 45H18.2C12.8795 45 10.2193 45 8.18709 43.9646C6.39955 43.0538 4.94624 41.6004 4.03544 39.8129C3 37.7807 3 35.1205 3 29.8V18.2Z" fill="#000B1D"/>
<path d="M18.7685 34.4976C17.0929 34.5289 15.327 34.2583 13.7963 33.5308C13.6398 33.4592 13.5703 33.2981 13.5703 33.0474V29.6101C13.5703 29.464 13.6907 29.3824 13.8137 29.4669C15.3212 30.4328 17.0957 30.9707 18.8729 30.9707C19.9867 30.9707 21.8284 30.7511 21.8284 29.2162C21.8284 27.3626 19.1614 26.7512 17.8645 26.1906C15.4575 25.1229 13.5007 23.5557 13.5007 20.6586C13.466 18.5819 14.6482 16.6663 16.491 15.8248C18.7311 14.7321 22.2739 14.718 24.5579 15.8248C24.6796 15.8964 24.7665 16.0397 24.7491 16.2008V19.4591C24.7491 19.6027 24.6004 19.6397 24.5058 19.5665C23.1859 18.887 21.6851 18.566 20.2115 18.5998C19.2977 18.5998 17.9082 18.7081 17.4125 19.656C16.4526 21.633 19.6278 22.5968 20.9765 23.1292C23.4506 24.1698 25.7401 25.8544 25.7401 28.894C25.8039 32.8327 22.0222 34.4976 18.7685 34.4976Z" fill="white"/>
<path d="M35.2326 31.3468V33.71C35.2326 33.9248 35.1631 34.0502 35.0066 34.086C31.8868 35.1569 28.6609 34.0685 28.6609 30.3621V23.1831H26.9745C26.818 23.1831 26.7485 23.0936 26.7485 22.9324L26.7659 20.0859C26.7659 19.9247 26.8528 19.8531 27.0093 19.8531H28.6957C28.758 18.6981 28.8253 17.5448 28.9738 16.3978C29.0095 16.2876 29.0893 16.1673 29.1998 16.1293L32.5379 15.6996C32.6804 15.6507 32.7291 15.7429 32.7291 15.8787C32.6259 17.2075 32.6397 18.5395 32.6074 19.871H35.0761C35.1805 19.871 35.25 19.9426 35.25 20.1038L35.2326 23.004C35.25 23.0936 35.1805 23.1831 35.0935 23.201H32.6248V29.4133C32.6248 30.0578 32.6943 30.5412 32.903 30.8097C33.3529 31.3889 34.3573 31.2421 35.0066 31.1678C35.139 31.1223 35.2326 31.2137 35.2326 31.3468Z" fill="white"/>
</svg>
