<svg width="48" height="48" viewBox="0 0 48 48" fill="none" xmlns="http://www.w3.org/2000/svg">
<path d="M3 18.2C3 12.8795 3 10.2193 4.03544 8.18709C4.94624 6.39955 6.39955 4.94624 8.18709 4.03544C10.2193 3 12.8795 3 18.2 3H29.8C35.1205 3 37.7807 3 39.8129 4.03544C41.6004 4.94624 43.0538 6.39955 43.9646 8.18709C45 10.2193 45 12.8795 45 18.2V29.8C45 35.1205 45 37.7807 43.9646 39.8129C43.0538 41.6004 41.6004 43.0538 39.8129 43.9646C37.7807 45 35.1205 45 29.8 45H18.2C12.8795 45 10.2193 45 8.18709 43.9646C6.39955 43.0538 4.94624 41.6004 4.03544 39.8129C3 37.7807 3 35.1205 3 29.8V18.2Z" fill="#370000"/>
<path d="M15.784 33.4097C14.1035 33.4417 12.3324 33.1654 10.7972 32.4225C10.6402 32.3493 10.5705 32.1848 10.5705 31.9289V28.4189C10.5705 28.2697 10.6913 28.1864 10.8146 28.2726C12.3265 29.2589 14.1063 29.8082 15.8886 29.8082C17.0058 29.8082 18.8528 29.584 18.8528 28.0167C18.8528 26.1239 16.1781 25.4996 14.8773 24.9271C12.4632 23.8368 10.5007 22.2365 10.5007 19.2782C10.4659 17.1576 11.6516 15.2015 13.4998 14.3422C15.7465 13.2265 19.2997 13.212 21.5904 14.3422C21.7124 14.4154 21.7996 14.5616 21.7822 14.7262V18.0534C21.7822 18.2 21.633 18.2377 21.5381 18.163C20.2144 17.4691 18.7092 17.1414 17.2313 17.1759C16.3148 17.1759 14.9211 17.2865 14.424 18.2544C13.4612 20.2732 16.6458 21.2574 17.9985 21.801C20.4798 22.8636 22.7761 24.5838 22.7761 27.6876C22.84 31.7096 19.0472 33.4097 15.784 33.4097Z" fill="#FA0F00"/>
<path d="M30.396 18.1922C34.3407 18.1922 37.5213 21.1851 37.4979 25.3439C37.5514 27.6749 36.5918 29.952 34.8353 31.3986C32.917 32.9773 30.6571 33.3803 28.2949 33.3803V38.3821C28.309 38.52 28.204 38.6448 28.0717 38.6472C26.9359 38.766 25.7753 38.894 24.6454 39C24.5338 39 24.471 38.9214 24.471 38.766V21.4883C24.471 20.8558 24.4619 20.2022 24.3856 19.5743C24.3718 19.4945 24.4238 19.4107 24.4989 19.3915C26.3735 18.679 28.3949 18.1758 30.396 18.1922ZM28.2809 21.8046V29.8484C31.0251 30.8012 33.4892 28.3956 33.4892 25.6144C33.4892 22.5634 31.0632 21.0255 28.2809 21.8046Z" fill="#FA0F00"/>
</svg>
