<svg width="48" height="48" viewBox="0 0 48 48" fill="none" xmlns="http://www.w3.org/2000/svg">
<g clip-path="url(#clip0_201_662)">
<path d="M37.5625 3H10.4375C6.32988 3 3 6.41526 3 10.6282V37.3718C3 41.5847 6.32988 45 10.4375 45H37.5625C41.6701 45 45 41.5847 45 37.3718V10.6282C45 6.41526 41.6701 3 37.5625 3Z" fill="#000B1D"/>
<path d="M12.6359 32.4658L12.625 14.1337C12.625 13.9603 12.6814 13.864 12.7941 13.8447C13.1133 13.8258 13.6016 13.8113 14.2591 13.8014C14.9164 13.7919 15.5594 13.7824 16.3298 13.7725C17.0998 13.763 17.8042 13.7582 18.4429 13.758C19.9829 13.758 21.2438 13.8719 22.1551 14.2187C23.0659 14.5655 23.7656 15.0038 24.2541 15.5336C24.7187 15.9987 25.0726 16.5672 25.2886 17.1952C25.4477 17.7096 25.5331 18.2449 25.5422 18.7845C25.5371 19.3643 25.425 19.9379 25.212 20.475C25.0508 20.9182 24.8226 21.3327 24.5359 21.7032C24.322 21.9846 24.0651 22.2286 23.7751 22.4256C24.176 22.6434 24.5497 22.9103 24.888 23.2203C25.3263 23.6232 25.685 24.1089 25.9446 24.6507C26.278 25.329 26.4447 26.0807 26.4301 26.8402C26.4356 27.9539 26.0926 29.04 25.4515 29.9389C24.822 30.8252 23.9204 31.514 22.7467 32.0051C21.4052 32.5424 19.9746 32.8068 18.5346 32.7837H16.6609C16.0693 32.7837 15.5705 32.7787 15.0731 32.7692C14.5752 32.7592 14.1432 32.7496 13.777 32.7403C13.4108 32.7304 13.0962 32.7255 12.8332 32.7259C12.7016 32.7069 12.6358 32.6202 12.6359 32.4658ZM16.4457 17.1562L16.4641 21.1541H18.3092C18.8163 21.1541 19.3141 21.1637 19.8025 21.183C20.1528 21.1857 20.5021 21.2244 20.8449 21.2986C21.0937 21.0807 21.2993 20.8158 21.4507 20.5184C21.6381 20.1808 21.7368 19.7991 21.7371 19.4106C21.7412 18.9366 21.5964 18.4739 21.3239 18.091C21.0509 17.7432 20.6831 17.4867 20.2673 17.3541C19.6898 17.1817 19.0891 17.1051 18.488 17.1273H17.671C17.4267 17.1273 17.2769 17.1323 17.0797 17.1417C16.8824 17.1517 16.6711 17.1565 16.4457 17.1562ZM16.4641 24.5272V29.3321C16.7833 29.3515 17.0316 29.3659 17.3512 29.3754C17.6704 29.3854 18.0554 29.3902 18.5064 29.3899C19.1957 29.4005 19.8832 29.3129 20.549 29.1298C21.0642 29.0038 21.5304 28.7219 21.8874 28.3207C22.2225 27.9497 22.4171 27.4679 22.4359 26.9625C22.4137 26.4731 22.2524 26.0009 21.9719 25.6043C21.7276 25.2192 21.2768 24.9029 20.6195 24.7295C20.3642 24.6662 20.1055 24.618 19.8447 24.585C19.5034 24.5437 19.1599 24.5244 18.8163 24.5273L16.4641 24.5272Z" fill="white"/>
<path d="M28.9309 18.2591H32.0019C32.0853 18.2598 32.1662 18.2884 32.2323 18.3406C32.2984 18.3928 32.3461 18.4656 32.3682 18.5481C32.4352 18.6747 32.4827 18.8111 32.5091 18.9526C32.5484 19.1385 32.5766 19.3267 32.5936 19.5161C32.6121 19.7184 32.6218 19.9982 32.6218 20.2294C33.1456 19.5805 33.7806 19.0353 34.4954 18.6203C35.2562 18.1869 36.0586 18.0881 37.0356 18.0881C37.07 18.0831 37.1051 18.0863 37.1381 18.0976C37.1711 18.1089 37.2011 18.1279 37.2257 18.1532C37.2503 18.1784 37.2689 18.2092 37.2799 18.243C37.2909 18.2769 37.294 18.3129 37.2891 18.3482V21.7898C37.2891 21.9249 37.1952 21.9923 37.0074 21.9921C36.4112 21.9508 35.8124 21.9946 35.228 22.1222C34.7239 22.2249 34.2325 22.3848 33.7629 22.599C33.3827 22.7567 33.0324 22.9816 32.7282 23.2636V32.3553C32.7282 32.5287 32.653 32.6154 32.5027 32.6154H29.1844C29.1461 32.621 29.1071 32.6174 29.0704 32.6049C29.0337 32.5924 29.0004 32.5712 28.9731 32.5432C28.9457 32.5151 28.9251 32.4809 28.9129 32.4433C28.9007 32.4057 28.8972 32.3656 28.9027 32.3264V22.4545C28.9027 22.0309 28.898 21.583 28.8886 21.1108C28.8789 20.6389 28.8648 20.1717 28.8463 19.7092C28.8335 19.2913 28.7959 18.8746 28.7337 18.4614C28.7266 18.4334 28.7268 18.404 28.7342 18.3762C28.7416 18.3483 28.756 18.3229 28.7759 18.3024C28.7958 18.282 28.8206 18.2673 28.8478 18.2597C28.875 18.252 28.9036 18.2519 28.9309 18.2591Z" fill="white"/>
</g>
<defs>
<clipPath id="clip0_201_662">
<rect width="42" height="42" fill="white" transform="translate(3 3)"/>
</clipPath>
</defs>
</svg>
