<svg width="48" height="48" viewBox="0 0 48 48" fill="none" xmlns="http://www.w3.org/2000/svg">
<g clip-path="url(#clip0_201_679)">
<path d="M37.5625 3.19995H10.4375C6.32988 3.19995 3 6.61522 3 10.8282V37.5717C3 41.7847 6.32988 45.2 10.4375 45.2H37.5625C41.6701 45.2 45 41.7847 45 37.5717V10.8282C45 6.61522 41.6701 3.19995 37.5625 3.19995Z" fill="#1E3101"/>
<path d="M10.7161 32.5951V14.2164C10.7133 14.1877 10.7163 14.1588 10.7249 14.1314C10.7334 14.104 10.7474 14.0787 10.7659 14.057C10.7844 14.0353 10.807 14.0178 10.8323 14.0054C10.8577 13.9931 10.8853 13.9862 10.9133 13.9852C11.1951 13.9662 11.6084 13.9518 12.153 13.9419C12.6976 13.9324 13.3362 13.9227 14.069 13.913C14.8015 13.9035 15.581 13.8987 16.4074 13.8985C18.6614 13.8985 20.5304 14.2934 22.0143 15.0833C23.4206 15.7979 24.5842 16.9309 25.353 18.3343C26.0948 19.7118 26.4658 21.2964 26.4659 23.0879C26.4873 24.3414 26.2917 25.5889 25.8884 26.7723C25.5354 27.7854 25.0002 28.7215 24.3106 29.532C23.6578 30.2909 22.8923 30.9395 22.0425 31.4537C21.1996 31.9634 20.2883 32.3431 19.3377 32.5807C18.4067 32.8183 17.4512 32.9395 16.492 32.9419H14.393C13.6507 32.9419 12.9604 32.9371 12.3221 32.9275C11.6833 32.9175 11.2043 32.9031 10.8852 32.8841C10.7725 32.8841 10.7161 32.7878 10.7161 32.5951ZM14.6043 17.4529V29.4164C14.8107 29.4164 14.9985 29.4213 15.1677 29.4309C15.3368 29.4408 15.5102 29.4503 15.689 29.4598C15.8673 29.4697 16.0692 29.4745 16.2947 29.4742C17.1469 29.4856 17.9947 29.3488 18.8023 29.0697C19.5257 28.8176 20.1851 28.4029 20.7323 27.856C21.2828 27.2924 21.706 26.6117 21.9721 25.862C22.275 25.0007 22.423 24.0901 22.4087 23.1746C22.426 22.3118 22.2826 21.4536 21.9861 20.646C21.7217 19.9494 21.302 19.3259 20.7605 18.8255C20.2073 18.3242 19.5532 17.9542 18.8446 17.7419C18.0534 17.5036 17.2321 17.3867 16.4074 17.3951C16.0315 17.3951 15.7168 17.3999 15.4636 17.4095C15.21 17.4195 14.9236 17.4339 14.6043 17.4529V17.4529Z" fill="#99E83F"/>
<path d="M37.5382 22.2788C37.0087 21.9997 36.4447 21.7956 35.8617 21.6719C35.2194 21.5208 34.5626 21.4432 33.9036 21.4407C33.5471 21.4308 33.1911 21.4746 32.847 21.5708C32.628 21.6208 32.4333 21.7488 32.2976 21.932C32.2057 22.0785 32.1569 22.249 32.1567 22.4233C32.1619 22.5923 32.2213 22.7548 32.3258 22.8856C32.4903 23.083 32.6914 23.2451 32.9174 23.3624C33.3191 23.5843 33.7331 23.7821 34.1571 23.9548C35.1027 24.2795 36.0063 24.721 36.8478 25.2696C37.4211 25.6407 37.8955 26.1521 38.2284 26.7578C38.5083 27.3314 38.6485 27.966 38.637 28.6073C38.6538 29.4541 38.4179 30.286 37.9608 30.9914C37.4714 31.7074 36.7917 32.2641 36.0026 32.5951C35.1476 32.9803 34.0911 33.173 32.8329 33.1731C32.0336 33.1814 31.2357 33.1039 30.4521 32.9419C29.8615 32.8273 29.2883 32.6329 28.7475 32.364C28.6859 32.3314 28.6346 32.2814 28.5997 32.22C28.5648 32.1586 28.5476 32.0882 28.5503 32.0172V28.8963C28.5469 28.8657 28.5517 28.8348 28.5641 28.8068C28.5765 28.7788 28.5961 28.7548 28.6208 28.7373C28.645 28.7233 28.6728 28.7172 28.7004 28.7198C28.7281 28.7223 28.7544 28.7335 28.7757 28.7518C29.4199 29.1588 30.1239 29.4565 30.8606 29.6331C31.5335 29.8061 32.2238 29.8983 32.9174 29.9077C33.5747 29.9077 34.0584 29.821 34.3684 29.6476C34.5084 29.5819 34.6269 29.4759 34.7094 29.3426C34.7919 29.2092 34.835 29.0542 34.8334 28.8963C34.8334 28.6461 34.6925 28.4053 34.4107 28.1739C34.129 27.9427 33.5561 27.6633 32.692 27.3358C31.8073 27.02 30.9685 26.5825 30.1985 26.0354C29.6478 25.6426 29.1943 25.123 28.8743 24.5183C28.5972 23.9489 28.4571 23.3197 28.4658 22.6833C28.4642 21.9187 28.669 21.1686 29.0574 20.516C29.5003 19.7974 30.1363 19.2254 30.8889 18.8689C31.7151 18.4453 32.7482 18.2334 33.9881 18.2331C34.7142 18.2271 35.4397 18.2803 36.1576 18.3921C36.6631 18.4587 37.1565 18.5998 37.6227 18.8111C37.6609 18.8223 37.6961 18.8425 37.7254 18.8701C37.7548 18.8977 37.7775 18.9319 37.7917 18.97C37.8108 19.0406 37.8202 19.1135 37.8199 19.1867V22.1054C37.8219 22.1393 37.8151 22.1732 37.8003 22.2037C37.7854 22.2341 37.7631 22.26 37.7354 22.2788C37.7059 22.2979 37.6717 22.308 37.6368 22.308C37.6019 22.308 37.5677 22.2979 37.5382 22.2788Z" fill="#99E83F"/>
</g>
<defs>
<clipPath id="clip0_201_679">
<rect width="42" height="42" fill="white" transform="translate(3 3.19995)"/>
</clipPath>
</defs>
</svg>
