<svg width="48" height="48" viewBox="0 0 48 48" fill="none" xmlns="http://www.w3.org/2000/svg">
<g clip-path="url(#clip0_201_678)">
<path d="M10.4375 3.19995H37.5625C41.675 3.19995 45 6.61021 45 10.8282V37.5717C45 41.7897 41.675 45.2 37.5625 45.2H10.4375C6.325 45.2 3 41.7897 3 37.5717V10.8282C3 6.61021 6.325 3.19995 10.4375 3.19995Z" fill="#1E3101"/>
<path d="M16.1425 33.1743C15.18 33.1923 14.2175 33.0846 13.29 32.9051C12.555 32.7615 11.82 32.5282 11.1375 32.2051C10.98 32.1333 10.91 31.9717 10.91 31.7205V28.2743C10.91 28.2205 10.9275 28.1487 10.98 28.1128C11.0325 28.0769 11.1025 28.0948 11.155 28.1307C11.9425 28.6333 12.7825 29.0102 13.6575 29.2615C14.4975 29.5128 15.3725 29.6384 16.2475 29.6384C17.315 29.6384 18.085 29.4769 18.54 29.1358C18.96 28.8666 19.2225 28.3999 19.2225 27.8794C19.2225 27.5743 19.1525 27.2692 18.995 26.9999C18.785 26.6948 18.5225 26.4256 18.2075 26.2282C17.7175 25.923 17.1925 25.6538 16.65 25.4564L15.25 24.8461C14.1125 24.3435 13.2025 23.8051 12.555 23.2487C11.96 22.764 11.505 22.1358 11.225 21.4179C10.98 20.7358 10.8575 20.0358 10.8575 19.2999C10.8225 17.2179 12.0125 15.2974 13.8675 14.4538C14.865 13.9692 16.1075 13.7179 17.595 13.7179C18.435 13.7179 19.275 13.7717 20.115 13.8974C20.7625 13.9692 21.3925 14.1666 21.9875 14.4538C22.11 14.5256 22.1975 14.6692 22.18 14.8307V18.0974C22.18 18.1512 22.145 18.2051 22.0925 18.241C22.0225 18.2769 21.9525 18.223 21.9 18.2051C21.795 18.1512 21.69 18.0974 21.585 18.0435C21.375 17.9538 21.165 17.864 20.9375 17.7743C20.7275 17.7025 20.5 17.6307 20.2725 17.5589C20.1675 17.523 20.045 17.5051 19.94 17.4692C19.17 17.2897 18.3825 17.1999 17.595 17.2179C17.1225 17.2179 16.6675 17.2538 16.2125 17.3615C15.8975 17.4333 15.5825 17.5589 15.3025 17.7205C15.075 17.8461 14.9 18.0435 14.7775 18.2769C14.6725 18.4923 14.6025 18.7256 14.6025 18.9589C14.6025 19.2461 14.69 19.5512 14.8475 19.7846C15.075 20.0897 15.3725 20.323 15.6875 20.5025C16.2125 20.8076 16.755 21.0948 17.315 21.3461L18.365 21.7589C19.6075 22.2794 20.57 22.8358 21.27 23.4282C21.9 23.9307 22.4075 24.5948 22.74 25.3307C23.02 26.0307 23.16 26.7846 23.16 27.5384C23.1775 28.6153 22.8625 29.6564 22.2675 30.5358C21.6375 31.4153 20.78 32.0974 19.8 32.5102C18.82 32.941 17.5775 33.1743 16.1425 33.1743Z" fill="#99E83F"/>
<path d="M31.2275 18.2409C32.61 18.2409 33.7475 18.4922 34.5875 19.0127C35.41 19.4973 36.075 20.2332 36.495 21.1307C36.915 22.064 37.125 23.0871 37.1075 24.1102V29.6922C37.1075 30.0512 37.1075 30.4102 37.125 30.7332C37.1425 31.0563 37.1425 31.3973 37.16 31.7384C37.16 31.8102 37.1425 31.864 37.1075 31.882C36.2675 32.205 35.515 32.4743 34.85 32.6538C34.22 32.8332 33.59 32.9768 32.9425 33.0666C32.295 33.1384 31.63 33.1922 30.965 33.1743C29.985 33.1922 29.0225 33.0127 28.1125 32.6538C27.29 32.3307 26.5725 31.7743 26.0475 31.0563C25.5225 30.3384 25.26 29.4409 25.26 28.3461C25.26 27.305 25.54 26.4435 26.0825 25.7435C26.6775 25.0256 27.465 24.4691 28.3575 24.182C29.425 23.823 30.5275 23.6435 31.6475 23.6614H32.68C32.89 23.6614 33.1 23.6614 33.31 23.6973V23.5179C33.2925 23.3384 33.275 23.1768 33.205 23.0153C33.135 22.782 32.995 22.5666 32.82 22.3871C32.5925 22.1717 32.3125 22.0102 32.015 21.9025C31.56 21.7589 31.0875 21.705 30.615 21.723C29.9325 21.723 29.25 21.7768 28.585 21.9204C27.99 22.0461 27.4125 22.2256 26.87 22.4768C26.8175 22.4948 26.7475 22.4948 26.695 22.4768C26.6425 22.4589 26.6075 22.3871 26.6075 22.3332V19.4256C26.59 19.282 26.6775 19.1563 26.8 19.1025C27.465 18.7973 28.1825 18.582 28.9 18.4563C29.6875 18.3127 30.4575 18.2409 31.2275 18.2409ZM33.31 29.7999V26.7307C33.0825 26.6948 32.8725 26.6589 32.6625 26.6409C32.4525 26.623 32.2075 26.605 31.91 26.605C30.895 26.605 30.1775 26.7666 29.7575 27.0717C29.355 27.3589 29.11 27.8435 29.1275 28.3461C29.1275 28.6512 29.215 28.9384 29.3725 29.1897C29.565 29.4768 29.845 29.6922 30.16 29.8179C30.5975 29.9973 31.07 30.0871 31.56 30.0691C31.875 30.0691 32.2075 30.0512 32.5225 29.9973C32.7675 29.9435 33.0475 29.8717 33.31 29.7999Z" fill="#99E83F"/>
</g>
<defs>
<clipPath id="clip0_201_678">
<rect width="42" height="42" fill="white" transform="translate(3 3.19995)"/>
</clipPath>
</defs>
</svg>
