<svg width="48" height="48" viewBox="0 0 48 48" fill="none" xmlns="http://www.w3.org/2000/svg">
<g clip-path="url(#clip0_201_675)">
<path d="M37.5625 2.54285H10.4375C6.32988 2.54285 3 5.95811 3 10.1711V36.9146C3 41.1276 6.32988 44.5428 10.4375 44.5428H37.5625C41.6701 44.5428 45 41.1276 45 36.9146V10.1711C45 5.95811 41.6701 2.54285 37.5625 2.54285Z" fill="#470137"/>
<path d="M6.9886 31.938V13.5593C6.98536 13.5313 6.9877 13.503 6.99548 13.4761C7.00325 13.4491 7.01631 13.424 7.03384 13.4024C7.05137 13.3808 7.07301 13.363 7.09744 13.3503C7.12188 13.3375 7.14859 13.33 7.17595 13.3281C7.44359 13.3091 7.83616 13.2947 8.35366 13.2848C8.871 13.2753 9.47769 13.2656 10.1737 13.2559C10.8697 13.2464 11.6102 13.2416 12.3954 13.2414C14.5367 13.2414 16.3122 13.6363 17.7219 14.4262C19.0741 15.1576 20.1796 16.2907 20.8936 17.6772C21.5983 19.0547 21.9507 20.6393 21.9509 22.4308C21.9716 23.6819 21.7861 24.9275 21.4022 26.1152C21.0708 27.1212 20.5628 28.0565 19.9032 28.8749C19.2889 29.6286 18.5616 30.2773 17.7486 30.7966C16.9529 31.3041 16.0864 31.6841 15.179 31.9236C14.2964 32.1609 13.3881 32.2823 12.4757 32.2848H10.4816C9.77645 32.2848 9.12068 32.28 8.51423 32.2704C7.90743 32.2604 7.45241 32.246 7.14916 32.227C7.04209 32.227 6.98857 32.1307 6.9886 31.938ZM10.6823 16.7958V28.7593C10.8784 28.7593 11.0569 28.7641 11.2177 28.7738C11.3782 28.7837 11.5433 28.7934 11.7128 28.8027C11.8822 28.8126 12.074 28.8174 12.2883 28.8171C13.0995 28.8282 13.9061 28.6912 14.6705 28.4126C15.3638 28.1565 15.9909 27.7414 16.504 27.1989C17.0311 26.6283 17.4327 25.9484 17.6817 25.2049C17.9701 24.3404 18.1104 23.4312 18.0966 22.5175C18.1133 21.6567 17.9773 20.7999 17.6951 19.9889C17.452 19.3002 17.0556 18.6792 16.5376 18.175C16.0195 17.6709 15.3939 17.2976 14.7106 17.0848C13.9611 16.8468 13.18 16.7298 12.3954 16.738C12.0382 16.738 11.7393 16.7428 11.4987 16.7524C11.2578 16.7624 10.9856 16.7768 10.6823 16.7958V16.7958Z" fill="#FF61F6"/>
<path d="M37.6205 32.2298H34.3452C34.3072 32.2351 34.2685 32.2313 34.2321 32.2188C34.1958 32.2063 34.1627 32.1853 34.1355 32.1575C34.091 32.0906 34.0557 32.0177 34.0308 31.9408C33.6987 30.496 33.4192 29.2197 33.1922 28.1119C32.965 27.0043 32.7773 26.0652 32.6289 25.2944C32.4803 24.5241 32.358 23.8691 32.2621 23.3294C32.1658 22.7903 32.0916 22.3376 32.0393 21.9712H32.0132C31.8384 22.7614 31.6768 23.5272 31.5284 24.2686C31.3797 25.0104 31.2182 25.7569 31.0437 26.5081C30.8689 27.2595 30.6723 28.0879 30.4541 28.9933C30.2355 29.8991 29.9953 30.8816 29.7335 31.9408C29.6983 32.1336 29.6025 32.2298 29.4453 32.2298H26.1699C26.083 32.2394 25.9954 32.2191 25.921 32.172C25.8661 32.1155 25.8256 32.0461 25.8031 31.9697L22.3967 18.099C22.3443 17.945 22.4142 17.8679 22.6063 17.8678H25.9079C26.0651 17.8678 26.1524 17.9256 26.1699 18.0412C26.5192 19.6211 26.8118 20.984 27.0477 22.1302C27.2836 23.2766 27.467 24.2543 27.598 25.0632C27.729 25.8724 27.8382 26.5322 27.9255 27.0427C28.0127 27.5534 28.0826 27.9724 28.1352 28.2998H28.1875C28.2155 28.0181 28.2592 27.7383 28.3186 27.4617C28.3882 27.115 28.4755 26.667 28.5806 26.118C28.6854 25.5689 28.8164 24.9187 28.9736 24.1674C29.1308 23.4161 29.3098 22.5444 29.5107 21.5522C29.7114 20.5602 29.9778 19.4284 30.3099 18.1568C30.3167 18.076 30.339 17.9974 30.3755 17.9256C30.4017 17.8872 30.4672 17.8678 30.572 17.8678H34.0046C34.1094 17.8678 34.1703 17.9355 34.188 18.0701C34.4848 19.3804 34.7337 20.5315 34.9347 21.5233C35.1354 22.5158 35.3101 23.3923 35.4588 24.153C35.607 24.9143 35.7206 25.5693 35.7994 26.118C35.878 26.6671 35.9523 27.1294 36.0222 27.5051C36.0813 27.806 36.1251 28.1098 36.1532 28.4154H36.2056C36.2928 28.0496 36.3714 27.6258 36.4414 27.1439C36.511 26.6625 36.6027 26.1183 36.7166 25.5111C36.83 24.9043 36.9522 24.2349 37.0834 23.5028C37.2144 22.7709 37.376 21.9521 37.5681 21.0465C37.7601 20.1412 37.9785 19.1587 38.2232 18.099C38.258 17.945 38.3366 17.8679 38.4591 17.8678H41.5248C41.6819 17.8678 41.7431 17.9545 41.7082 18.1278L37.935 31.9697C37.9123 32.0431 37.8767 32.1117 37.8301 32.172C37.7703 32.2187 37.6951 32.2394 37.6205 32.2298Z" fill="#FF61F6"/>
</g>
<defs>
<clipPath id="clip0_201_675">
<rect width="42" height="42" fill="white" transform="translate(3 2.54285)"/>
</clipPath>
</defs>
</svg>
