<svg width="48" height="48" viewBox="0 0 48 48" fill="none" xmlns="http://www.w3.org/2000/svg">
<g clip-path="url(#clip0_201_663)">
<path d="M37.5625 3H10.4375C6.32988 3 3 6.41526 3 10.6282V37.3718C3 41.5847 6.32988 45 10.4375 45H37.5625C41.6701 45 45 41.5847 45 37.3718V10.6282C45 6.41526 41.6701 3 37.5625 3Z" fill="#00005B"/>
<path d="M8.92206 13.9305C8.9245 13.9045 8.93205 13.8792 8.94425 13.8563C8.95645 13.8333 8.97306 13.8131 8.99306 13.7969C9.01307 13.7807 9.03606 13.7689 9.06066 13.762C9.08526 13.7552 9.11096 13.7535 9.1362 13.7571H14.0612C14.1259 13.7482 14.1915 13.7638 14.2458 13.8011C14.3 13.8383 14.3391 13.8946 14.3556 13.9594C14.4802 14.4606 14.6319 15.0626 14.8106 15.7655C14.9888 16.4689 15.1806 17.2444 15.3861 18.0917C15.5911 18.9397 15.8007 19.8066 16.0151 20.6925C16.2293 21.5789 16.439 22.441 16.6442 23.2788C16.8491 24.1168 17.023 24.8874 17.166 25.5906C17.3087 26.2941 17.4247 26.8768 17.5141 27.3389H17.5408C17.6119 26.9343 17.7368 26.3949 17.9156 25.7206C18.0937 25.0465 18.2988 24.2904 18.5311 23.4522C18.7629 22.6142 18.9993 21.7521 19.2404 20.8659C19.4814 19.98 19.7178 19.1034 19.9498 18.2362C20.1814 17.3693 20.4 16.565 20.6055 15.8233C20.8105 15.0819 20.9755 14.4606 21.1007 13.9594C21.1096 13.9012 21.1391 13.8484 21.1835 13.8111C21.228 13.7738 21.2842 13.7546 21.3416 13.7571H26.1328C26.1617 13.7531 26.1911 13.7552 26.2192 13.7634C26.2474 13.7715 26.2735 13.7855 26.2961 13.8045C26.3187 13.8235 26.3373 13.847 26.3506 13.8737C26.364 13.9003 26.3718 13.9295 26.3737 13.9594L27.016 32.4249C27.026 32.457 27.0275 32.4913 27.0205 32.5243C27.0134 32.5572 26.9981 32.5877 26.9759 32.6127C26.9535 32.6366 26.9265 32.6555 26.8965 32.6679C26.8665 32.6804 26.8342 32.6862 26.8019 32.6849H23.3223C23.2742 32.6867 23.2269 32.6714 23.1885 32.6416C23.1684 32.621 23.1531 32.596 23.1438 32.5685C23.1346 32.5409 23.1315 32.5116 23.135 32.4827C23.135 31.5001 23.1305 30.4694 23.1216 29.3906C23.1123 28.3119 23.0989 27.2283 23.0814 26.1397C23.0635 25.0515 23.0635 24.0064 23.0814 23.0043C23.099 22.0028 23.1079 21.0781 23.1082 20.2301C23.1082 19.3826 23.1126 18.6458 23.1216 18.0195C23.1303 17.3937 23.1348 16.9265 23.135 16.6179H23.1082C23.0011 17.0997 22.8584 17.7307 22.6799 18.5107C22.5013 19.291 22.2917 20.1675 22.0509 21.1404C21.81 22.1134 21.5513 23.12 21.2747 24.1602C20.9978 25.2005 20.7302 26.2312 20.4717 27.2522C20.2129 28.2736 19.963 29.2272 19.7222 30.113C19.4814 30.9994 19.2806 31.7796 19.12 32.4537C19.1039 32.5209 19.066 32.5804 19.0124 32.6225C18.9589 32.6645 18.893 32.6866 18.8256 32.6849H15.801C15.7288 32.6952 15.6556 32.6771 15.596 32.6342C15.5364 32.5913 15.4948 32.5268 15.4798 32.4537C15.3192 31.7796 15.1363 30.9994 14.9311 30.113C14.7257 29.2272 14.516 28.3025 14.302 27.3389C14.088 26.3758 13.8605 25.3885 13.6195 24.3769C13.3787 23.3655 13.1512 22.3878 12.937 21.4439C12.7229 20.5001 12.5311 19.614 12.3615 18.7853C12.1917 17.9572 12.0356 17.2251 11.8931 16.5891H11.8396V18.872C11.8396 19.7583 11.8262 20.736 11.7994 21.8051C11.7727 22.8743 11.7459 23.9916 11.7192 25.1572C11.6924 26.323 11.6612 27.5271 11.6255 28.7693C11.5895 30.0119 11.5449 31.24 11.4916 32.4537C11.4916 32.6082 11.4201 32.6849 11.2775 32.6849H8.17264C8.11182 32.6877 8.05148 32.6727 7.99868 32.6416C7.95387 32.6127 7.94048 32.5404 7.9585 32.4249L8.92206 13.9305Z" fill="#9999FF"/>
<path d="M37.418 26.3784H31.8676C31.9357 26.9182 32.1185 27.4361 32.4029 27.8956C32.718 28.3773 33.1636 28.754 33.6848 28.9792C34.2576 29.2492 35.0043 29.3841 35.9248 29.3838C36.534 29.3864 37.1421 29.3332 37.742 29.2248C38.3084 29.121 38.8614 28.9513 39.3903 28.7191C39.484 28.6424 39.5312 28.6902 39.5312 28.8636V31.6089C39.5358 31.6837 39.5212 31.7584 39.4889 31.8256C39.4566 31.8781 39.4133 31.9226 39.3621 31.9556C38.7787 32.2387 38.1636 32.4473 37.5307 32.5769C36.7135 32.7344 35.8828 32.807 35.0513 32.7937C33.7174 32.7937 32.5998 32.5818 31.6985 32.1579C30.8464 31.773 30.0939 31.1891 29.5009 30.453C28.9469 29.7593 28.5349 28.9584 28.2893 28.0978C28.0462 27.2485 27.9228 26.3678 27.9231 25.4826C27.9205 24.5161 28.0679 23.5552 28.3598 22.6362C28.6409 21.7398 29.0855 20.9062 29.6699 20.1799C30.2463 19.4621 30.9672 18.8806 31.7831 18.475C32.7006 18.0409 33.703 17.8283 34.7132 17.8537C35.6478 17.8295 36.5762 18.0169 37.4321 18.4027C38.1554 18.7387 38.7886 19.2493 39.2776 19.8909C39.7392 20.5019 40.0921 21.1915 40.32 21.9282C40.542 22.6382 40.6561 23.3789 40.6582 24.1245C40.6582 24.5484 40.6441 24.9337 40.6159 25.2803C40.5877 25.6271 40.5643 25.8775 40.5455 26.0317C40.5381 26.0954 40.5083 26.1541 40.4615 26.1967C40.4148 26.2394 40.3544 26.2629 40.2918 26.2629C40.1791 26.2629 39.9866 26.2773 39.7143 26.3062C39.4418 26.3351 39.1037 26.3543 38.7 26.364C38.2958 26.3739 37.8685 26.3787 37.418 26.3784ZM31.8676 23.5754H35.5585C36.0093 23.5754 36.3427 23.5706 36.5587 23.5609C36.696 23.561 36.8329 23.5465 36.9673 23.5176V23.3442C36.9616 23.1182 36.9236 22.8943 36.8546 22.6796C36.7026 22.1866 36.3969 21.7584 35.9846 21.4608C35.5723 21.1632 35.0762 21.0127 34.5724 21.0324C34.0982 21.003 33.626 21.1158 33.2132 21.3569C32.8005 21.5981 32.4651 21.9572 32.2479 22.3906C32.0558 22.7602 31.9271 23.161 31.8676 23.5754Z" fill="#9999FF"/>
</g>
<defs>
<clipPath id="clip0_201_663">
<rect width="42" height="42" fill="white" transform="translate(3 3)"/>
</clipPath>
</defs>
</svg>
