<svg width="48" height="48" viewBox="0 0 48 48" fill="none" xmlns="http://www.w3.org/2000/svg">
<g clip-path="url(#clip0_201_681)">
<path d="M10.4375 3.39996H37.5625C41.675 3.39996 45 6.81022 45 11.0282V37.7718C45 41.9897 41.675 45.4 37.5625 45.4H10.4375C6.325 45.4 3 41.9897 3 37.7718V11.0282C3 6.81022 6.325 3.39996 10.4375 3.39996Z" fill="#001E36"/>
<path d="M15.8099 30.6641V17.5974C15.8099 17.5077 15.8449 17.4538 15.9324 17.4538C16.1424 17.4538 16.3349 17.4538 16.6324 17.4359C16.9299 17.4359 17.2449 17.4179 17.5774 17.4179C17.9099 17.4179 18.2774 17.4 18.6624 17.4C19.0474 17.4 19.4149 17.382 19.7824 17.382C20.6574 17.3641 21.5149 17.4897 22.3374 17.7769C22.9674 17.9923 23.5274 18.3512 23.9999 18.8179C24.4024 19.2307 24.7174 19.7154 24.9099 20.2538C25.1024 20.7743 25.1899 21.3307 25.1899 21.9051C25.1899 23 24.9449 23.8974 24.4549 24.6154C23.9649 25.3333 23.2649 25.8718 22.4599 26.1589C21.5674 26.4641 20.6224 26.6256 19.6599 26.5897C19.3624 26.5897 19.1524 26.5897 19.0474 26.5718C18.9249 26.5718 18.7499 26.5538 18.5049 26.5538V30.6282C18.5224 30.7179 18.4524 30.8077 18.3649 30.8077C18.3474 30.8077 18.3299 30.8077 18.3124 30.8077H15.9499C15.8624 30.8436 15.8099 30.7897 15.8099 30.6641ZM18.5049 19.9128V24.1846C18.6799 24.2025 18.8374 24.2025 18.9774 24.2025H19.6424C20.1324 24.2025 20.6049 24.1307 21.0774 23.9692C21.4799 23.8436 21.8299 23.6102 22.0924 23.2871C22.3549 22.982 22.4774 22.5333 22.4774 21.9769C22.4949 21.582 22.3899 21.1871 22.1799 20.8461C21.9699 20.523 21.6724 20.2718 21.3049 20.1282C20.8324 19.9487 20.3424 19.8589 19.8524 19.8769C19.5374 19.8769 19.2574 19.8769 19.0124 19.8948C18.7674 19.8769 18.6099 19.8948 18.5049 19.9128Z" fill="#31A8FF"/>
<path d="M32.9074 23.3949C32.5399 23.1975 32.1374 23.0539 31.7174 22.9641C31.2624 22.8564 30.7899 22.8026 30.3349 22.8026C30.0899 22.8026 29.8274 22.8205 29.5824 22.8923C29.4249 22.9282 29.2849 23.018 29.1974 23.1436C29.1274 23.2513 29.0924 23.377 29.0924 23.4846C29.0924 23.6103 29.1449 23.718 29.2149 23.8077C29.3374 23.9513 29.4774 24.059 29.6349 24.1488C29.9149 24.3103 30.2124 24.4539 30.5099 24.5616C31.1749 24.7949 31.8224 25.1 32.4174 25.4949C32.8199 25.7641 33.1524 26.1231 33.3974 26.5539C33.5899 26.9667 33.6949 27.4154 33.6949 27.8641C33.7124 28.4564 33.5374 29.0488 33.2224 29.5513C32.8724 30.0539 32.3999 30.4488 31.8399 30.6821C31.1224 30.9693 30.3699 31.1129 29.5999 31.0949C29.0399 31.0949 28.4624 31.0411 27.9199 30.9334C27.4824 30.8436 27.0624 30.718 26.6599 30.5205C26.5724 30.4667 26.5199 30.377 26.5199 30.2693V28.0616C26.5199 28.0257 26.5374 27.9718 26.5724 27.9539C26.6074 27.9359 26.6599 27.9359 26.6774 27.9718C27.1499 28.259 27.6749 28.4744 28.2174 28.6C28.6899 28.7257 29.1799 28.7795 29.6699 28.7975C30.0199 28.8154 30.3699 28.7616 30.7024 28.618C30.9124 28.5282 31.0349 28.3129 31.0349 28.0795C31.0174 27.8641 30.9124 27.6846 30.7374 27.559C30.3524 27.3077 29.9499 27.1103 29.5124 26.9667C28.8824 26.7513 28.2874 26.4282 27.7449 26.0513C27.3599 25.7641 27.0274 25.4052 26.7999 24.9744C26.6074 24.5795 26.5024 24.1308 26.5024 23.6821C26.5024 23.1436 26.6424 22.6052 26.9224 22.1385C27.2374 21.6359 27.6924 21.2231 28.2174 20.9718C28.8999 20.6488 29.6524 20.4872 30.4049 20.5231C30.9124 20.5231 31.4374 20.559 31.9449 20.6308C32.3124 20.6846 32.6799 20.7744 33.0124 20.9359C33.0649 20.9539 33.1174 20.9898 33.1349 21.0436C33.1524 21.0975 33.1524 21.1513 33.1524 21.2052V23.2693C33.1524 23.3231 33.1349 23.359 33.0999 23.3949C33.0299 23.4308 32.9599 23.4308 32.9074 23.3949Z" fill="#31A8FF"/>
<g opacity="0.6">
<path opacity="0.6" d="M24 41.7743C23.3175 41.7743 22.67 41.5051 22.1975 41.0025L7.81246 26.2487C6.81496 25.2256 6.81496 23.5743 7.81246 22.5512L22.1975 7.7974C23.195 6.77432 24.805 6.77432 25.8025 7.7974L40.1875 22.5512C41.185 23.5743 41.185 25.2256 40.1875 26.2487L25.8025 41.0025C25.33 41.4871 24.6825 41.7743 24 41.7743ZM22.6875 40.5C23.405 41.2359 24.5775 41.2359 25.295 40.5L39.68 25.7461C40.3975 25.0102 40.3975 23.8077 39.68 23.0718L25.295 8.31791C24.5775 7.58201 23.405 7.58201 22.6875 8.31791L8.30246 23.0718C7.58496 23.8077 7.58496 25.0102 8.30246 25.7461L22.6875 40.5Z" fill="#31A8FF"/>
</g>
</g>
<defs>
<clipPath id="clip0_201_681">
<rect width="42" height="42" fill="white" transform="translate(3 3.39996)"/>
</clipPath>
</defs>
</svg>
