<svg width="48" height="48" viewBox="0 0 48 48" fill="none" xmlns="http://www.w3.org/2000/svg">
<g clip-path="url(#clip0_201_684)">
<path d="M10.425 3.39996H37.575C41.7 3.39996 45 6.82219 45 11.1V37.7C45 41.9777 41.7 45.4 37.575 45.4H10.425C6.3 45.4 3 41.9777 3 37.7V11.1C3 6.82219 6.3 3.39996 10.425 3.39996Z" fill="#808080"/>
<path d="M11.7 32.7222V14.3667C11.7 14.2111 11.775 14.1333 11.85 14.1333C12.15 14.1333 12.525 14.1333 12.9 14.1333C13.275 14.1333 13.725 14.1333 14.25 14.1333C14.7 14.1333 15.225 14.1333 15.75 14.1333C16.275 14.1333 16.8 14.1333 17.325 14.1333C18.525 14.1333 19.725 14.2889 20.85 14.6778C21.75 14.9889 22.5 15.4556 23.175 16.1556C23.7 16.7 24.15 17.4 24.45 18.1778C24.675 18.9556 24.825 19.7333 24.825 20.5111C24.9 21.8333 24.525 23.1556 23.775 24.3222C23.1 25.3333 22.125 26.1111 21 26.5C19.725 26.9667 18.45 27.2 17.1 27.2C16.725 27.2 16.425 27.2 16.275 27.2C16.125 27.2 15.825 27.2 15.525 27.2V32.8778C15.525 33.0333 15.45 33.1111 15.3 33.1111H15.225H11.85C11.775 32.9556 11.7 32.8778 11.7 32.7222ZM15.525 17.5556V23.5444C15.75 23.5444 15.975 23.5444 16.2 23.5444H17.1C17.775 23.5444 18.45 23.4667 19.05 23.2333C19.575 23.0778 20.1 22.7667 20.475 22.3C20.85 21.7556 21.075 21.1333 21 20.4333C21 19.8889 20.85 19.3444 20.625 18.8778C20.325 18.4111 19.875 18.0222 19.425 17.8667C18.75 17.6333 18.075 17.4778 17.4 17.4778C16.95 17.4778 16.575 17.4778 16.2 17.4778C15.9 17.5556 15.675 17.5556 15.525 17.5556Z" fill="white"/>
<path d="M35.625 22.3778C34.95 22.0667 34.275 21.9111 33.6 21.7556C33 21.6 32.325 21.5222 31.65 21.5222C31.275 21.5222 30.975 21.5222 30.6 21.6778C30.375 21.7555 30.225 21.8333 30.075 22.0667C30 22.2222 29.925 22.3778 29.925 22.5333C29.925 22.6889 30 22.8444 30.075 23C30.225 23.2333 30.45 23.3889 30.675 23.4667C31.05 23.7 31.5 23.8556 31.875 24.0889C32.775 24.4 33.675 24.8667 34.5 25.4111C35.1 25.8 35.55 26.2667 35.85 26.8889C36.15 27.4333 36.3 28.0555 36.225 28.7555C36.225 29.6111 36 30.3889 35.55 31.1667C35.1 31.8667 34.425 32.4111 33.6 32.8C32.625 33.1889 31.575 33.4222 30.45 33.3444C29.7 33.3444 28.875 33.2667 28.125 33.1111C27.45 32.9556 26.85 32.8 26.25 32.5667C26.1 32.4889 26.025 32.3333 26.025 32.2555V29.1444C26.025 29.0667 26.025 28.9889 26.1 28.9889C26.175 28.9889 26.175 28.9889 26.25 28.9889C26.925 29.3778 27.675 29.6889 28.5 29.8444C29.175 30 29.85 30.0778 30.525 30.1556C31.05 30.1556 31.5 30.0778 31.95 29.9222C32.25 29.7667 32.4 29.5333 32.4 29.1444C32.4 28.8333 32.25 28.6 31.95 28.4444C31.425 28.0555 30.825 27.8222 30.225 27.5889C29.325 27.2778 28.5 26.8111 27.75 26.2667C27.225 25.8778 26.775 25.3333 26.475 24.7889C26.175 24.2444 26.1 23.6222 26.1 23C26.1 22.2222 26.325 21.5222 26.7 20.8222C27.15 20.1222 27.75 19.5 28.5 19.1889C29.325 18.7222 30.3 18.4889 31.275 18.4889C32.025 18.4111 32.85 18.4889 33.6 18.4889C34.2 18.6444 34.875 18.8 35.4 19.1111C35.475 19.1111 35.55 19.1889 35.55 19.2667C35.55 19.3444 35.55 19.4222 35.55 19.5V22.3778C35.55 22.4555 35.55 22.5333 35.475 22.5333C35.775 22.4556 35.7 22.4555 35.625 22.3778Z" fill="white"/>
</g>
<defs>
<clipPath id="clip0_201_684">
<rect width="42" height="42" fill="white" transform="translate(3 3.39996)"/>
</clipPath>
</defs>
</svg>
