<svg width="48" height="48" viewBox="0 0 48 48" fill="none" xmlns="http://www.w3.org/2000/svg">
<g clip-path="url(#clip0_201_660)">
<path d="M37.5625 3H10.4375C6.32988 3 3 6.50283 3 10.8238V38.2531C3 42.5741 6.32988 46.0769 10.4375 46.0769H37.5625C41.6701 46.0769 45 42.5741 45 38.2531V10.8238C45 6.50283 41.6701 3 37.5625 3Z" fill="#000B1D"/>
<path d="M26.1515 21.0383C25.1709 24.4955 24.3458 27.828 23.3652 31.09C22.8085 32.9301 22.199 34.6866 21.4305 35.8017C20.5823 37.0563 18.992 38.2552 17.0839 38.2552C15.7322 38.2552 14.407 37.586 14.407 36.1084C14.407 35.1883 15.3081 34.3241 16.0237 34.3241C16.1747 34.3178 16.3244 34.3563 16.4556 34.4352C16.5868 34.5141 16.6943 34.6302 16.7658 34.7702C17.4284 36.0248 18.0645 36.7496 18.356 36.7496C18.6476 36.7496 18.8861 36.3315 19.3631 34.5193L22.8418 21.0406L20.339 21.0377C20.1534 20.4521 20.4174 19.751 20.7354 19.6116H23.2268C23.7038 17.9945 24.2663 16.3415 25.0614 14.8639C26.254 12.6057 28.1623 10.8214 30.786 10.8214C32.7738 10.8214 33.5953 11.8251 33.5953 13.1076C33.5689 14.4736 32.4293 15.1706 31.8991 15.1706C31.4752 15.1706 31.2631 14.8361 31.1306 14.3622C30.6801 12.5779 30.097 12.0481 29.7524 12.0481C29.4079 12.0481 28.8777 12.7171 28.2948 14.1111C27.5261 15.8676 27.0091 17.7808 26.5321 19.6208L29.5631 19.6166C29.7485 20.0069 29.5979 20.8149 29.1473 21.038L26.1515 21.0383Z" fill="white"/>
</g>
<defs>
<clipPath id="clip0_201_660">
<rect width="42" height="42" fill="white" transform="translate(3 3)"/>
</clipPath>
</defs>
</svg>
