<svg width="48" height="48" viewBox="0 0 48 48" fill="none" xmlns="http://www.w3.org/2000/svg">
<g clip-path="url(#clip0_201_685)">
<path d="M10.425 3.39996H37.575C41.7 3.39996 45 6.82219 45 11.1V37.7C45 41.9777 41.7 45.4 37.575 45.4H10.425C6.3 45.4 3 41.9777 3 37.7V11.1C3 6.82219 6.3 3.39996 10.425 3.39996Z" fill="#808080"/>
<path d="M23.3251 28.2888H16.9501L15.6751 32.7222C15.6751 32.8777 15.5251 32.9555 15.3751 32.9555H12.1501C12.0001 32.9555 11.9251 32.8777 11.9251 32.6444L17.4751 16.0777C17.5501 15.9222 17.5501 15.6888 17.6251 15.4555C17.7001 15.1444 17.7751 14.8333 17.7001 14.4444C17.7001 14.3666 17.7751 14.2888 17.8501 14.2111C17.8501 14.2111 17.8501 14.2111 17.9251 14.2111H22.3501C22.5001 14.2111 22.5751 14.2888 22.5751 14.3666L28.8751 32.5666C28.9501 32.7222 28.8751 32.8777 28.7251 32.8777H25.1251C24.9751 32.8777 24.9001 32.7999 24.8251 32.6444L23.3251 28.2888ZM17.9251 25.1777H22.6501C22.5751 24.7888 22.1251 23.9333 21.9751 23.4666C21.8251 22.9999 21.6001 22.6111 21.4501 22.0666C21.3001 21.5222 21.1501 20.9777 20.9251 20.4333C20.7751 19.8888 20.6251 19.3444 20.4751 18.8777C20.3251 18.3333 20.1751 17.8666 20.1001 17.4777C19.9501 18.2555 19.7251 19.0333 19.5001 19.8111C19.2751 20.6666 18.9751 21.5222 18.6751 22.4555C18.4501 23.2333 18.1501 24.3999 17.9251 25.1777Z" fill="white"/>
<path d="M32.5501 17.1666C31.9501 17.1666 31.4251 16.9333 31.0501 16.5444C30.6751 16.0777 30.4501 15.5333 30.4501 14.911C30.4501 14.2888 30.6751 13.7444 31.0501 13.2777C31.5001 12.8888 32.0251 12.6555 32.6251 12.6555C33.2251 12.6555 33.7501 12.811 34.2001 13.2777C34.5751 13.7444 34.8001 14.2888 34.8001 14.911C34.8001 15.5333 34.5751 16.0777 34.2001 16.5444C33.7501 16.9333 33.1501 17.1666 32.5501 17.1666ZM30.7501 32.5666V19.3444C30.7501 19.1888 30.8251 19.111 30.9751 19.111H34.1251C34.2751 19.111 34.3501 19.1888 34.3501 19.3444V32.4888C34.3501 32.6444 34.2751 32.7999 34.1251 32.7999H30.9751C30.8251 32.7999 30.7501 32.7222 30.7501 32.5666Z" fill="white"/>
</g>
<defs>
<clipPath id="clip0_201_685">
<rect width="42" height="42" fill="white" transform="translate(3 3.39996)"/>
</clipPath>
</defs>
</svg>
