<svg width="48" height="48" viewBox="0 0 48 48" fill="none" xmlns="http://www.w3.org/2000/svg">
<g clip-path="url(#clip0_201_664)">
<path d="M37.5625 3H10.4375C6.32988 3 3 6.41526 3 10.6282V37.3718C3 41.5847 6.32988 45 10.4375 45H37.5625C41.6701 45 45 41.5847 45 37.3718V10.6282C45 6.41526 41.6701 3 37.5625 3Z" fill="#001E36"/>
<path d="M17.7336 32.6842H7.74275C7.57364 32.6842 7.48912 32.5782 7.4892 32.3663V14.0164C7.4892 13.8431 7.56528 13.7564 7.71745 13.7563H10.8111C10.9291 13.7563 10.9886 13.8241 10.9886 13.9587V29.0431H18.2662C18.4183 29.0431 18.4775 29.1298 18.4437 29.3032L17.9872 32.4241C17.9702 32.5397 17.9364 32.6119 17.8858 32.6408C17.8396 32.6685 17.7871 32.6834 17.7336 32.6842Z" fill="#31A8FF"/>
<path d="M20.2439 18.3221H23.0078C23.16 18.3221 23.2698 18.4185 23.3375 18.6111C23.3982 18.7391 23.4409 18.8753 23.4643 19.0157C23.4997 19.202 23.5251 19.3901 23.5403 19.5792C23.557 19.7815 23.5655 19.9982 23.5657 20.2294C24.0288 19.6106 24.6007 19.0862 25.252 18.6834C25.9583 18.2438 26.7715 18.0183 27.5976 18.0332C27.7497 18.0332 27.8257 18.1199 27.8257 18.2933V21.7899C27.8257 21.9249 27.7412 21.9923 27.5722 21.9921C27.0153 21.951 26.4556 21.9948 25.9113 22.1222C25.4546 22.2261 25.0119 22.3861 24.5927 22.599C24.2691 22.7602 23.9803 22.9862 23.7432 23.2636V32.4241C23.7432 32.5975 23.6756 32.6842 23.5403 32.6842H20.4721C20.3029 32.6842 20.2184 32.5879 20.2185 32.3952V22.4545C20.2185 22.0309 20.2143 21.583 20.2058 21.1108C20.1971 20.6389 20.1844 20.1717 20.1678 19.7092C20.1566 19.3126 20.1227 18.917 20.0664 18.5245C20.0607 18.4686 20.0741 18.4124 20.1044 18.3655C20.1235 18.3489 20.1458 18.3364 20.1698 18.329C20.1938 18.3215 20.219 18.3192 20.2439 18.3221Z" fill="#31A8FF"/>
<path d="M40.2088 15.672C39.8344 15.5169 39.4413 15.4139 39.0402 15.3659C38.4484 15.2895 37.8522 15.2543 37.2558 15.2607C35.5394 15.2607 34.0379 15.638 32.7931 16.3822C31.5524 17.1218 30.5464 18.2131 29.896 19.5251C29.2213 20.8618 28.8792 22.433 28.8792 24.1953C28.8659 25.26 28.998 26.3213 29.2714 27.3484C29.5084 28.2233 29.884 29.0522 30.3832 29.8021C30.8507 30.4941 31.4315 31.0979 32.1 31.5865C32.7727 32.0745 33.5218 32.441 34.3149 32.6702C35.1457 32.9097 36.0049 33.0294 36.8679 33.0259C37.4721 33.0284 38.0758 32.9889 38.6748 32.9077C39.1576 32.8495 39.6313 32.7289 40.0845 32.5486C40.1712 32.5075 40.2429 32.439 40.2889 32.3531C40.335 32.2673 40.3531 32.1686 40.3405 32.0714V29.394C40.3458 29.3461 40.3405 29.2976 40.3252 29.2521C40.3098 29.2065 40.2847 29.1651 40.2517 29.1307C40.2079 29.0935 40.1151 29.0491 39.9787 29.1563C39.586 29.3074 39.1764 29.4075 38.7594 29.4543C38.2524 29.5089 37.7428 29.5347 37.233 29.5315C36.7695 29.5287 36.3083 29.4646 35.8609 29.3407C35.3949 29.2143 34.9483 29.0219 34.5341 28.769C34.1038 28.5003 33.7281 28.149 33.4276 27.7342C33.0875 27.2665 32.8277 26.7427 32.6594 26.1853C32.4617 25.5062 32.3674 24.7998 32.3799 24.0912C32.3565 23.1015 32.5551 22.1196 32.9605 21.2211C33.3241 20.4457 33.8941 19.7915 34.6047 19.3342C35.3779 18.8628 36.2655 18.626 37.1646 18.6512C37.7155 18.6484 38.2656 18.6956 38.8085 18.7922C39.2474 18.8647 39.6719 19.0102 40.0652 19.2229C40.099 19.2437 40.1375 19.2548 40.1769 19.2551C40.2163 19.2554 40.2551 19.2449 40.2892 19.2246C40.3269 19.1922 40.3564 19.1508 40.3749 19.1041C40.3935 19.0573 40.4006 19.0066 40.3957 18.9564V16.0968C40.4043 16.0154 40.3914 15.9331 40.3586 15.8584C40.3257 15.7837 40.274 15.7193 40.2088 15.672Z" fill="#31A8FF"/>
</g>
<defs>
<clipPath id="clip0_201_664">
<rect width="42" height="42" fill="white" transform="translate(3 3)"/>
</clipPath>
</defs>
</svg>
