<svg width="48" height="48" viewBox="0 0 48 48" fill="none" xmlns="http://www.w3.org/2000/svg">
<g clip-path="url(#clip0_201_665)">
<path d="M37.5625 3H10.4375C6.32988 3 3 6.41526 3 10.6282V37.3718C3 41.5847 6.32988 45 10.4375 45H37.5625C41.6701 45 45 41.5847 45 37.3718V10.6282C45 6.41526 41.6701 3 37.5625 3Z" fill="#000B1D"/>
<path d="M23.6354 29.072V32.0484C23.6467 32.1319 23.6308 32.2169 23.59 32.2901C23.5492 32.3633 23.486 32.4206 23.4101 32.453C22.8584 32.65 22.2864 32.7809 21.7055 32.8431C20.9805 32.9327 20.2509 32.9762 19.5208 32.9732C18.4711 32.9782 17.425 32.8471 16.4074 32.583C15.4546 32.3379 14.5462 31.9379 13.7167 31.3982C12.9171 30.8764 12.2118 30.2165 11.6318 29.4477C11.0306 28.6403 10.5728 27.7306 10.2794 26.7602C9.95419 25.6267 9.80096 24.4485 9.8251 23.2672C9.8251 21.3216 10.2134 19.637 11.0401 18.1632C11.8647 16.6914 13.0881 15.4968 14.562 14.7244C16.0835 13.9058 17.9473 13.4435 20.0512 13.4435C20.7807 13.4362 21.5099 13.4748 22.2348 13.5591C22.7261 13.6221 23.208 13.747 23.6695 13.931C23.7209 13.9708 23.761 14.0239 23.7858 14.0848C23.8105 14.1458 23.819 14.2124 23.8104 14.2778L23.8034 17.4841C23.8034 17.6575 23.7373 17.7153 23.6062 17.6575C23.0784 17.4085 22.5186 17.2382 21.9438 17.1518C21.2635 17.0427 20.5757 16.9896 19.8871 16.9929C18.6284 16.9929 17.5483 17.253 16.6469 17.7731C15.7659 18.2721 15.0425 19.0191 14.562 19.926C14.0532 20.9285 13.8011 22.0471 13.8294 23.1769C13.8138 23.9816 13.9329 24.7831 14.1816 25.5465C14.3989 26.1896 14.7283 26.7869 15.1537 27.3093C15.5455 27.7925 16.0236 28.1947 16.5624 28.4941C17.0912 28.7967 17.6558 29.0282 18.2423 29.1828C18.8096 29.3243 19.3911 29.3971 19.975 29.3996C20.6009 29.4033 21.2267 29.3744 21.8498 29.3129C22.3827 29.2471 22.9063 29.1178 23.4101 28.9275C23.4848 28.8697 23.5412 28.8553 23.5791 28.8842C23.6014 28.9093 23.618 28.9391 23.6278 28.9716C23.6375 29.0041 23.6401 29.0384 23.6354 29.072Z" fill="white"/>
<path d="M31.6356 18.0919C33.0254 18.0919 34.1477 18.352 35.0025 18.8721C35.857 19.3923 36.4353 19.9799 36.8486 20.8658C37.2713 21.7973 37.4832 22.8148 37.4684 23.8422V29.4194C37.4684 29.7856 37.4731 30.1324 37.4825 30.4598C37.4918 30.7876 37.5059 31.1247 37.5248 31.4712C37.5248 31.5484 37.5059 31.5967 37.4684 31.6156C36.6233 31.9435 35.9274 32.2607 35.2702 32.453C34.6429 32.6393 34.0023 32.7746 33.3543 32.8576C32.6997 32.9365 32.0411 32.9751 31.3821 32.9732C30.4053 32.9871 29.4348 32.8106 28.5222 32.453C27.6797 32.1336 26.9384 31.584 26.3785 30.8636C25.8524 30.1512 25.5895 29.2457 25.5896 28.1473C25.5896 27.107 25.8667 26.2401 26.4208 25.5465C26.9746 24.853 27.8038 24.3328 28.7618 23.9861C29.8239 23.6223 30.9386 23.4465 32.0582 23.4659H33.0866C33.2983 23.4608 33.5101 23.4704 33.7205 23.4948V23.3214C33.7101 23.149 33.6769 22.9789 33.6219 22.8157C33.547 22.5796 33.4163 22.3662 33.2416 22.1944C33.0181 21.9475 32.7438 21.7547 32.4386 21.6301C31.9868 21.4899 31.5157 21.4265 31.0439 21.4423C30.3627 21.4373 29.6829 21.5051 29.0154 21.6446C28.3955 21.7796 27.7688 22.1385 27.2431 22.3697C27.1884 22.3891 27.1289 22.3891 27.0741 22.3697C27.0459 22.3593 27.0221 22.3392 27.0067 22.3129C26.9913 22.2866 26.9853 22.2556 26.9896 22.2252V19.218C26.985 19.1503 27.0016 19.0829 27.0371 19.0257C27.0726 18.9685 27.1251 18.9245 27.1868 18.9001C27.8067 18.6111 28.5597 18.4531 29.3393 18.3086C30.0969 18.1662 30.8654 18.0936 31.6356 18.0919ZM33.6542 29.5109V26.6135C33.4288 26.5751 33.279 26.5462 33.0725 26.5268C32.8656 26.5078 32.6121 26.4982 32.3118 26.4979C31.2976 26.4979 30.6212 26.6523 30.1987 26.9602C29.7761 27.2686 29.5648 27.6082 29.5648 28.1473C29.5618 28.4196 29.6459 28.6854 29.8042 28.904C29.9959 29.2111 30.2698 29.4551 30.5931 29.6066C30.9594 29.7705 31.3821 29.7709 31.9455 29.7709C32.2662 29.7723 32.5865 29.7482 32.9035 29.6987C33.1582 29.6567 33.4092 29.5939 33.6542 29.5109V29.5109Z" fill="white"/>
</g>
<defs>
<clipPath id="clip0_201_665">
<rect width="42" height="42" fill="white" transform="translate(3 3)"/>
</clipPath>
</defs>
</svg>
