<svg width="48" height="48" viewBox="0 0 48 48" fill="none" xmlns="http://www.w3.org/2000/svg">
<g clip-path="url(#clip0_201_677)">
<path d="M10.4375 2.54285H37.5625C41.6701 2.54285 45 5.95813 45 10.1711V36.9146C45 41.1276 41.6701 44.5428 37.5625 44.5428H10.4375C6.3299 44.5428 3 41.1276 3 36.9146V10.1711C3 5.95813 6.3299 2.54285 10.4375 2.54285Z" fill="#1E3101"/>
<path d="M12.0844 31.9958V13.5303C12.0844 13.3957 12.1408 13.3281 12.2535 13.3281C12.5538 13.3281 12.9106 13.3232 13.3241 13.3135C13.7369 13.304 14.1832 13.2945 14.6623 13.2846C15.1413 13.2751 15.6485 13.2654 16.1838 13.2557C16.7191 13.2462 17.2497 13.2414 17.7758 13.2412C19.2031 13.2412 20.4051 13.4243 21.3822 13.7902C22.2635 14.0959 23.0671 14.5995 23.7347 15.264C24.3006 15.84 24.738 16.5351 25.0167 17.3014C25.2803 18.0469 25.4138 18.8345 25.4112 19.6275C25.4112 21.1689 25.0636 22.4404 24.3687 23.442C23.6691 24.4476 22.6857 25.209 21.5512 25.6238C20.2867 26.0908 18.9505 26.321 17.6067 26.303C17.1934 26.303 16.9023 26.2982 16.7333 26.2885C16.5642 26.2789 16.3107 26.2741 15.9726 26.2739V31.9667C15.9901 32.0924 15.905 32.2088 15.7825 32.2268C15.7615 32.2298 15.7402 32.2298 15.7192 32.2268H12.2816C12.15 32.227 12.0844 32.1503 12.0844 31.9958ZM15.9726 16.7957V22.7775C16.2165 22.7969 16.4419 22.8066 16.6488 22.8064H17.5785C18.2605 22.8166 18.9399 22.7192 19.593 22.5174C20.1512 22.3475 20.65 22.0163 21.0299 21.5638C21.3962 21.1208 21.5794 20.5045 21.5794 19.7144C21.5943 19.1555 21.4525 18.6037 21.1709 18.125C20.8748 17.6621 20.447 17.3039 19.9454 17.0993C19.2906 16.8381 18.5909 16.7153 17.8886 16.7381C17.4378 16.7381 17.0387 16.743 16.6911 16.7525C16.3432 16.7624 16.1038 16.7769 15.9726 16.7957Z" fill="#99E83F"/>
<path d="M35.864 29.3661V31.7356C35.864 31.9478 35.7889 32.0731 35.6386 32.1113C35.2688 32.2301 34.8924 32.3267 34.5116 32.4003C34.0653 32.4818 33.6124 32.5205 33.1592 32.5159C31.9378 32.5159 30.9801 32.1883 30.2853 31.5334C29.5902 30.8786 29.2427 29.8288 29.2428 28.3835V21.217H27.5805C27.43 21.217 27.3551 21.1303 27.3551 20.9569V18.0961C27.3551 17.9421 27.4396 17.8651 27.6087 17.8649H29.271C29.2896 17.5375 29.313 17.157 29.3415 16.7235C29.3697 16.2901 29.4072 15.8566 29.4542 15.4231C29.501 14.9897 29.5431 14.6381 29.5809 14.3685C29.5995 14.3107 29.6282 14.2568 29.6655 14.2096C29.7019 14.1626 29.7507 14.1274 29.8063 14.1086L33.1592 13.6751C33.2327 13.6627 33.2803 13.6627 33.314 13.683C33.3513 13.7024 33.3564 13.7523 33.3564 13.8485C33.3186 14.2918 33.2904 14.894 33.2719 15.6545C33.253 16.4157 33.2341 17.1527 33.2155 17.8651H35.8358C35.9485 17.8651 36.0048 17.9421 36.0048 18.0962V21.0149C36.0192 21.1104 35.9567 21.2001 35.864 21.2172H33.1873V27.4012C33.1873 28.0563 33.2953 28.5235 33.5114 28.8026C33.727 29.0821 34.1262 29.2219 34.7088 29.2217C34.8778 29.2217 35.0371 29.2173 35.1878 29.2072C35.3379 29.1977 35.4882 29.1833 35.6386 29.164C35.6897 29.1444 35.7467 29.1496 35.7934 29.1783C35.8402 29.2072 35.864 29.2699 35.864 29.3661Z" fill="#99E83F"/>
</g>
<defs>
<clipPath id="clip0_201_677">
<rect width="42" height="42" fill="white" transform="translate(3 2.54285)"/>
</clipPath>
</defs>
</svg>
