<svg width="48" height="48" viewBox="0 0 48 48" fill="none" xmlns="http://www.w3.org/2000/svg">
<g clip-path="url(#clip0_1_1904)">
<path d="M34.1486 10.4229L24.6857 25.1658L40.0457 48L48 15.84L34.1486 10.4229Z" fill="url(#paint0_linear_1_1904)"/>
<path d="M35.04 10.7657L33.6 0L12.8914 23.04L18.9257 29.0057L14.2628 48H40.0457L35.04 10.7657Z" fill="url(#paint1_linear_1_1904)"/>
<path d="M33.6 0H7.95429L0 32.2971H38.1257L33.6 0Z" fill="url(#paint2_linear_1_1904)"/>
<path d="M37.92 32.2971L35.04 10.7657L33.6 0L28.5943 15.7714L37.92 32.2971Z" fill="url(#paint3_linear_1_1904)"/>
<path d="M38.8074 38.8222L9.18458 38.8986L9.10815 9.27574L38.731 9.19931L38.8074 38.8222Z" fill="black"/>
<path d="M12.0662 33.34L23.1747 33.3113L23.1795 35.1628L12.0709 35.1914L12.0662 33.34Z" fill="white"/>
<path d="M11.9314 13.0972H17.5543C19.1314 13.0972 20.2971 13.5086 21.12 14.3314C21.8057 15.0172 22.1486 15.9772 22.1486 17.1429V17.2114C22.1486 18.24 21.9429 18.9943 21.3943 19.6114C20.9143 20.2286 20.2971 20.7086 19.4743 20.9829L22.4914 25.3714H19.3371L16.8 21.6H14.5371V25.3714H11.8629L11.9314 13.0972ZM17.3486 19.0629C18.0343 19.0629 18.5143 18.9257 18.8571 18.5829C19.2 18.24 19.4057 17.8286 19.4057 17.3486V17.28C19.4057 16.6629 19.2 16.2514 18.8571 15.9772C18.5143 15.7029 17.9657 15.5657 17.28 15.5657H14.6057V19.0629H17.3486Z" fill="white"/>
<path d="M24.6857 22.7657H23.3829V20.5029H25.0972L25.5086 17.8972H23.9314V15.6343H25.8514L26.2629 13.0972H28.5943L28.1829 15.6343H30.72L31.1314 13.0972H33.4629L33.0514 15.6343H34.3543V17.8972H32.64L32.2286 20.5029H33.8057V22.7657H31.8857L31.4057 25.3714H29.0743L29.5543 22.7657H27.0172L26.5372 25.3714H24.2057L24.6857 22.7657ZM29.9657 20.5029L30.3772 17.8972H27.84L27.4286 20.5029H29.9657Z" fill="white"/>
</g>
<defs>
<linearGradient id="paint0_linear_1_1904" x1="15.7337" y1="51.9683" x2="51.2825" y2="14.1546" gradientUnits="userSpaceOnUse">
<stop offset="0.016" stop-color="#B35BA3"/>
<stop offset="0.404" stop-color="#C41E57"/>
<stop offset="0.468" stop-color="#C41E57"/>
<stop offset="0.65" stop-color="#EB8523"/>
<stop offset="0.952" stop-color="#FEBD11"/>
</linearGradient>
<linearGradient id="paint1_linear_1_1904" x1="12.1502" y1="50.2574" x2="47.6955" y2="12.4471" gradientUnits="userSpaceOnUse">
<stop offset="0.016" stop-color="#B35BA3"/>
<stop offset="0.404" stop-color="#C41E57"/>
<stop offset="0.468" stop-color="#C41E57"/>
<stop offset="0.704" stop-color="#EB8523"/>
</linearGradient>
<linearGradient id="paint2_linear_1_1904" x1="1.25349" y1="36.6363" x2="33.48" y2="6.3264" gradientUnits="userSpaceOnUse">
<stop offset="0.016" stop-color="#B35BA3"/>
<stop offset="0.661" stop-color="#C41E57"/>
</linearGradient>
<linearGradient id="paint3_linear_1_1904" x1="34.213" y1="-7.9248" x2="33.5033" y2="16.4811" gradientUnits="userSpaceOnUse">
<stop offset="0.5" stop-color="#C41E57"/>
<stop offset="0.667" stop-color="#D13F48"/>
<stop offset="0.795" stop-color="#D94F39"/>
<stop offset="0.866" stop-color="#DD5433"/>
</linearGradient>
<clipPath id="clip0_1_1904">
<rect width="48" height="48" fill="white"/>
</clipPath>
</defs>
</svg>
