<svg width="48" height="48" viewBox="0 0 48 48" fill="none" xmlns="http://www.w3.org/2000/svg">
<path d="M24.1553 46.0988L42.0076 35.79L35.165 31.8326L28.169 35.874C28.1094 35.9067 28.0425 35.9236 27.9745 35.9231C27.9066 35.9226 27.8399 35.9047 27.7808 35.871C27.7218 35.8366 27.6728 35.7875 27.6384 35.7285C27.604 35.6695 27.5855 35.6026 27.5847 35.5343V25.9365C27.5847 25.6538 27.731 25.3976 27.9758 25.257L36.2888 20.4563C36.348 20.4225 36.4151 20.405 36.4833 20.4055C36.5515 20.406 36.6183 20.4246 36.677 20.4593C36.7985 20.5268 36.8746 20.6543 36.8757 20.793V28.8716L43.7228 32.8268V12.21L24.1553 23.505V46.0988Z" fill="black"/>
<path d="M20.1517 35.8785L13.1528 31.8322L6.30487 35.7892L24.1553 46.0987V23.505L4.59375 12.2096V32.8256L11.439 28.872V20.7937C11.442 20.655 11.5166 20.5275 11.6366 20.46C11.6956 20.4253 11.7628 20.4067 11.8312 20.4062C11.8997 20.4057 11.9671 20.4232 12.0266 20.457L20.3438 25.257C20.4628 25.3261 20.5616 25.4253 20.6302 25.5446C20.6989 25.6639 20.735 25.7992 20.7349 25.9368V35.5361C20.7334 35.6748 20.6599 35.8023 20.5399 35.8743C20.4214 35.9448 20.2736 35.9456 20.1517 35.8785Z" fill="#4D4D4D"/>
<path d="M25.8705 1.90125V9.8085L32.8669 13.8472C32.9869 13.9174 33.0585 14.0464 33.0585 14.187C33.0585 14.3261 32.9854 14.4536 32.8669 14.5237L24.5509 19.3275C24.4314 19.3952 24.2964 19.4308 24.159 19.4308C24.0216 19.4308 23.8866 19.3952 23.7671 19.3275L15.4537 14.5237C15.3947 14.4896 15.3457 14.4405 15.3117 14.3814C15.2778 14.3222 15.26 14.2552 15.2603 14.187C15.2597 14.1183 15.2773 14.0507 15.3112 13.9911C15.3452 13.9314 15.3944 13.8818 15.4537 13.8472L22.4482 9.8085V1.90125L4.59375 12.21L24.1553 23.505L43.7212 12.21L25.8705 1.90125Z" fill="#808080"/>
</svg>
