<svg width="48" height="48" viewBox="0 0 48 48" fill="none" xmlns="http://www.w3.org/2000/svg">
<path d="M26 39H10C8.34315 39 7 40.3431 7 42C7 43.6569 8.34315 45 10 45H26C27.6569 45 29 43.6569 29 42C29 40.3431 27.6569 39 26 39Z" fill="#8964E8"/>
<path d="M32 30H29C27.3431 30 26 31.3431 26 33C26 34.6569 27.3431 36 29 36H32C33.6569 36 35 34.6569 35 33C35 31.3431 33.6569 30 32 30Z" fill="#17B877"/>
<path d="M20 30H17C15.3431 30 14 31.3431 14 33C14 34.6569 15.3431 36 17 36H20C21.6569 36 23 34.6569 23 33C23 31.3431 21.6569 30 20 30Z" fill="#17B877"/>
<path d="M31 21H24C22.3431 21 21 22.3431 21 24C21 25.6569 22.3431 27 24 27H31C32.6569 27 34 25.6569 34 24C34 22.3431 32.6569 21 31 21Z" fill="#FFA23E"/>
<path d="M43 24C43 22.3431 41.6569 21 40 21C38.3431 21 37 22.3431 37 24C37 25.6569 38.3431 27 40 27C41.6569 27 43 25.6569 43 24Z" fill="#FFA23E"/>
<path d="M33 12H17C15.3431 12 14 13.3431 14 15C14 16.6569 15.3431 18 17 18H33C34.6569 18 36 16.6569 36 15C36 13.3431 34.6569 12 33 12Z" fill="#25A6E9"/>
<path d="M26 3H19C17.3431 3 16 4.34315 16 6C16 7.65685 17.3431 9 19 9H26C27.6569 9 29 7.65685 29 6C29 4.34315 27.6569 3 26 3Z" fill="#8964E8"/>
<path d="M13 6C13 4.34315 11.6569 3 10 3C8.34315 3 7 4.34315 7 6C7 7.65685 8.34315 9 10 9C11.6569 9 13 7.65685 13 6Z" fill="#8964E8"/>
</svg>
