<svg width="48" height="48" viewBox="0 0 48 48" fill="none" xmlns="http://www.w3.org/2000/svg">
<g clip-path="url(#clip0_1_1981)">
<path d="M6.44571 43.4057L0 5.00574L12 0.0685921L19.6114 4.59431L26.6057 0.822878L41.2114 6.44573L32.9829 48L6.44571 43.4057Z" fill="url(#paint0_linear_1_1981)"/>
<path d="M48 16.2514L41.8286 0.96L30.5829 0L13.2343 16.6629L17.8972 38.1257L26.6057 44.2971L48 31.5429L42.72 21.7371L48 16.2514Z" fill="url(#paint1_linear_1_1981)"/>
<path d="M38.4 13.9885L42.72 21.7371L48 16.2514L44.16 6.71996L38.4 13.9885Z" fill="url(#paint2_linear_1_1981)"/>
<path d="M9.18854 9.18855H38.8114V38.8114H9.18854V9.18855Z" fill="black"/>
<path d="M12 33.2571H23.1086V35.1086H12V33.2571Z" fill="white"/>
<path d="M26.5371 23.52L28.1143 21.6C29.2114 22.4915 30.3771 23.1086 31.7485 23.1086C32.8457 23.1086 33.4628 22.6972 33.4628 21.9429V21.8743C33.4628 21.1886 33.0514 20.8457 30.9943 20.2972C28.5257 19.68 27.0171 18.9943 27.0171 16.5257V16.4572C27.0171 14.1943 28.8 12.7543 31.2685 12.7543C33.0514 12.7543 34.56 13.3029 35.7943 14.3314L34.4228 16.3886C33.3257 15.6343 32.2971 15.1543 31.2685 15.1543C30.24 15.1543 29.6914 15.6343 29.6914 16.2515V16.32C29.6914 17.1429 30.24 17.4172 32.2971 17.9657C34.7657 18.6515 36.1371 19.5429 36.1371 21.6686V21.7372C36.1371 24.2057 34.2857 25.5772 31.68 25.5772C29.8285 25.5086 27.9771 24.8229 26.5371 23.52Z" fill="white"/>
<path d="M24.1371 13.0286L22.2857 20.16L20.2285 13.0286H18.1714L16.0457 20.16L14.1942 13.0286H11.3828L14.88 25.3029H17.1428L19.2 18.1714L21.1885 25.3029H23.52L27.0171 13.0286H24.1371Z" fill="white"/>
</g>
<defs>
<linearGradient id="paint0_linear_1_1981" x1="17.1895" y1="1.00116" x2="29.6112" y2="45.72" gradientUnits="userSpaceOnUse">
<stop offset="0.285" stop-color="#00CDD7"/>
<stop offset="0.941" stop-color="#2086D7"/>
</linearGradient>
<linearGradient id="paint1_linear_1_1981" x1="21.0652" y1="6.67474" x2="42.0789" y2="37.4887" gradientUnits="userSpaceOnUse">
<stop offset="0.14" stop-color="#FFF045"/>
<stop offset="0.366" stop-color="#00CDD7"/>
</linearGradient>
<linearGradient id="paint2_linear_1_1981" x1="41.8848" y1="10.4845" x2="44.6441" y2="20.2587" gradientUnits="userSpaceOnUse">
<stop offset="0.285" stop-color="#00CDD7"/>
<stop offset="0.941" stop-color="#2086D7"/>
</linearGradient>
<clipPath id="clip0_1_1981">
<rect width="48" height="48" fill="white"/>
</clipPath>
</defs>
</svg>
