<svg width="48" height="48" viewBox="0 0 48 48" fill="none" xmlns="http://www.w3.org/2000/svg">
<g clip-path="url(#clip0_1_1874)">
<path d="M40.5943 37.7143L48 18.0343L25.5771 13.0286L22.6285 21.3943L40.5943 37.7143Z" fill="#247CE6"/>
<path d="M48 38.4686L36.6857 48L14.1257 42.1714L20.16 31.2L48 38.4686Z" fill="url(#paint0_linear_1_1874)"/>
<path d="M6.65148 23.8629L0.891479 7.40571L26.3315 0L24.2743 21.2571L6.65148 23.8629Z" fill="url(#paint1_linear_1_1874)"/>
<path d="M41.8971 27.7714L34.7657 15.5657L34.9029 15.4971L26.3314 0L0 28.4571V48L47.8629 38.4686L41.8971 27.7714Z" fill="url(#paint2_linear_1_1874)"/>
<path d="M9.1886 9.18855H38.8115V38.8114H9.1886V9.18855Z" fill="black"/>
<path d="M11.9314 33.2571H23.04V35.1086H11.9314V33.2571Z" fill="white"/>
<path d="M16.8001 13.0286H19.2686L24.4801 25.3029H21.6686L20.5715 22.56H15.4286L14.3315 25.3029H11.5886L16.8001 13.0286ZM19.6115 20.16L17.9658 16.1829L16.3201 20.16H19.6115Z" fill="white"/>
<path d="M23.7943 19.2685C23.7943 15.7028 26.4686 12.8228 30.24 12.8228C32.5715 12.8228 33.9429 13.5771 35.1086 14.7428L33.3943 16.7314C32.4343 15.8399 31.4743 15.3599 30.24 15.3599C28.1829 15.3599 26.6743 17.0742 26.6743 19.1999C26.6743 21.3257 28.1143 23.1085 30.24 23.1085C31.68 23.1085 32.5029 22.5599 33.4629 21.6685L35.1772 23.3828C33.8743 24.7542 32.5029 25.5771 30.1029 25.5771C26.4686 25.5771 23.7943 22.7657 23.7943 19.2685Z" fill="white"/>
</g>
<defs>
<linearGradient id="paint0_linear_1_1874" x1="14.1374" y1="39.6034" x2="48" y2="39.6034" gradientUnits="userSpaceOnUse">
<stop offset="0.194" stop-color="#00DAF0"/>
<stop offset="0.903" stop-color="#247CE6"/>
</linearGradient>
<linearGradient id="paint1_linear_1_1874" x1="0.873651" y1="11.9417" x2="26.3383" y2="11.9417" gradientUnits="userSpaceOnUse">
<stop offset="0.194" stop-color="#00DAF0"/>
<stop offset="0.903" stop-color="#247CE6"/>
</linearGradient>
<linearGradient id="paint2_linear_1_1874" x1="31.4578" y1="49.5237" x2="7.67794" y2="16.3365" gradientUnits="userSpaceOnUse">
<stop offset="0.091" stop-color="#1DDF93"/>
<stop offset="0.484" stop-color="#00DAF0"/>
<stop offset="0.903" stop-color="#247CE6"/>
</linearGradient>
<clipPath id="clip0_1_1874">
<rect width="48" height="48" fill="white"/>
</clipPath>
</defs>
</svg>
