<svg width="48" height="48" viewBox="0 0 48 48" fill="none" xmlns="http://www.w3.org/2000/svg">
<path d="M39.2736 15.3333L45.816 29.8684L36.5657 45.6707L14.3465 27.5671L25.7095 16.6149L39.2736 15.3333Z" fill="url(#paint0_linear_1_1939)"/>
<path d="M29.8279 29.3122L36.5657 45.6713L16.0388 38.6153L14.3465 27.5678L29.8279 29.3122Z" fill="#BB4EFC"/>
<path d="M16.6498 6.46835L26.0962 11.3095L17.5947 37.0512L0.473145 36.8729L4.15132 28.7164L0.473145 18.2928L16.6498 6.46835Z" fill="#078EFC"/>
<path d="M28.5003 0.328461L32.9678 15.5307L0.473145 18.2928L10.8075 0.328461H28.5003Z" fill="url(#paint1_linear_1_1939)"/>
<path d="M45.816 9.95585L26.8053 14.4678L0.473145 36.8729L17.4569 45.6713L32.2101 30.4614L45.816 9.95585Z" fill="url(#paint2_linear_1_1939)"/>
<path d="M8.0304 7.88571H38.2587V38.1141H8.0304V7.88571Z" fill="black"/>
<path d="M11.053 33.1262H22.3885V34.9399H11.053V33.1262Z" fill="white"/>
<path d="M10.0162 17.7463V17.7092C9.89282 14.0784 12.7365 11.0345 16.3673 10.9117C16.429 10.9097 16.4901 10.9083 16.5518 10.9083C18.3621 10.8157 20.1312 11.4672 21.4492 12.7117L19.7212 14.9101C18.8633 14.0379 17.6853 13.5559 16.462 13.5764C14.3479 13.7314 12.7522 15.5575 12.8825 17.6729V17.7099C12.7056 19.8295 14.2807 21.6905 16.4003 21.8674C16.486 21.8743 16.5724 21.8791 16.6588 21.8804C17.5824 21.9079 18.4896 21.6301 19.2405 21.0912V19.2123H16.4805V16.7143H21.8942V22.4249C20.4453 23.7655 18.5438 24.5101 16.5696 24.5115C13.03 24.5959 10.0924 21.794 10.008 18.2544C10.0046 18.085 10.0073 17.9156 10.0162 17.7463Z" fill="white"/>
<path d="M23.0462 17.7463V17.7092C22.9495 14.0509 25.8364 11.0071 29.4953 10.9104C33.1543 10.8137 36.1975 13.7005 36.2942 17.3595C36.2969 17.4637 36.2969 17.5687 36.2949 17.6729V17.7099C36.3916 21.3682 33.5047 24.4121 29.8457 24.5088C26.1874 24.6055 23.1436 21.7186 23.0469 18.0596C23.0441 17.9554 23.0441 17.8512 23.0462 17.7463ZM33.4286 17.7463V17.7092C33.5561 15.5561 31.9138 13.7081 29.7607 13.5805C29.7244 13.5785 29.6887 13.5771 29.6524 13.5757C27.5294 13.6292 25.8521 15.3929 25.9056 17.5159C25.907 17.568 25.909 17.6201 25.9125 17.6729V17.7099C25.7849 19.8631 27.4272 21.7111 29.5804 21.8386C29.6167 21.8407 29.6524 21.842 29.6887 21.8434C31.8117 21.7899 33.4889 20.0263 33.4354 17.9033C33.4341 17.8512 33.432 17.7984 33.4286 17.7463Z" fill="white"/>
<defs>
<linearGradient id="paint0_linear_1_1939" x1="37.168" y1="18.762" x2="24.3387" y2="38.3231" gradientUnits="userSpaceOnUse">
<stop offset="0.174" stop-color="#078EFC"/>
<stop offset="0.204" stop-color="#118AFC"/>
<stop offset="0.435" stop-color="#5971FC"/>
<stop offset="0.627" stop-color="#8E5EFC"/>
<stop offset="0.77" stop-color="#AF52FC"/>
<stop offset="0.849" stop-color="#BB4EFC"/>
</linearGradient>
<linearGradient id="paint1_linear_1_1939" x1="4.96089" y1="20.6637" x2="30.9784" y2="1.08982" gradientUnits="userSpaceOnUse">
<stop offset="0.174" stop-color="#078EFC"/>
<stop offset="0.204" stop-color="#118AFC"/>
<stop offset="0.435" stop-color="#5971FC"/>
<stop offset="0.627" stop-color="#8E5EFC"/>
<stop offset="0.77" stop-color="#AF52FC"/>
<stop offset="0.849" stop-color="#BB4EFC"/>
</linearGradient>
<linearGradient id="paint2_linear_1_1939" x1="6.77267" y1="39.9387" x2="39.4812" y2="18.9205" gradientUnits="userSpaceOnUse">
<stop stop-color="#078EFC"/>
<stop offset="0.106" stop-color="#15A7D3"/>
<stop offset="0.228" stop-color="#23BFAA"/>
<stop offset="0.348" stop-color="#2DD28B"/>
<stop offset="0.463" stop-color="#35DF74"/>
<stop offset="0.573" stop-color="#39E767"/>
<stop offset="0.67" stop-color="#3BEA62"/>
</linearGradient>
</defs>
</svg>
