<svg width="48" height="48" viewBox="0 0 48 48" fill="none" xmlns="http://www.w3.org/2000/svg">
<path d="M3 18.2C3 12.8795 3 10.2193 4.03544 8.18709C4.94624 6.39955 6.39955 4.94624 8.18709 4.03544C10.2193 3 12.8795 3 18.2 3H29.8C35.1205 3 37.7807 3 39.8129 4.03544C41.6004 4.94624 43.0538 6.39955 43.9646 8.18709C45 10.2193 45 12.8795 45 18.2V29.8C45 35.1205 45 37.7807 43.9646 39.8129C43.0538 41.6004 41.6004 43.0538 39.8129 43.9646C37.7807 45 35.1205 45 29.8 45H18.2C12.8795 45 10.2193 45 8.18709 43.9646C6.39955 43.0538 4.94624 41.6004 4.03544 39.8129C3 37.7807 3 35.1205 3 29.8V18.2Z" fill="#001E36"/>
<path d="M15.2953 30.4882V16.9493C15.2953 16.8563 15.3325 16.8005 15.4255 16.8005C16.7892 16.8005 18.1533 16.7261 19.5175 16.7261C22.4127 16.6682 25.2648 18.306 25.2648 21.4127C25.2648 25.6032 21.5733 26.2294 18.1597 26.2294V30.451C18.1868 30.5864 18.0633 30.637 17.9551 30.637H15.4441C15.3511 30.6742 15.2953 30.6184 15.2953 30.4882ZM18.1597 19.3484V23.7746C19.0506 23.8636 20.0481 23.8333 20.8939 23.5514C21.8549 23.2589 22.3819 22.4748 22.3819 21.4871C22.4197 20.6537 21.917 19.8692 21.1357 19.5715C20.2637 19.2486 19.0896 19.1934 18.1597 19.3484Z" fill="#31A8FF"/>
<path d="M33.4672 22.9565C32.6393 22.5229 31.6619 22.3428 30.7331 22.3428C30.2527 22.3428 29.4125 22.3897 29.4125 23.0495C29.4125 23.6621 30.4859 24.0125 30.9191 24.1653C31.6258 24.4071 32.314 24.7233 32.9464 25.1324C33.7917 25.6836 34.3042 26.5732 34.3042 27.5873C34.3742 29.8972 31.9693 30.9806 29.9519 30.9348C28.8996 30.9348 27.7861 30.7983 26.8271 30.3397C26.7341 30.2839 26.6783 30.1909 26.6783 30.0793V27.7918C26.6783 27.7217 26.7947 27.5969 26.8457 27.6988C27.8077 28.2689 28.9172 28.5147 30.0263 28.5543C30.534 28.5797 31.477 28.4975 31.477 27.8104C31.4201 27.1273 30.3909 26.8276 29.8589 26.6574C28.3005 26.138 26.6597 25.0724 26.6597 23.2541C26.6597 21.0065 28.8359 19.9809 30.8075 19.9809C31.8118 19.9809 32.7412 20.0119 33.5788 20.4086C33.7114 20.4528 33.7276 20.5636 33.7276 20.6876V22.8263C33.7276 22.9598 33.5779 23.0303 33.4672 22.9565Z" fill="#31A8FF"/>
<path d="M24 42C23.2746 42 22.5864 41.721 22.0842 41.2003L6.79514 25.9132C5.73495 24.8532 5.73495 23.1422 6.79514 22.0821L22.0842 6.79504C23.1444 5.73499 24.8556 5.73499 25.9158 6.79504L41.2049 22.0821C42.265 23.1422 42.265 24.8532 41.2049 25.9132L25.9158 41.2003C25.4136 41.7024 24.7254 42 24 42ZM22.605 40.6796C23.3676 41.4421 24.6138 41.4421 25.3764 40.6796L40.6655 25.3925C41.4281 24.63 41.4281 23.384 40.6655 22.6215L25.3764 7.33437C24.6138 6.57187 23.3676 6.57187 22.605 7.33437L7.31594 22.6215C6.55335 23.384 6.55335 24.63 7.31594 25.3925L22.605 40.6796Z" fill="#31A8FF"/>
</svg>
