<svg width="48" height="48" viewBox="0 0 48 48" fill="none" xmlns="http://www.w3.org/2000/svg">
<path d="M3 18.2C3 12.8795 3 10.2193 4.03544 8.18709C4.94624 6.39955 6.39955 4.94624 8.18709 4.03544C10.2193 3 12.8795 3 18.2 3H29.8C35.1205 3 37.7807 3 39.8129 4.03544C41.6004 4.94624 43.0538 6.39955 43.9646 8.18709C45 10.2193 45 12.8795 45 18.2V29.8C45 35.1205 45 37.7807 43.9646 39.8129C43.0538 41.6004 41.6004 43.0538 39.8129 43.9646C37.7807 45 35.1205 45 29.8 45H18.2C12.8795 45 10.2193 45 8.18709 43.9646C6.39955 43.0538 4.94624 41.6004 4.03544 39.8129C3 37.7807 3 35.1205 3 29.8V18.2Z" fill="#013301"/>
<path d="M9.00098 33.6966V15.3179C8.98944 15.1986 9.0814 15.0908 9.1982 15.0867C9.47993 15.0677 9.89316 15.0533 10.4379 15.0434C10.9825 15.0339 11.6211 15.0242 12.3538 15.0145C13.0863 15.005 13.8658 15.0002 14.6923 15C16.9463 15 18.8153 15.3949 20.2992 16.1848C21.7055 16.8994 22.869 18.0324 23.6378 19.4358C24.3796 20.8133 24.7506 22.3979 24.7508 24.1894C24.7721 25.4429 24.5766 26.6904 24.1732 27.8738C23.8203 28.8869 23.285 29.823 22.5954 30.6335C21.9426 31.3924 21.1771 32.041 20.3273 32.5552C19.4844 33.0649 18.5731 33.4446 17.6225 33.6822C16.6916 33.9198 15.7361 34.041 14.7768 34.0434H12.6778C11.9356 34.0434 11.2453 34.0386 10.6069 34.029C9.96817 34.019 9.4892 34.0046 9.16999 33.9856C9.05729 33.9856 9.00095 33.8893 9.00098 33.6966ZM12.8891 18.5544V30.5179C13.4533 30.5179 14.0153 30.5765 14.5796 30.5757C15.4318 30.5871 16.2796 30.4503 17.0872 30.1712C17.8106 29.9191 18.47 29.5044 19.0172 28.9575C19.5677 28.3939 19.9909 27.7132 20.2569 26.9635C20.5599 26.1022 20.7078 25.1916 20.6936 24.2761C20.7108 23.4133 20.5674 22.5551 20.271 21.7476C20.0066 21.0509 19.5869 20.4274 19.0454 19.927C18.4922 19.4257 17.838 19.0557 17.1294 18.8434C16.3382 18.6051 15.5169 18.4882 14.6923 18.4966C14.3163 18.4966 14.0017 18.5014 13.7484 18.511C13.4948 18.521 13.2084 18.5354 12.8891 18.5544Z" fill="#33FF66"/>
<path d="M26.4728 33.7254V22.9756C26.4728 22.6482 26.4681 22.2822 26.4587 21.8775C26.449 21.4729 26.4349 21.0876 26.4164 20.7216C26.3975 20.3558 26.3787 20.0668 26.3601 19.8546C26.3082 19.7184 26.4311 19.6135 26.5573 19.6234H29.4875C30.0161 19.6056 30.1053 20.3944 30.1355 20.8083C30.6803 20.3188 31.3115 19.9411 31.9951 19.6957C32.6747 19.4544 33.389 19.3323 34.1082 19.3345C34.6682 19.3371 35.2243 19.4298 35.7564 19.609C36.3706 19.8105 36.9308 20.1555 37.3929 20.6168C37.8549 21.0782 38.2062 21.6433 38.419 22.2676C38.7007 23.0094 38.8416 23.9678 38.8416 25.1429V33.7254C38.8416 33.8988 38.7665 33.9855 38.6162 33.9855H35.207C35.0453 34.0093 34.902 33.8624 34.9252 33.6965V25.4896C34.942 24.9856 34.8556 24.4836 34.6717 24.0159C33.933 22.2423 31.5316 22.6316 30.3891 23.7269V33.7254C30.3891 33.8988 30.3139 33.9855 30.1636 33.9855H26.7263C26.5808 34.0068 26.452 33.8747 26.4728 33.7254Z" fill="#33FF66"/>
</svg>
