<svg width="48" height="48" viewBox="0 0 48 48" fill="none" xmlns="http://www.w3.org/2000/svg">
<path d="M3 18.2C3 12.8795 3 10.2193 4.03544 8.18709C4.94624 6.39955 6.39955 4.94624 8.18709 4.03544C10.2193 3 12.8795 3 18.2 3H29.8C35.1205 3 37.7807 3 39.8129 4.03544C41.6004 4.94624 43.0538 6.39955 43.9646 8.18709C45 10.2193 45 12.8795 45 18.2V29.8C45 35.1205 45 37.7807 43.9646 39.8129C43.0538 41.6004 41.6004 43.0538 39.8129 43.9646C37.7807 45 35.1205 45 29.8 45H18.2C12.8795 45 10.2193 45 8.18709 43.9646C6.39955 43.0538 4.94624 41.6004 4.03544 39.8129C3 37.7807 3 35.1205 3 29.8V18.2Z" fill="#013301"/>
<path d="M22.184 29.3458H15.6756L14.3514 33.5729C14.3146 33.7296 14.1703 33.8406 14.0133 33.8329H10.7168C10.5288 33.8329 10.4631 33.727 10.5196 33.5151L16.1545 16.9389C16.2109 16.7656 16.2672 16.5961 16.3236 16.3744C16.3973 15.9888 16.4351 15.597 16.4363 15.2041C16.4202 15.088 16.5204 14.9852 16.6336 15.0018H21.1133C21.2446 15.0018 21.3197 15.0499 21.3387 15.1463L27.7345 33.5439C27.7908 33.7368 27.7345 33.8331 27.5654 33.8329H23.9026C23.7742 33.8475 23.6515 33.7595 23.6209 33.6307L22.184 29.3458ZM16.6899 25.7816H21.1415C20.4101 23.2823 19.5847 20.8159 18.9157 18.2971C18.1576 20.9099 17.4576 23.333 16.6899 25.7816Z" fill="#33FF66"/>
<path d="M29.5939 19.4739H32.665C32.8343 19.4754 32.9864 19.5954 33.0312 19.7629C33.2563 20.2754 33.284 20.8935 33.2848 21.4469C33.8115 20.8179 34.4466 20.2938 35.1584 19.9009C35.9218 19.4578 36.7873 19.2332 37.6644 19.2507C37.8099 19.2293 37.9388 19.3615 37.918 19.5108V23.0074C37.918 23.1424 37.8237 23.2096 37.6363 23.2096C36.3364 23.1176 34.3125 23.4326 33.368 24.4811V33.5728C33.368 33.7462 33.2929 33.8329 33.1426 33.8329H29.8475C29.6856 33.8567 29.5428 33.7073 29.5657 33.5439V23.672C29.5657 22.3492 29.5936 20.9866 29.3966 19.6762C29.3663 19.5556 29.4789 19.4435 29.5939 19.4739Z" fill="#33FF66"/>
</svg>
