<svg width="48" height="48" viewBox="0 0 48 48" fill="none" xmlns="http://www.w3.org/2000/svg">
<path d="M3 18.2C3 12.8795 3 10.2193 4.03544 8.18709C4.94624 6.39955 6.39955 4.94624 8.18709 4.03544C10.2193 3 12.8795 3 18.2 3H29.8C35.1205 3 37.7807 3 39.8129 4.03544C41.6004 4.94624 43.0538 6.39955 43.9646 8.18709C45 10.2193 45 12.8795 45 18.2V29.8C45 35.1205 45 37.7807 43.9646 39.8129C43.0538 41.6004 41.6004 43.0538 39.8129 43.9646C37.7807 45 35.1205 45 29.8 45H18.2C12.8795 45 10.2193 45 8.18709 43.9646C6.39955 43.0538 4.94624 41.6004 4.03544 39.8129C3 37.7807 3 35.1205 3 29.8V18.2Z" fill="#001E36"/>
<path d="M12.2984 13.7834C10.6509 13.7834 9.00279 13.8233 7.3567 13.8233C7.25543 13.8233 7.20459 13.8912 7.20459 14.0256V32.4067C7.20459 32.5609 7.26356 32.6833 7.38208 32.6833L10.4482 32.6842C10.6002 32.6842 10.6763 32.5976 10.6764 32.4244V26.8094C15.1371 26.8094 19.1655 25.4506 19.1668 20.1664C19.1814 16.0695 16.0865 13.7842 12.2984 13.7834ZM13.933 23.0547C12.9115 23.4066 11.7476 23.4089 10.6764 23.3147V17.3359C11.8343 17.1955 13.1732 17.1595 14.2499 17.6393C15.2368 18.099 15.7488 19.1703 15.72 20.2531C15.72 21.5199 15.149 22.6318 13.933 23.0547Z" fill="#31A8FF"/>
<path d="M24.9194 23.8346C24.329 23.5671 23.1393 23.1316 23.12 22.3038C23.1184 21.4605 24.0377 21.302 24.6913 21.3218C25.8015 21.3267 26.9525 21.5729 27.9134 22.1594C28.0355 22.2491 28.1759 22.1209 28.1669 21.9861V19.069C28.1675 18.9213 28.1444 18.7483 27.9895 18.6934C27.0207 18.1804 25.8379 18.1061 24.7675 18.1158C23.6523 18.1158 22.7229 18.3276 21.9795 18.7511C20.6092 19.4888 19.793 20.9894 19.7998 22.5637C19.7818 23.8734 20.3515 25.1061 21.3585 25.9141C22.0417 26.4552 22.7971 26.8929 23.6017 27.2137C24.2511 27.4877 25.4715 27.8683 25.5278 28.7734C25.5539 29.6681 24.4409 29.7843 23.8042 29.7843C22.4967 29.7642 21.1526 29.3973 20.0615 28.6466C19.9434 28.5874 19.8116 28.6938 19.8268 28.824V31.9433C19.8329 32.0774 19.9165 32.2026 20.0363 32.2569C21.1562 32.8529 22.4776 33.0621 23.7283 33.048C26.3986 33.048 29.0135 31.5258 28.9493 28.4845C28.9938 25.9967 26.9791 24.6234 24.9194 23.8346Z" fill="#31A8FF"/>
<path d="M40.5813 15.6718C39.6595 15.2899 38.6101 15.2501 37.6283 15.2605C32.5866 15.2605 29.2517 19.1269 29.2517 24.1951C29.1908 29.0812 32.3165 33.0459 37.2404 33.0257C38.317 33.0302 39.4445 32.9512 40.457 32.5484C40.633 32.4649 40.7385 32.2684 40.713 32.0712V29.3939C40.7373 29.1723 40.5715 29.0714 40.3512 29.1562C39.4793 29.4915 38.5279 29.5371 37.6055 29.5313C34.6046 29.5135 32.6999 27.0801 32.7524 24.091C32.6842 21.2108 34.5876 18.7947 37.5371 18.651C38.5243 18.6029 39.5593 18.7477 40.4377 19.2228C40.6202 19.3349 40.7866 19.1432 40.7682 18.9562V16.0967C40.7853 15.9337 40.7117 15.7665 40.5813 15.6718Z" fill="#31A8FF"/>
</svg>
