<svg width="48" height="48" viewBox="0 0 48 48" fill="none" xmlns="http://www.w3.org/2000/svg">
<path d="M3 18.2C3 12.8795 3 10.2193 4.03544 8.18709C4.94624 6.39955 6.39955 4.94624 8.18709 4.03544C10.2193 3 12.8795 3 18.2 3H29.8C35.1205 3 37.7807 3 39.8129 4.03544C41.6004 4.94624 43.0538 6.39955 43.9646 8.18709C45 10.2193 45 12.8795 45 18.2V29.8C45 35.1205 45 37.7807 43.9646 39.8129C43.0538 41.6004 41.6004 43.0538 39.8129 43.9646C37.7807 45 35.1205 45 29.8 45H18.2C12.8795 45 10.2193 45 8.18709 43.9646C6.39955 43.0538 4.94624 41.6004 4.03544 39.8129C3 37.7807 3 35.1205 3 29.8V18.2Z" fill="#49021F"/>
<path d="M19.0389 15.2366V33.9125C19.0389 34.1082 18.9511 34.2059 18.7756 34.2057H15.2341C15.0778 34.2057 14.9997 34.108 15 33.9125V15.2366C15 15.0804 15.0878 15.0022 15.2634 15.002H18.8048C18.9391 14.9829 19.058 15.102 19.0389 15.2366Z" fill="#FF3366"/>
<path d="M32.9997 30.7754V33.7952C33.0021 33.8484 32.9896 33.9013 32.9638 33.9478C32.938 33.9944 32.8998 34.0329 32.8534 34.0591C32.3547 34.2464 31.8328 34.3648 31.3022 34.4109C30.7169 34.4695 30.1511 34.4988 29.6047 34.4989C28.4967 34.5166 27.395 34.3277 26.3559 33.9418C25.4407 33.5976 24.6117 33.0573 23.9267 32.3586C23.259 31.6683 22.7365 30.8508 22.3901 29.9545C22.0243 29.0106 21.8406 28.0058 21.8487 26.9933C21.8218 25.6095 22.1763 24.245 22.8731 23.0499C23.566 21.8969 24.5637 20.9583 25.756 20.3379C26.9949 19.6737 28.4436 19.3414 30.1022 19.3411C30.6796 19.3306 31.2569 19.3649 31.829 19.4437C32.165 19.4959 32.4974 19.5693 32.8241 19.6636C32.9266 19.7346 32.9845 19.8622 32.9705 19.9861L32.9412 23.0059C32.9412 23.1819 32.8632 23.2503 32.7071 23.2112C32.3842 23.096 32.0509 23.0125 31.7119 22.962C31.2277 22.8882 30.7383 22.8539 30.2486 22.8594C27.8395 22.8227 26.0044 24.3862 26.0047 26.8467C26.0047 29.4088 27.9168 30.8568 30.3657 30.8633C30.8349 30.8654 31.304 30.841 31.7705 30.79C32.1077 30.7596 32.441 30.6958 32.7656 30.5995C32.9215 30.5605 32.9995 30.6192 32.9997 30.7754Z" fill="#FF3366"/>
</svg>
