<svg width="48" height="48" viewBox="0 0 48 48" fill="none" xmlns="http://www.w3.org/2000/svg">
<g clip-path="url(#clip0_201_666)">
<path d="M10.4375 3H37.5625C41.675 3 45 6.41026 45 10.6282V37.3718C45 41.5897 41.675 45 37.5625 45H10.4375C6.325 45 3 41.5897 3 37.3718V10.6282C3 6.41026 6.325 3 10.4375 3Z" fill="#000B1D"/>
<path d="M12.975 32.3461V13.9846C12.975 13.859 13.0275 13.7872 13.15 13.7872C13.4475 13.7872 13.815 13.7872 14.2175 13.7692C14.6375 13.7513 15.075 13.7513 15.5475 13.7333C16.02 13.7154 16.5275 13.7154 17.07 13.6974C17.6125 13.6795 18.1375 13.6795 18.6625 13.6795C20.0975 13.6795 21.2875 13.859 22.2675 14.2359C23.1425 14.541 23.9475 15.0436 24.6125 15.7077C25.1725 16.282 25.61 16.982 25.89 17.7538C26.1525 18.5077 26.2925 19.2795 26.2925 20.0872C26.2925 21.6308 25.9425 22.9051 25.2425 23.9102C24.5425 24.9154 23.5625 25.6692 22.425 26.1C21.165 26.5667 19.8175 26.8 18.4875 26.782C18.0675 26.782 17.7875 26.782 17.6125 26.7641C17.4375 26.7461 17.1225 26.8 16.79 26.8V32.4C16.8075 32.5256 16.72 32.6333 16.5975 32.6513C16.58 32.6513 16.5625 32.6513 16.5275 32.6513L13.1675 32.5974C13.045 32.5795 12.975 32.5077 12.975 32.3461ZM16.79 17.3051V23.282C17.035 23.3 17.3325 23.2641 17.5425 23.2641H18.47C19.1525 23.282 19.835 23.1743 20.4825 22.9769C21.0425 22.8154 21.5325 22.4743 21.9175 22.0256C22.285 21.5769 22.46 20.9667 22.46 20.1769C22.4775 19.6205 22.3375 19.0641 22.0575 18.5795C21.76 18.1128 21.34 17.7538 20.8325 17.5564C20.185 17.2872 19.485 17.1795 18.7675 17.1974C18.3125 17.1974 17.91 17.1974 17.5775 17.2154C17.315 17.2154 17.0525 17.2513 16.79 17.3051Z" fill="white"/>
<path d="M29.95 21.6487H28.2175C28.0775 21.6308 28.025 21.559 28.025 21.4513V18.4897C28.0075 18.4 28.0775 18.3102 28.165 18.2923C28.1825 18.2923 28.2 18.2923 28.2175 18.2923H29.95V17.8795C29.95 17.2692 29.985 16.6769 30.09 16.0667C30.1775 15.5641 30.335 15.0795 30.545 14.6128C30.9125 13.841 31.455 13.1769 32.155 12.6743C32.855 12.1718 33.765 11.9205 34.92 11.9205C35.2 11.9205 35.4625 11.9385 35.7425 11.9564C35.97 11.9743 36.18 12.0282 36.39 12.1179C36.5125 12.1538 36.5825 12.2795 36.5825 12.4051V15.259C36.5825 15.4026 36.5125 15.4384 36.355 15.4026C36.215 15.3846 36.075 15.3667 35.935 15.3667H35.515C35.2 15.3667 34.9025 15.4205 34.6225 15.5641C34.36 15.7077 34.15 15.959 34.0625 16.2461C33.8875 16.659 33.8 17.0897 33.7825 17.5384V18.2743H36.1625C36.2675 18.2743 36.3375 18.2923 36.3725 18.3282C36.4075 18.382 36.425 18.4359 36.4075 18.5077V21.4513C36.4075 21.5949 36.32 21.6487 36.1625 21.6487H33.7825V32.3282C33.7825 32.382 33.765 32.4538 33.7475 32.5077C33.7125 32.5615 33.6425 32.5974 33.5375 32.5974H30.195C30.0375 32.5974 29.9675 32.5077 29.9675 32.3461V21.6487H29.95Z" fill="white"/>
</g>
<defs>
<clipPath id="clip0_201_666">
<rect width="42" height="42" fill="white" transform="translate(3 3)"/>
</clipPath>
</defs>
</svg>
