<svg width="48" height="48" viewBox="0 0 48 48" fill="none" xmlns="http://www.w3.org/2000/svg">
<g clip-path="url(#clip0_201_689)">
<path d="M37.5625 4H10.4375C6.32988 4 3 7.41526 3 11.6282V38.3718C3 42.5847 6.32988 46 10.4375 46H37.5625C41.6701 46 45 42.5847 45 38.3718V11.6282C45 7.41526 41.6701 4 37.5625 4Z" fill="#008CAD"/>
<path d="M36.771 28.3159C35.9367 27.3971 34.3406 26.9306 32.0274 26.9306C30.7438 26.9434 29.4629 27.0574 28.1963 27.2716C27.3851 26.4605 26.6463 25.5764 25.989 24.6299C25.4901 23.9226 25.0291 23.1879 24.6079 22.4292C25.4227 19.7992 25.8356 17.6642 25.8356 16.0815C25.8356 14.1384 25.085 12.061 22.9783 12.061C22.6204 12.0716 22.271 12.1751 21.9626 12.3618C21.6542 12.5484 21.397 12.8122 21.2149 13.1284C20.3162 14.7111 20.6762 17.9679 22.1105 21.2819C21.6111 22.8045 21.067 24.2869 20.4001 25.9296C19.8296 27.3377 19.184 28.7125 18.4663 30.0479C16.3175 30.9344 11.75 33.0866 11.3148 35.4641C11.2493 35.8084 11.2726 36.1642 11.3822 36.4965C11.4918 36.8288 11.6839 37.126 11.9397 37.3588C12.455 37.8168 13.1192 38.0598 13.8008 38.0398C16.5522 38.0398 19.2958 34.1332 21.1422 30.7705C22.1922 30.404 23.2629 30.0722 24.3288 29.7834C25.498 29.4658 26.6281 29.2054 27.6941 29.0116C30.6071 31.6188 33.1966 32.0138 34.494 32.0138C36.2771 32.0138 36.944 31.2209 37.1868 30.5543C37.3194 30.1772 37.3508 29.7705 37.2777 29.3767C37.2045 28.9829 37.0295 28.6165 36.771 28.3159ZM34.8736 29.6866C34.776 30.2046 34.2541 30.5395 33.5398 30.5395C33.3366 30.5387 33.1342 30.5127 32.9371 30.4622C31.6256 30.1416 30.37 29.4921 29.1172 28.4788C30.0526 28.3323 30.9975 28.2578 31.9438 28.2557C32.5748 28.2452 33.2053 28.295 33.8273 28.4045C34.3936 28.5246 35.0327 28.8452 34.8736 29.6866ZM22.3448 13.8033C22.4028 13.6872 22.4896 13.5888 22.5963 13.518C22.7031 13.4471 22.8262 13.4063 22.9531 13.3996C23.6201 13.3996 23.7651 14.2238 23.7651 14.9136C23.7707 16.0126 23.4472 17.764 22.8919 19.7016C21.7729 16.6621 21.9292 14.5329 22.3448 13.8033ZM26.2542 27.6405C25.498 27.8036 24.7166 27.9924 23.9242 28.2071C23.3551 28.3616 22.7774 28.5302 22.1998 28.7107C22.5067 28.0669 22.7886 27.4287 23.0342 26.822C23.3579 26.0204 23.6619 25.2192 23.941 24.4348C24.186 24.8297 24.439 25.2123 24.7 25.5826C25.2001 26.2948 25.7397 26.9768 26.3161 27.6254L26.2542 27.6405ZM17.791 31.7988C16.0303 34.7065 14.2976 36.5437 13.2847 36.5437C13.1187 36.5512 12.9564 36.4916 12.8327 36.3777C12.7384 36.2995 12.6668 36.1962 12.626 36.079C12.5851 35.9619 12.5765 35.8355 12.601 35.7136C12.7935 34.6721 14.7999 33.1696 17.791 31.7988Z" fill="white"/>
</g>
<defs>
<clipPath id="clip0_201_689">
<rect width="42" height="42" fill="white" transform="translate(3 4)"/>
</clipPath>
</defs>
</svg>
