<svg width="48" height="48" viewBox="0 0 48 48" fill="none" xmlns="http://www.w3.org/2000/svg">
<g clip-path="url(#clip0_201_683)">
<path d="M10.4296 2.59998H37.5704C41.6643 2.59998 45 6.0222 45 10.2222V36.9778C45 41.1778 41.6643 44.6 37.5704 44.6H10.4296C6.33574 44.6 3 41.1778 3 36.9778V10.2222C3 6.0222 6.33574 2.59998 10.4296 2.59998Z" fill="#808080"/>
<path d="M36.6607 26.9444C34.6896 24.7666 29.2311 25.6999 28.0181 25.8555C26.1228 23.9888 24.834 21.7333 24.3791 20.9555C25.0614 18.8555 25.5163 16.6777 25.5921 14.4999C25.5921 12.5555 24.834 10.4555 22.7112 10.4555C21.9531 10.4555 21.2708 10.9222 20.8917 11.5444C19.982 13.1777 20.361 16.4444 21.8015 19.7888C20.9675 22.2777 19.7545 25.7777 18.0867 28.6555C15.8881 29.5111 11.2636 31.6888 10.8087 34.1777C10.6571 34.8777 10.8845 35.5777 11.4152 36.1222C11.9459 36.5888 12.6282 36.8222 13.3105 36.8222C16.1155 36.8222 18.8448 32.8555 20.7401 29.4333C22.3322 28.8888 24.834 28.1111 27.3358 27.6444C30.2924 30.2888 32.8701 30.6777 34.2347 30.6777C36.0542 30.6777 36.7365 29.9 36.9639 29.2C37.343 28.4222 37.1914 27.5666 36.6607 26.9444ZM34.6896 28.2666C34.6137 28.8111 33.9314 29.3555 32.7184 29.0444C31.278 28.6555 29.9892 27.9555 28.852 27.0222C29.8376 26.8666 32.0361 26.6333 33.6282 26.9444C34.2347 27.0999 34.8412 27.4111 34.6896 28.2666ZM22.0289 12.2444C22.1805 12.0111 22.408 11.8555 22.6354 11.8555C23.3177 11.8555 23.4693 12.7111 23.4693 13.4111C23.3935 15.0444 23.0145 16.7555 22.5596 18.2333C21.4224 15.1222 21.574 12.9444 22.0289 12.2444ZM21.8773 27.3333C22.4838 26.0888 23.3177 23.9111 23.621 22.9777C24.3033 24.1444 25.4405 25.5444 26.047 26.2444C26.047 26.2444 23.6968 26.7111 21.8773 27.3333ZM17.4044 30.4444C15.5849 33.4 13.8412 35.2666 12.8556 35.2666C12.704 35.2666 12.5524 35.1888 12.4007 35.1111C12.1733 34.9555 12.0975 34.7222 12.1733 34.4111C12.4007 33.3222 14.3719 31.8444 17.4044 30.4444Z" fill="white"/>
</g>
<defs>
<clipPath id="clip0_201_683">
<rect width="42" height="42" fill="white" transform="translate(3 2.59998)"/>
</clipPath>
</defs>
</svg>
