<svg width="48" height="48" viewBox="0 0 48 48" fill="none" xmlns="http://www.w3.org/2000/svg">
<path d="M3 18.2C3 12.8795 3 10.2193 4.03544 8.18709C4.94624 6.39955 6.39955 4.94624 8.18709 4.03544C10.2193 3 12.8795 3 18.2 3H29.8C35.1205 3 37.7807 3 39.8129 4.03544C41.6004 4.94624 43.0538 6.39955 43.9646 8.18709C45 10.2193 45 12.8795 45 18.2V29.8C45 35.1205 45 37.7807 43.9646 39.8129C43.0538 41.6004 41.6004 43.0538 39.8129 43.9646C37.7807 45 35.1205 45 29.8 45H18.2C12.8795 45 10.2193 45 8.18709 43.9646C6.39955 43.0538 4.94624 41.6004 4.03544 39.8129C3 37.7807 3 35.1205 3 29.8V18.2Z" fill="#00005B"/>
<path d="M19.2235 28.3526H12.6931L11.3644 32.7291C11.3275 32.8914 11.1827 33.0063 11.0252 32.9984H7.71755C7.52892 32.9984 7.46296 32.8887 7.51965 32.6693L13.1737 15.5075C13.2303 15.328 13.2868 15.1525 13.3434 14.9229C13.4173 14.5238 13.4552 14.1181 13.4564 13.7113C13.4402 13.5911 13.5407 13.4847 13.6543 13.5018H18.1492C18.2809 13.5018 18.3563 13.5517 18.3754 13.6514L24.7929 32.6992C24.8494 32.8988 24.7928 32.9985 24.6232 32.9984H20.948C20.8191 33.0135 20.696 32.9223 20.6653 32.7889L19.2235 28.3526ZM13.7108 24.6625H18.1775C17.4437 22.0749 16.6155 19.5214 15.9442 16.9136C15.1836 19.6187 14.4812 22.1274 13.7108 24.6625Z" fill="#9999FF"/>
<path d="M26.5893 32.6735V21.5438C26.5893 21.2049 26.5846 20.8259 26.5751 20.4069C26.5654 19.9881 26.5513 19.5892 26.5327 19.2102C26.5138 18.8315 26.4949 18.5323 26.4762 18.3126C26.4241 18.1716 26.5475 18.063 26.6741 18.0733H29.6142C30.1446 18.0548 30.2341 18.8714 30.2645 19.2999C30.811 18.7932 31.4444 18.4021 32.1303 18.1481C32.8122 17.8982 33.529 17.7718 34.2505 17.7741C34.8124 17.7768 35.3705 17.8727 35.9043 18.0583C36.5206 18.2669 37.0827 18.6241 37.5464 19.1017C38.01 19.5794 38.3624 20.1644 38.5759 20.8108C38.8586 21.5789 39 22.5712 39 23.7877V32.6735C39 32.853 38.9246 32.9428 38.7738 32.9428H35.3531C35.1908 32.9674 35.0471 32.8153 35.0703 32.6436V24.1467C35.0872 23.6249 35.0005 23.1051 34.816 22.6209C34.0747 20.7846 31.6652 21.1877 30.5188 22.3217V32.6735C30.5188 32.853 30.4434 32.9428 30.2927 32.9427H26.8437C26.6977 32.9648 26.5684 32.828 26.5893 32.6735Z" fill="#9999FF"/>
</svg>
