<svg width="48" height="48" viewBox="0 0 48 48" fill="none" xmlns="http://www.w3.org/2000/svg">
<g clip-path="url(#clip0_201_676)">
<path d="M10.4655 3H37.5345C41.6576 3 45 6.46617 45 10.742V37.258C45 41.5338 41.6576 45 37.5345 45H10.4655C6.34238 45 3 41.5338 3 37.258V10.742C3 6.46617 6.34238 3 10.4655 3Z" fill="#1E3101"/>
<path d="M15.9919 32.7301C15.021 32.7395 14.0517 32.6454 13.0992 32.4494C12.3469 32.3 11.6145 32.057 10.9189 31.7253C10.7528 31.6199 10.6632 31.4223 10.6909 31.2228V27.7057C10.6838 27.6419 10.7112 27.5797 10.7622 27.5431C10.8222 27.514 10.8923 27.5198 10.9474 27.5579C11.7353 28.0662 12.5895 28.4543 13.4839 28.7106C14.337 28.961 15.2194 29.0901 16.1059 29.0948C17.1889 29.0948 17.9633 28.9225 18.4287 28.5776C18.8577 28.3007 19.1209 27.8161 19.1269 27.2919C19.1314 26.9754 19.0527 26.6639 18.8989 26.3905C18.693 26.0704 18.4204 25.8029 18.1009 25.6073C17.6037 25.2911 17.0787 25.0239 16.5334 24.8093L15.1084 24.1886C14.1274 23.7853 13.2102 23.2327 12.3867 22.5483C11.7904 22.0509 11.3247 21.4053 11.0329 20.6715C10.7824 19.982 10.6568 19.2505 10.6624 18.5139C10.6249 16.3774 11.8268 14.4263 13.7119 13.5634C14.8958 13.0236 16.1813 12.7661 17.4739 12.8097C18.327 12.8054 19.1794 12.8649 20.0247 12.987C20.6817 13.0652 21.3222 13.255 21.9199 13.5486C22.0523 13.626 22.1299 13.7757 22.1194 13.9328C22.1194 13.9643 22.1194 13.9962 22.1194 14.0277C22.1194 14.1133 22.1194 14.1988 22.1194 14.2848C22.1194 14.4108 22.1194 14.5368 22.1194 14.6628C22.1194 14.8156 22.1194 14.9684 22.1194 15.1213C22.1194 15.2873 22.1194 15.4534 22.1194 15.6194C22.1194 15.7851 22.1194 15.9504 22.1194 16.116C22.1194 16.2677 22.1194 16.419 22.1194 16.5706C22.1194 16.6943 22.1194 16.8184 22.1194 16.942C22.1194 17.0245 22.1194 17.1069 22.1194 17.1894C22.1194 17.2321 22.1224 17.2765 22.1123 17.3185C22.0995 17.3718 22.0624 17.4134 22.0103 17.4262C21.9417 17.4429 21.8888 17.4044 21.8307 17.3741C21.7654 17.3399 21.7005 17.3064 21.6345 17.2738C21.5029 17.2088 21.3698 17.1474 21.2352 17.0902C20.9659 16.9755 20.6903 16.8763 20.4105 16.7927C20.2313 16.7394 20.0502 16.6924 19.8675 16.6523C19.0909 16.473 18.2974 16.384 17.502 16.3863C17.0325 16.3774 16.5638 16.4271 16.1055 16.5341C15.7812 16.6099 15.4692 16.7344 15.1793 16.9035C14.9562 17.0358 14.7735 17.2302 14.652 17.4651C14.5414 17.6786 14.4825 17.917 14.481 18.1596C14.4769 18.4618 14.5669 18.757 14.7375 19.002C14.9723 19.3049 15.2629 19.5561 15.5925 19.7409C16.1288 20.0605 16.6808 20.3514 17.2455 20.6128L18.3 21.0265C19.3538 21.4407 20.3427 22.0131 21.2355 22.726C21.8745 23.242 22.383 23.9117 22.7175 24.6766C23.0059 25.3926 23.1514 26.1618 23.1454 26.9376C23.166 28.03 22.8518 29.1014 22.2473 29.9966C21.6158 30.9008 20.7514 31.6024 19.7535 32.0212C18.5588 32.5194 17.2789 32.7605 15.9919 32.7301Z" fill="#99E83F"/>
<path d="M28.617 28.7993L32.664 29.0062C33.7871 29.0132 34.899 29.2388 35.9415 29.6712C36.6652 29.9745 37.2817 30.5007 37.7085 31.1785C38.0741 31.8175 38.2616 32.549 38.25 33.2918C38.2492 34.299 37.923 35.277 37.3237 36.07C36.645 36.9652 35.7502 37.6586 34.7302 38.0798C33.4665 38.6017 32.1142 38.8529 30.7545 38.8187C29.421 38.8642 28.0927 38.6277 26.85 38.1241C25.9564 37.7667 25.1767 37.1577 24.5985 36.3655C24.1575 35.7593 23.9085 35.0262 23.886 34.2671C23.8957 33.9113 23.9835 33.5628 24.1429 33.2474C24.3626 32.8091 24.6356 32.402 24.9551 32.0357C25.4066 31.5095 25.8922 31.0156 26.4086 30.5579C27.1136 29.931 27.8509 29.3438 28.617 28.7993ZM30.4414 27.3807C29.7266 27.3818 29.0141 27.2974 28.3181 27.1294C27.6405 26.9692 26.9947 26.6892 26.4086 26.3019C25.8326 25.9219 25.3575 25.3989 25.026 24.7798C24.6679 24.0802 24.4909 23.2958 24.513 22.504C24.5051 21.6068 24.7425 20.7256 25.197 19.9622C25.6781 19.1704 26.3644 18.5354 27.1777 18.1298C28.1614 17.6499 29.2402 17.4169 30.327 17.45C30.84 17.45 31.3387 17.4745 31.8232 17.5239C32.3077 17.5733 32.7116 17.6277 33.0345 17.6864C33.1672 17.7063 33.291 17.721 33.405 17.7308C33.519 17.7409 33.6232 17.7455 33.7185 17.7455H37.623C37.737 17.7455 37.794 17.8148 37.794 17.9524V20.7011C37.8169 20.7917 37.764 20.8847 37.6766 20.908C37.6496 20.9154 37.6215 20.9154 37.5945 20.908C37.4044 20.908 37.1051 20.8932 36.6967 20.8637C36.288 20.8341 35.9317 20.7995 35.628 20.7602C35.7544 21.0095 35.8545 21.272 35.9272 21.5434C36.0195 21.9051 36.0626 22.278 36.0555 22.6518C36.0907 23.5913 35.8361 24.518 35.3287 25.297C34.8229 26.0137 34.1239 26.5585 33.3195 26.8634C32.3996 27.2204 31.4235 27.3958 30.4414 27.3807ZM30.042 29.1835L27.021 31.1342C26.6576 30.748 26.3719 30.2911 26.1802 29.7894C25.9991 29.3049 25.9166 28.7865 25.938 28.2673C25.9549 27.8442 26.0317 27.4262 26.166 27.026C26.295 26.6394 26.4877 26.2793 26.7364 25.962L29.5575 27.1442C29.4949 27.2838 29.4562 27.4339 29.4435 27.5875C29.4244 27.7645 29.4244 27.943 29.4435 28.1195C29.4424 28.314 29.4971 28.5042 29.6002 28.6663C29.7251 28.858 29.8736 29.0319 30.042 29.1835ZM34.6309 33.9124C34.656 33.5756 34.5169 33.2486 34.2604 33.0405C33.9514 32.8274 33.6011 32.6863 33.2344 32.6268C32.7547 32.533 32.2687 32.479 31.7809 32.4642L28.6459 32.3164C28.3279 32.5276 28.0597 32.8103 27.8621 33.144C27.702 33.3703 27.5992 33.6344 27.5629 33.9124C27.5794 34.2477 27.7166 34.5642 27.9476 34.7991C28.2765 35.1401 28.6834 35.3894 29.1304 35.5232C29.7386 35.7223 30.3739 35.8172 31.0114 35.804C31.7137 35.8246 32.4154 35.7351 33.0919 35.538C33.5329 35.4159 33.9356 35.1767 34.2604 34.8434C34.4932 34.5934 34.6256 34.2605 34.6309 33.9124ZM32.3509 22.504C32.3565 22.1373 32.2834 21.7737 32.1371 21.44C31.9961 21.1265 31.7677 20.864 31.4816 20.6863C31.1385 20.4864 30.7489 20.3892 30.3559 20.4055C29.8177 20.3721 29.289 20.5638 28.8881 20.9375C28.5146 21.3521 28.3237 21.9086 28.3609 22.4744C28.3549 22.9901 28.5326 23.4898 28.8596 23.8783C29.244 24.3049 29.7941 24.5278 30.3559 24.4842C30.8891 24.5122 31.4115 24.3213 31.8094 23.9522C32.1802 23.5715 32.3771 23.0449 32.3509 22.504Z" fill="#99E83F"/>
</g>
<defs>
<clipPath id="clip0_201_676">
<rect width="42" height="42" fill="white" transform="translate(3 3)"/>
</clipPath>
</defs>
</svg>
