<svg width="48" height="48" viewBox="0 0 48 48" fill="none" xmlns="http://www.w3.org/2000/svg">
<g clip-path="url(#clip0_201_686)">
<path d="M37.5625 3.39996H10.4375C6.32988 3.39996 3 6.81523 3 11.0282V37.7718C3 41.9847 6.32988 45.4 10.4375 45.4H37.5625C41.6701 45.4 45 41.9847 45 37.7718V11.0282C45 6.81523 41.6701 3.39996 37.5625 3.39996Z" fill="#001E36"/>
<path d="M17.816 25.7731V32.8529C17.8204 32.8844 17.8175 32.9164 17.8078 32.9465C17.798 32.9766 17.7815 33.0039 17.7596 33.0264C17.7378 33.0488 17.7111 33.0657 17.6817 33.0757C17.6524 33.0858 17.6212 33.0886 17.5906 33.0841H14.125C14.0966 33.0877 14.0677 33.0843 14.0408 33.0743C14.0138 33.0643 13.9896 33.0478 13.9701 33.0263C13.9363 32.9649 13.9216 32.8943 13.9278 32.8241V14.3586C13.9278 14.089 13.9935 13.9542 14.125 13.954H25.2824C25.3509 13.9478 25.4196 13.9629 25.4796 13.9974C25.517 14.0263 25.5452 14.1563 25.5641 14.3875L25.874 17.5373C25.8832 17.5651 25.8841 17.5951 25.8765 17.6234C25.869 17.6517 25.8534 17.6771 25.8317 17.6963C25.8076 17.7205 25.7789 17.7393 25.7474 17.7518C25.7159 17.7642 25.6823 17.7699 25.6486 17.7685H17.816V22.1609H24.8597C25.0287 22.1609 25.1132 22.2286 25.1132 22.3632V25.5419C25.1176 25.5733 25.1148 25.6053 25.105 25.6355C25.0953 25.6656 25.0788 25.6929 25.0569 25.7153C25.035 25.7378 25.0084 25.7547 24.979 25.7647C24.9497 25.7747 24.9185 25.7776 24.8878 25.7731L17.816 25.7731Z" fill="#31A8FF"/>
<path d="M27.5927 18.7222H30.6638C30.7472 18.7229 30.8281 18.7515 30.8942 18.8037C30.9602 18.8558 31.008 18.9287 31.03 19.0112C31.097 19.1378 31.1445 19.2742 31.1709 19.4157C31.2102 19.6016 31.2384 19.7898 31.2554 19.9792C31.2739 20.1815 31.2833 20.3982 31.2836 20.6294C31.8103 20.0004 32.4454 19.4764 33.1572 19.0834C33.9568 18.64 34.8546 18.416 35.7634 18.4332C35.7979 18.4282 35.833 18.4314 35.866 18.4427C35.899 18.454 35.929 18.473 35.9536 18.4982C35.9782 18.5235 35.9968 18.5542 36.0078 18.5881C36.0188 18.6219 36.0219 18.658 36.017 18.6933V22.1899C36.017 22.3249 35.9228 22.3922 35.7353 22.3922C34.6003 22.3201 33.4651 22.5282 32.4247 22.999C32.0711 23.1559 31.7506 23.3816 31.4809 23.6637V32.8242C31.4809 32.9976 31.4057 33.0843 31.2554 33.0842H27.8463C27.808 33.0899 27.769 33.0863 27.7323 33.0738C27.6956 33.0612 27.6622 33.0401 27.6349 33.0121C27.6075 32.984 27.5869 32.9498 27.5747 32.9122C27.5625 32.8745 27.559 32.8345 27.5645 32.7953V22.8545C27.5645 22.431 27.5598 21.9831 27.5505 21.5108C27.5407 21.0389 27.5266 20.5718 27.5082 20.1093C27.4957 19.7122 27.458 19.3165 27.3955 18.9245C27.3884 18.8965 27.3886 18.8671 27.396 18.8393C27.4034 18.8114 27.4178 18.786 27.4377 18.7656C27.4577 18.7451 27.4824 18.7304 27.5096 18.7228C27.5368 18.7152 27.5654 18.715 27.5927 18.7222H27.5927Z" fill="#31A8FF"/>
</g>
<defs>
<clipPath id="clip0_201_686">
<rect width="42" height="42" fill="white" transform="translate(3 3.39996)"/>
</clipPath>
</defs>
</svg>
