<svg width="48" height="48" viewBox="0 0 48 48" fill="none" xmlns="http://www.w3.org/2000/svg">
<g clip-path="url(#clip0_201_687)">
<path d="M37.5625 3.39996H10.4375C6.32988 3.39996 3 6.81523 3 11.0282V37.7718C3 41.9847 6.32988 45.4 10.4375 45.4H37.5625C41.6701 45.4 45 41.9847 45 37.7718V11.0282C45 6.81523 41.6701 3.39996 37.5625 3.39996Z" fill="#000B1D"/>
<path d="M35.658 34.9808H30.6693C30.4526 34.9848 30.2396 34.9227 30.0574 34.8022C29.8752 34.6818 29.7321 34.5084 29.6462 34.3043L24.2305 21.3167C24.2163 21.2662 24.1867 21.2216 24.1459 21.1897C24.1052 21.1578 24.0555 21.1402 24.0042 21.1395C23.9529 21.1388 23.9028 21.1551 23.8612 21.1859C23.8197 21.2167 23.7889 21.2605 23.7735 21.3106L20.3984 29.5567C20.3801 29.6013 20.3728 29.6499 20.3773 29.6981C20.3817 29.7463 20.3976 29.7926 20.4237 29.8329C20.4498 29.8732 20.4853 29.9063 20.5269 29.9292C20.5684 29.9521 20.6149 29.9641 20.6621 29.9641H24.3719C24.4843 29.9641 24.5942 29.998 24.6879 30.0616C24.7816 30.1253 24.8549 30.2158 24.8988 30.322L26.523 34.0292C26.5661 34.1332 26.5833 34.2466 26.5732 34.3591C26.5632 34.4716 26.5261 34.5798 26.4653 34.6741C26.4045 34.7683 26.3219 34.8457 26.2248 34.8992C26.1278 34.9527 26.0193 34.9807 25.9092 34.9808H12.4034C12.3019 34.9802 12.202 34.9538 12.1128 34.904C12.0236 34.8542 11.9477 34.7825 11.8921 34.6954C11.8364 34.6082 11.8026 34.5083 11.7937 34.4045C11.7849 34.3007 11.8012 34.1963 11.8412 34.1005L20.4319 13.1181C20.5197 12.896 20.6707 12.7062 20.8653 12.5735C21.0598 12.4409 21.2889 12.3714 21.5225 12.3743H26.4774C26.7111 12.3711 26.9403 12.4404 27.1349 12.5732C27.3295 12.7059 27.4806 12.8958 27.5681 13.1181L36.2183 34.1005C36.2583 34.1961 36.2747 34.3004 36.2659 34.404C36.2571 34.5077 36.2235 34.6075 36.1681 34.6946C36.1126 34.7817 36.037 34.8535 35.948 34.9034C35.859 34.9533 35.7594 34.9799 35.658 34.9808Z" fill="#FA0F00"/>
</g>
<defs>
<clipPath id="clip0_201_687">
<rect width="42" height="42" fill="white" transform="translate(3 3.39996)"/>
</clipPath>
</defs>
</svg>
