<svg width="48" height="48" viewBox="0 0 48 48" fill="none" xmlns="http://www.w3.org/2000/svg">
<g clip-path="url(#clip0_201_670)">
<path d="M10.4375 4H37.5625C41.675 4 45 7.41026 45 11.6282V38.3718C45 42.5897 41.675 46 37.5625 46H10.4375C6.325 46 3 42.5897 3 38.3718V11.6282C3 7.41026 6.325 4 10.4375 4Z" fill="#000B1D"/>
<path d="M18.61 33.9744C17.6475 33.9923 16.685 33.8846 15.7575 33.7051C15.0225 33.5615 14.2875 33.3282 13.605 33.0051C13.4475 32.9333 13.3775 32.7718 13.3775 32.5205V29.0744C13.3775 29.0205 13.395 28.9487 13.4475 28.9128C13.5 28.8769 13.57 28.8949 13.6225 28.9308C14.41 29.4333 15.25 29.8103 16.125 30.0615C16.965 30.3128 17.84 30.4385 18.715 30.4385C19.7825 30.4385 20.5525 30.2769 21.0075 29.9359C21.4275 29.6667 21.69 29.2 21.69 28.6795C21.69 28.3744 21.62 28.0692 21.4625 27.8C21.2525 27.4949 20.99 27.2256 20.675 27.0282C20.185 26.7231 19.66 26.4538 19.1175 26.2564L17.7 25.6461C16.5625 25.1436 15.6525 24.6051 15.005 24.0487C14.41 23.5641 13.955 22.9359 13.675 22.2179C13.43 21.5359 13.3075 20.8359 13.3075 20.1C13.2725 18.0179 14.4625 16.0974 16.3175 15.2538C17.315 14.7692 18.5575 14.5179 20.045 14.5179C20.885 14.5179 21.725 14.5718 22.565 14.6974C23.2125 14.7692 23.8425 14.9667 24.4375 15.2538C24.56 15.3256 24.6475 15.4692 24.63 15.6308V18.8974C24.63 18.9513 24.595 18.9872 24.56 19.0231C24.5075 19.0769 24.455 19.059 24.385 19.0051C23.755 18.682 23.09 18.4308 22.4075 18.2872C21.6375 18.1077 20.85 18.0179 20.0625 18.0359C19.59 18.0359 19.135 18.0718 18.68 18.1795C18.365 18.2513 18.05 18.3769 17.77 18.5385C17.5425 18.6641 17.3675 18.8615 17.245 19.0949C17.14 19.3103 17.07 19.5436 17.07 19.7769C17.07 20.0641 17.1575 20.3692 17.315 20.6026C17.5425 20.9077 17.84 21.141 18.155 21.3205C18.68 21.6256 19.2225 21.9128 19.7825 22.1641L20.8325 22.5769C22.075 23.0974 23.0375 23.6538 23.7375 24.2462C24.3675 24.7487 24.875 25.4128 25.2075 26.1487C25.4875 26.8487 25.6275 27.6026 25.6275 28.3564C25.645 29.4333 25.33 30.4744 24.735 31.3538C24.105 32.2333 23.2475 32.9154 22.2675 33.3282C21.2875 33.741 20.045 33.9744 18.61 33.9744Z" fill="white"/>
<path d="M35.1825 30.8154V33.1846C35.1825 33.4 35.1125 33.5256 34.955 33.5615C34.5875 33.6872 34.2025 33.7769 33.835 33.8487C33.38 33.9385 32.9425 33.9744 32.4875 33.9564C31.2625 33.9564 30.3 33.6333 29.6175 32.9692C28.935 32.3051 28.5675 31.2641 28.5675 29.8282V22.6308H26.87C26.7125 22.6308 26.6425 22.541 26.6425 22.3795L26.66 19.5256C26.66 19.3641 26.7475 19.2923 26.905 19.2923H28.6025C28.62 18.9692 28.62 18.6103 28.655 18.1795C28.69 17.7487 28.725 17.318 28.76 16.8872C28.795 16.4564 28.8475 16.0974 28.8825 15.8282C28.9 15.7744 28.935 15.7205 28.97 15.6667C29.005 15.6128 29.0575 15.5769 29.11 15.559L32.47 15.1282C32.5225 15.1103 32.5575 15.1103 32.61 15.1282C32.645 15.1462 32.6625 15.2 32.6625 15.3077C32.6275 15.7564 32.5925 16.3487 32.575 17.1205C32.5575 17.8744 32.5575 18.5923 32.54 19.3103H35.025C35.13 19.3103 35.2 19.3821 35.2 19.5436L35.1825 22.4513C35.2 22.541 35.13 22.6308 35.0425 22.6487H32.5575V28.8769C32.5575 29.5231 32.6275 30.0077 32.8375 30.2769C33.0475 30.5462 33.45 30.6897 34.0275 30.6897C34.2025 30.6897 34.36 30.6897 34.5 30.6718C34.64 30.6538 34.7975 30.6538 34.955 30.6359C35.0075 30.6179 35.06 30.618 35.1125 30.6538C35.165 30.6718 35.1825 30.7256 35.1825 30.8154Z" fill="white"/>
</g>
<defs>
<clipPath id="clip0_201_670">
<rect width="42" height="42" fill="white" transform="translate(3 4)"/>
</clipPath>
</defs>
</svg>
