<svg width="48" height="48" viewBox="0 0 48 48" fill="none" xmlns="http://www.w3.org/2000/svg">
<g clip-path="url(#clip0_1_1972)">
<path d="M39.9086 0L26.1943 4.93714L15.36 0L4.73145 26.6743L16.9372 21.8057L16.7314 35.3143L42.8572 35.7943L48 9.39429L39.9086 0Z" fill="url(#paint0_linear_1_1972)"/>
<path d="M34.8343 15.5657L17.5543 4.25146L3.63428 12.8229L34.1486 24.6172L34.8343 15.5657Z" fill="url(#paint1_linear_1_1972)"/>
<path d="M19.9543 46.7657L37.92 44.3657L32.2286 33.3943L36 28.8L36.4114 25.9886L17.5543 4.18288L0 8.50288V33.6686L10.1486 48L19.9543 46.7657Z" fill="url(#paint2_linear_1_1972)"/>
<path d="M9.1886 9.18855H38.8115V38.8114H9.1886V9.18855Z" fill="black"/>
<path d="M12 33.2571H23.1086V35.1086H12V33.2571Z" fill="white"/>
<path d="M23.7258 13.0286H26.6744L29.8973 18.24L33.1201 13.0286H36.0687V25.3029H33.3258V17.28L29.8973 22.56H29.8287L26.4001 17.3486V25.3029H23.7258V13.0286Z" fill="white"/>
<path d="M11.9315 13.0286H17.5543C19.1315 13.0286 20.2972 13.44 21.1201 14.2629C21.8058 14.9486 22.1486 15.9086 22.1486 17.0743V17.1429C22.1486 18.1714 21.8743 18.9257 21.3943 19.5429C20.9143 20.16 20.2972 20.64 19.4743 20.9143L22.4915 25.3029H19.3372L16.8001 21.5314H14.5372V25.3029H11.8629V13.0286H11.9315ZM17.4172 18.9943C18.1029 18.9943 18.5829 18.8571 18.9258 18.5143C19.2686 18.1714 19.4743 17.76 19.4743 17.28V17.2114C19.4743 16.5943 19.2686 16.1829 18.9258 15.9086C18.5829 15.6343 18.0343 15.4971 17.3486 15.4971H14.6743V18.9943H17.4172Z" fill="white"/>
</g>
<defs>
<linearGradient id="paint0_linear_1_1972" x1="34.0176" y1="36.037" x2="20.8087" y2="4.91177" gradientUnits="userSpaceOnUse">
<stop offset="0.172" stop-color="#FF1F51"/>
<stop offset="0.28" stop-color="#FF3648"/>
<stop offset="0.468" stop-color="#FF593B"/>
<stop offset="0.646" stop-color="#FF7231"/>
<stop offset="0.809" stop-color="#FF812B"/>
<stop offset="0.941" stop-color="#FF8629"/>
</linearGradient>
<linearGradient id="paint1_linear_1_1972" x1="22.8062" y1="8.83684" x2="17.2148" y2="22.9276" gradientUnits="userSpaceOnUse">
<stop offset="0.022" stop-color="#9039D0"/>
<stop offset="0.629" stop-color="#FF1F51"/>
</linearGradient>
<linearGradient id="paint2_linear_1_1972" x1="0.198857" y1="7.69648" x2="31.0519" y2="46.9166" gradientUnits="userSpaceOnUse">
<stop offset="0.107" stop-color="#9039D0"/>
<stop offset="0.387" stop-color="#FF1F51"/>
<stop offset="0.629" stop-color="#FF1F51"/>
<stop offset="0.66" stop-color="#FF3648"/>
<stop offset="0.714" stop-color="#FF593B"/>
<stop offset="0.765" stop-color="#FF7231"/>
<stop offset="0.812" stop-color="#FF812B"/>
<stop offset="0.85" stop-color="#FF8629"/>
</linearGradient>
<clipPath id="clip0_1_1972">
<rect width="48" height="48" fill="white"/>
</clipPath>
</defs>
</svg>
