<svg width="48" height="48" viewBox="0 0 48 48" fill="none" xmlns="http://www.w3.org/2000/svg">
<g clip-path="url(#clip0_1_2104)">
<path d="M12.1372 37.4399L0.548584 28.2514L6.30858 17.5542L22.8343 23.9999L12.1372 37.4399Z" fill="url(#paint0_linear_1_2104)"/>
<path d="M48 12.8228L47.1086 40.5942L28.6629 47.9999L17.5543 40.8685L33.8058 23.9999L26.6743 8.43421L33.0515 0.754208L48 12.8228Z" fill="url(#paint1_linear_1_2104)"/>
<path d="M48 12.8228L33.3943 30.1028L26.6743 8.43421L33.0515 0.754208L48 12.8228Z" fill="url(#paint2_linear_1_2104)"/>
<path d="M23.1086 39.84L3.84 46.8343L6.92572 36L10.9714 22.6971L0 18.9943L6.92572 0L22.0114 1.85143L36.8229 18.7886L23.1086 39.84Z" fill="url(#paint3_linear_1_2104)"/>
<path d="M9.39429 9.25714H39.0171V38.88H9.39429V9.25714Z" fill="black"/>
<path d="M12.1372 33.3256H23.2458V35.1771H12.1372V33.3256Z" fill="white"/>
<path d="M20.16 15.3599V13.0971H13.9885V15.3599H15.7714V23.1085H13.9885V25.3713H20.16V23.1085H18.4457V15.3599H20.16Z" fill="white"/>
<path d="M26.0571 25.5771C25.0971 25.5771 24.2742 25.3713 23.6571 25.0285C23.04 24.6856 22.4914 24.2056 22.08 23.7256L23.7942 21.8056C24.1371 22.2171 24.48 22.4913 24.8228 22.6971C25.1657 22.9028 25.5771 23.0399 25.9885 23.0399C26.4685 23.0399 26.88 22.9028 27.2228 22.5599C27.4971 22.2171 27.6342 21.7371 27.6342 20.9828V13.0971H30.3771V21.1199C30.3771 21.8742 30.3085 22.4913 30.1028 23.0399C29.8971 23.5885 29.6228 23.9999 29.2114 24.4113C28.8685 24.7542 28.3885 25.0971 27.84 25.2342C27.2914 25.4399 26.7428 25.5771 26.0571 25.5771Z" fill="white"/>
</g>
<defs>
<linearGradient id="paint0_linear_1_2104" x1="0.541727" y1="27.4895" x2="22.846" y2="27.4895" gradientUnits="userSpaceOnUse">
<stop offset="0.258" stop-color="#F97A12"/>
<stop offset="0.459" stop-color="#B07B58"/>
<stop offset="0.724" stop-color="#577BAE"/>
<stop offset="0.91" stop-color="#1E7CE5"/>
<stop offset="1" stop-color="#087CFA"/>
</linearGradient>
<linearGradient id="paint1_linear_1_2104" x1="17.6688" y1="17.0605" x2="54.4622" y2="37.4194" gradientUnits="userSpaceOnUse">
<stop stop-color="#F97A12"/>
<stop offset="0.072" stop-color="#CB7A3E"/>
<stop offset="0.154" stop-color="#9E7B6A"/>
<stop offset="0.242" stop-color="#757B91"/>
<stop offset="0.334" stop-color="#537BB1"/>
<stop offset="0.432" stop-color="#387CCC"/>
<stop offset="0.538" stop-color="#237CE0"/>
<stop offset="0.655" stop-color="#147CEF"/>
<stop offset="0.792" stop-color="#0B7CF7"/>
<stop offset="1" stop-color="#087CFA"/>
</linearGradient>
<linearGradient id="paint2_linear_1_2104" x1="43.3564" y1="29.4274" x2="33.1132" y2="-1.17882" gradientUnits="userSpaceOnUse">
<stop stop-color="#FE315D"/>
<stop offset="0.078" stop-color="#CB417E"/>
<stop offset="0.16" stop-color="#9E4E9B"/>
<stop offset="0.247" stop-color="#755BB4"/>
<stop offset="0.339" stop-color="#5365CA"/>
<stop offset="0.436" stop-color="#386DDB"/>
<stop offset="0.541" stop-color="#2374E9"/>
<stop offset="0.658" stop-color="#1478F3"/>
<stop offset="0.794" stop-color="#0B7BF8"/>
<stop offset="1" stop-color="#087CFA"/>
</linearGradient>
<linearGradient id="paint3_linear_1_2104" x1="7.35086" y1="11.2958" x2="38.0736" y2="62.112" gradientUnits="userSpaceOnUse">
<stop stop-color="#FE315D"/>
<stop offset="0.04" stop-color="#F63462"/>
<stop offset="0.104" stop-color="#DF3A71"/>
<stop offset="0.167" stop-color="#C24383"/>
<stop offset="0.291" stop-color="#AD4A91"/>
<stop offset="0.55" stop-color="#755BB4"/>
<stop offset="0.917" stop-color="#1D76ED"/>
<stop offset="1" stop-color="#087CFA"/>
</linearGradient>
<clipPath id="clip0_1_2104">
<rect width="48" height="48" fill="white"/>
</clipPath>
</defs>
</svg>
