<svg width="48" height="48" viewBox="0 0 48 48" fill="none" xmlns="http://www.w3.org/2000/svg">
<g clip-path="url(#clip0_1_2095)">
<path d="M45.8743 32.5714C45.7371 32.4343 36.8914 23.9314 36.8914 23.9314C36.8914 23.9314 43.6114 16.8 45.3943 15.0172C45.9428 14.4686 46.4228 13.92 46.7657 13.2343C49.2343 9.05145 47.7943 3.70288 43.6114 1.23431C40.5257 -0.548549 36.6857 -0.274264 33.9428 1.78288C33.4628 2.12574 33.0514 2.46859 32.64 2.88002C32.4343 3.15431 23.1086 11.6572 15.0171 19.0629L30.1714 28.6629L14.2628 46.56C13.3028 47.2457 12.3428 47.6572 11.3143 47.8629C11.52 47.8629 11.6571 47.8629 11.8628 47.7943C15.0171 47.3143 41.9657 42.7886 43.2686 42.5143C44.8457 42.24 46.2857 41.28 47.1771 39.84C48.6857 37.3714 48 34.2857 45.8743 32.5714Z" fill="url(#paint0_linear_1_2095)"/>
<path d="M31.4742 20.9143C31.1999 19.0629 30.2399 17.5543 28.8685 16.4571C27.4285 15.36 16.32 3.84001 15.0857 2.53715C13.1657 0.68572 10.4228 -0.342852 7.61138 0.137148C2.81138 0.822862 -0.548621 5.34858 0.205665 10.1486C0.548522 12.5486 1.91995 14.6057 3.70281 15.9086C5.48566 17.28 19.4742 26.88 20.3657 27.5657C21.8057 28.6629 23.7257 29.28 25.6457 28.9371C29.4171 28.2514 32.0914 24.6857 31.4742 20.9143Z" fill="url(#paint1_linear_1_2095)"/>
<path d="M15.7714 46.4914C15.84 46.4914 31.7486 28.5943 31.7486 28.5943L15.7029 18.4457C10.0114 23.6571 4.73145 28.3885 3.49716 29.5543C2.74287 30.24 1.98859 31.1314 1.44002 32.0914C-1.50855 37.1657 0.205732 43.6114 5.28002 46.56C7.33716 47.7257 12 49.1657 15.7714 46.4914Z" fill="url(#paint2_linear_1_2095)"/>
<path d="M9.18854 9.18855H38.8114V38.8114H9.18854V9.18855Z" fill="black"/>
<path d="M11.9314 33.2571H23.04V35.1086H11.9314V33.2571Z" fill="white"/>
<path d="M16.32 20.5029L11.6571 13.0972H14.8114L17.6914 17.9657L20.7085 13.0972H23.7942L19.0628 20.4343V25.3715H16.32V20.5029Z" fill="white"/>
<path d="M28.5256 15.5657H24.7542V13.0972H34.9714V15.5657H31.1999V25.3715H28.5256V15.5657Z" fill="white"/>
</g>
<defs>
<linearGradient id="paint0_linear_1_2095" x1="4.8569" y1="37.5449" x2="43.9584" y2="19.7205" gradientUnits="userSpaceOnUse">
<stop stop-color="#905CFB"/>
<stop offset="0.165" stop-color="#6677F8"/>
<stop offset="0.378" stop-color="#3596F5"/>
<stop offset="0.54" stop-color="#17A9F3"/>
<stop offset="0.632" stop-color="#0CB0F2"/>
</linearGradient>
<linearGradient id="paint1_linear_1_2095" x1="20.7839" y1="19.2898" x2="0.732291" y2="1.57921" gradientUnits="userSpaceOnUse">
<stop stop-color="#905CFB"/>
<stop offset="0.072" stop-color="#A554E6"/>
<stop offset="0.252" stop-color="#D641B5"/>
<stop offset="0.39" stop-color="#F43597"/>
<stop offset="0.468" stop-color="#FF318C"/>
</linearGradient>
<linearGradient id="paint2_linear_1_2095" x1="3.41693" y1="40.2411" x2="50.7586" y2="10.4112" gradientUnits="userSpaceOnUse">
<stop stop-color="#905CFB"/>
<stop offset="0.165" stop-color="#6677F8"/>
<stop offset="0.378" stop-color="#3596F5"/>
<stop offset="0.54" stop-color="#17A9F3"/>
<stop offset="0.632" stop-color="#0CB0F2"/>
</linearGradient>
<clipPath id="clip0_1_2095">
<rect width="48" height="48" fill="white"/>
</clipPath>
</defs>
</svg>
