<svg width="48" height="48" viewBox="0 0 48 48" fill="none" xmlns="http://www.w3.org/2000/svg">
<g clip-path="url(#clip0_201_667)">
<path d="M37.5625 3H10.4375C6.32988 3 3 6.41526 3 10.6282V37.3718C3 41.5847 6.32988 45 10.4375 45H37.5625C41.6701 45 45 41.5847 45 37.3718V10.6282C45 6.41526 41.6701 3 37.5625 3Z" fill="#00005B"/>
<path d="M23.0958 29.072V32.0484C23.1071 32.1319 23.0912 32.2169 23.0504 32.2901C23.0096 32.3633 22.9464 32.4206 22.8705 32.453C22.3345 32.6505 21.7774 32.7815 21.211 32.8431C20.477 32.9327 19.7384 32.9761 18.9992 32.9732C17.9496 32.9782 16.9035 32.8471 15.8859 32.583C14.9331 32.3379 14.0247 31.9379 13.1952 31.3982C12.3956 30.8764 11.6902 30.2164 11.1103 29.4477C10.5091 28.6403 10.0513 27.7306 9.75791 26.7602C9.42384 25.6368 9.26223 24.4669 9.27888 23.2925C9.27888 21.3469 9.69211 19.6371 10.5186 18.1632C11.3431 16.6914 12.5666 15.4967 14.0405 14.7244C15.7224 13.8424 17.5894 13.3963 19.4783 13.4252C20.2077 13.4179 20.937 13.4565 21.6618 13.5408C22.1663 13.5971 22.6627 13.7135 23.141 13.8876C23.1923 13.9274 23.2325 13.9804 23.2572 14.0414C23.282 14.1023 23.2905 14.1689 23.2819 14.2343V17.4841C23.2819 17.6575 23.2158 17.7153 23.0847 17.6575C22.551 17.4014 21.9846 17.2243 21.4024 17.1313C20.722 17.0223 20.0343 16.9691 19.3456 16.9724C18.2225 16.9464 17.1123 17.2225 16.1254 17.7731C15.2444 18.2721 14.521 19.019 14.0404 19.926C13.5316 20.9284 13.2796 22.0471 13.3079 23.1769C13.2923 23.9816 13.4114 24.7831 13.6601 25.5465C13.8774 26.1896 14.2067 26.7869 14.6322 27.3092C15.024 27.7925 15.5021 28.1947 16.0409 28.4941C16.5699 28.7843 17.1334 29.0028 17.7173 29.1443C18.2828 29.3025 18.8642 29.3932 19.45 29.4145C20.0849 29.4182 20.7197 29.3893 21.3518 29.3278C21.8718 29.2571 22.3817 29.1227 22.8705 28.9275C22.9452 28.8697 23.0016 28.8553 23.0395 28.8842C23.0618 28.9093 23.0785 28.9391 23.0882 28.9716C23.0979 29.0041 23.1005 29.0384 23.0958 29.072Z" fill="#9999FF"/>
<path d="M29.5649 22.2522V32.3842C29.5649 32.5386 29.4989 32.6154 29.3677 32.6154H25.8521C25.8176 32.6204 25.7825 32.6172 25.7495 32.6059C25.7165 32.5946 25.6865 32.5756 25.6619 32.5504C25.6373 32.5251 25.6187 32.4944 25.6077 32.4605C25.5967 32.4267 25.5935 32.3906 25.5984 32.3553V12.3982C25.5984 12.2636 25.6733 12.1959 25.8239 12.1959H29.3677C29.3945 12.192 29.4218 12.1946 29.4474 12.2034C29.4731 12.2122 29.4964 12.227 29.5155 12.2466C29.5346 12.2662 29.5491 12.2901 29.5576 12.3164C29.5662 12.3427 29.5687 12.3707 29.5649 12.3982L29.5854 19.218C30.0947 18.8714 30.6408 18.5854 31.2132 18.3655C31.8048 18.1443 32.4951 18.0919 33.284 18.0919C33.843 18.0941 34.3985 18.1818 34.9323 18.352C35.5001 18.5135 36.0251 18.8046 36.4678 19.2035C36.9371 19.637 37.2664 20.2249 37.5482 20.9663C37.8299 21.7081 37.9708 22.6665 37.9708 23.8415V32.3553C37.9708 32.5287 37.8957 32.6154 37.7454 32.6154H34.4463C34.408 32.621 34.369 32.6174 34.3323 32.6049C34.2956 32.5924 34.2623 32.5712 34.2349 32.5432C34.2076 32.5151 34.187 32.4809 34.1748 32.4433C34.1626 32.4057 34.1591 32.3657 34.1646 32.3264V24.2461C34.1824 23.7266 34.0911 23.2092 33.8968 22.729C33.7402 22.3614 33.4865 22.0461 33.1643 21.8188C32.7721 21.591 32.3255 21.4809 31.8752 21.5009C31.4551 21.4991 31.0372 21.5624 30.6355 21.6887C30.249 21.8101 29.8865 22.0009 29.5649 22.2522Z" fill="#9999FF"/>
</g>
<defs>
<clipPath id="clip0_201_667">
<rect width="42" height="42" fill="white" transform="translate(3 3)"/>
</clipPath>
</defs>
</svg>
