<svg width="48" height="48" viewBox="0 0 48 48" fill="none" xmlns="http://www.w3.org/2000/svg">
<g clip-path="url(#clip0_201_671)">
<path d="M37.5625 4H10.4375C6.32988 4 3 7.41526 3 11.6282V38.3718C3 42.5847 6.32988 46 10.4375 46H37.5625C41.6701 46 45 42.5847 45 38.3718V11.6282C45 7.41526 41.6701 4 37.5625 4Z" fill="#49021F"/>
<path d="M18.2527 14.9876V33.3952C18.2527 33.588 18.1682 33.6843 17.9992 33.6842H14.5899C14.4394 33.6842 14.3643 33.5879 14.3646 33.3952V14.9876C14.3646 14.8336 14.4491 14.7565 14.6181 14.7564H18.0273C18.0579 14.7519 18.0891 14.7548 18.1184 14.7649C18.1478 14.7749 18.1744 14.7918 18.1963 14.8142C18.2181 14.8366 18.2346 14.864 18.2444 14.8941C18.2542 14.9242 18.257 14.9562 18.2527 14.9876Z" fill="#FF3366"/>
<path d="M28.3394 33.9731C27.0426 33.9934 25.7576 33.717 24.578 33.164C23.4791 32.6424 22.5605 31.7909 21.9437 30.7222C21.3049 29.634 20.9855 28.271 20.9857 26.6332C20.9751 25.3069 21.3055 24.0012 21.9437 22.8476C22.601 21.6726 23.5677 20.7112 24.733 20.0734C25.9537 19.3799 27.4282 19.0331 29.1565 19.0332C29.2502 19.0332 29.3723 19.038 29.5227 19.0476C29.6728 19.0575 29.8513 19.072 30.058 19.091V13.3982C30.058 13.2636 30.1144 13.1959 30.2271 13.1959H33.7771C33.8001 13.1925 33.8235 13.1947 33.8455 13.2022C33.8675 13.2097 33.8875 13.2224 33.9039 13.2392C33.9203 13.256 33.9327 13.2765 33.9401 13.2991C33.9474 13.3217 33.9495 13.3457 33.9462 13.3692V30.4476C33.9462 30.7755 33.9603 31.1319 33.9885 31.5168C34.0167 31.9024 34.0402 32.2492 34.059 32.5571C34.0624 32.6172 34.0481 32.6769 34.0179 32.7284C33.9878 32.78 33.9431 32.821 33.8898 32.8461C32.974 33.2379 32.0201 33.5285 31.0442 33.713C30.1519 33.8819 29.2467 33.969 28.3394 33.9731ZM30.058 30.3898V22.5009C29.9058 22.4586 29.7503 22.4295 29.5932 22.4141C29.4013 22.3944 29.2085 22.3847 29.0156 22.3853C28.3319 22.3783 27.6562 22.5367 27.0433 22.8476C26.4464 23.1519 25.9367 23.61 25.5642 24.1769C25.179 24.7548 24.9864 25.5158 24.9865 26.4598C24.9728 27.0897 25.0731 27.7168 25.2824 28.3092C25.4526 28.7866 25.7218 29.2204 26.0713 29.5807C26.4059 29.9123 26.811 30.1596 27.2546 30.3032C27.7233 30.4588 28.2131 30.5368 28.7056 30.5343C28.9685 30.5343 29.2127 30.5247 29.4382 30.5054C29.6482 30.4892 29.8559 30.4505 30.058 30.3898Z" fill="#FF3366"/>
</g>
<defs>
<clipPath id="clip0_201_671">
<rect width="42" height="42" fill="white" transform="translate(3 4)"/>
</clipPath>
</defs>
</svg>
