<svg width="48" height="48" viewBox="0 0 48 48" fill="none" xmlns="http://www.w3.org/2000/svg">
<g clip-path="url(#clip0_201_672)">
<path d="M37.5625 2.80005H10.4375C6.32988 2.80005 3 6.21531 3 10.4283V37.1718C3 41.3848 6.32988 44.8 10.4375 44.8H37.5625C41.6701 44.8 45 41.3848 45 37.1718V10.4283C45 6.21531 41.6701 2.80005 37.5625 2.80005Z" fill="#00005B"/>
<path d="M13.5643 32.9844H10.2249C10.075 32.9844 10 32.8982 10 32.7241V14.3464C10 14.1669 10.0558 14.0862 10.1744 14.0862C10.83 14.0658 11.3915 14.0515 11.8589 14.0431L13.2068 14.0144C13.6375 14.0036 14.0787 14 14.5408 14H16.0632C17.6361 14 18.9555 14.2262 20.0216 14.6785C21.0129 15.0709 21.8682 15.7582 22.4786 16.6528C23.0494 17.5036 23.3348 18.5572 23.3348 19.8136C23.3414 20.5568 23.1884 21.2923 22.8866 21.9674C22.5892 22.6192 22.1689 23.2037 21.6503 23.6869C21.115 24.186 20.4973 24.5824 19.8263 24.8572C20.0134 25.1085 20.2756 25.489 20.6127 25.9987C20.9498 26.5085 21.3195 27.0768 21.7218 27.7038C22.1228 28.3309 22.5251 28.9621 22.9285 29.5974C23.3319 30.2328 23.6969 30.8203 24.0236 31.36C24.3497 31.8985 24.599 32.3238 24.7664 32.6308C24.7927 32.6625 24.8125 32.6994 24.8248 32.7391C24.8371 32.7789 24.8415 32.8208 24.8379 32.8623C24.8375 32.8787 24.8338 32.8948 24.8271 32.9096C24.8203 32.9244 24.8107 32.9377 24.7987 32.9485C24.7868 32.9593 24.7728 32.9674 24.7576 32.9723C24.7424 32.9773 24.7264 32.9789 24.7106 32.9772H20.6406C20.5543 32.9822 20.4679 32.9675 20.3878 32.9341C20.3307 32.9042 20.282 32.8597 20.2465 32.8049C20.0407 32.4962 19.7844 32.0869 19.474 31.5915C19.1636 31.0962 18.8393 30.5308 18.4923 29.9151C18.1452 29.2995 17.7947 28.691 17.446 28.0933C17.0972 27.4956 16.7956 26.9572 16.534 26.478C16.445 26.3372 16.3389 26.2087 16.2184 26.0956C16.116 26.0237 15.9934 25.9883 15.8696 25.9951H13.7962V32.7277C13.7962 32.8982 13.7143 32.9844 13.5643 32.9844ZM13.7893 22.5741H15.9795C16.6033 22.5885 17.225 22.4957 17.8192 22.2995C18.2921 22.1475 18.7084 21.85 19.0119 21.4469C19.3017 21.0289 19.4494 20.5242 19.4322 20.011C19.4322 19.1256 19.1142 18.4854 18.4783 18.0905C17.8424 17.6956 17.0002 17.4982 15.9516 17.4982C15.5017 17.4982 15.0797 17.4982 14.703 17.5126C14.3263 17.5269 14.0055 17.5359 13.7893 17.5556V22.5741Z" fill="#9999FF"/>
<path d="M38.1307 18.8245V29.7733C38.1307 30.2561 38.1307 30.6833 38.1447 31.0602C38.1586 31.4371 38.1726 31.7638 38.2005 32.042C38.2284 32.3202 38.2528 32.5571 38.2702 32.751C38.2894 32.9053 38.2232 32.9807 38.0749 32.9807H35.0704C35.0008 32.9886 34.9306 32.9733 34.87 32.9371C34.8094 32.901 34.7617 32.8458 34.7338 32.7797C34.6955 32.6451 34.6641 32.4943 34.6344 32.331C34.608 32.1835 34.594 32.034 34.5926 31.884C34.0287 32.4041 33.3573 32.7853 32.6291 32.9986C31.997 33.1767 31.3452 33.2696 30.69 33.2751C30.0455 33.2832 29.4042 33.18 28.7927 32.9699C28.2264 32.7716 27.7154 32.4347 27.3035 31.9881C26.8572 31.4909 26.5221 30.8991 26.3218 30.2543C26.0701 29.4272 25.9523 28.5631 25.973 27.6966V18.8533C25.9686 18.822 25.9714 18.7902 25.9811 18.7603C25.9907 18.7303 26.0071 18.7031 26.0287 18.6808C26.0504 18.6585 26.0768 18.6417 26.1059 18.6318C26.135 18.6218 26.1659 18.619 26.1962 18.6235H29.6507C29.681 18.619 29.7119 18.6218 29.741 18.6318C29.7701 18.6417 29.7965 18.6585 29.8182 18.6808C29.8399 18.7031 29.8562 18.7303 29.8659 18.7603C29.8755 18.7902 29.8783 18.822 29.8739 18.8533V27.2335C29.8739 28.0245 30.0425 28.6461 30.3796 29.0984C30.7167 29.5507 31.2782 29.7768 32.0641 29.7768C32.4669 29.7823 32.867 29.7086 33.2429 29.5597C33.5987 29.4161 33.9305 29.2162 34.2264 28.9674V18.8245C34.2264 18.6899 34.3101 18.6235 34.4792 18.6235H37.9319C37.9587 18.6194 37.986 18.6217 38.0117 18.6303C38.0374 18.6389 38.0608 18.6535 38.0801 18.673C38.0994 18.6925 38.114 18.7163 38.1228 18.7426C38.1315 18.7689 38.1343 18.797 38.1307 18.8245Z" fill="#9999FF"/>
</g>
<defs>
<clipPath id="clip0_201_672">
<rect width="42" height="42" fill="white" transform="translate(3 3)"/>
</clipPath>
</defs>
</svg>
