<svg width="48" height="48" viewBox="0 0 48 48" fill="none" xmlns="http://www.w3.org/2000/svg">
<g clip-path="url(#clip0_201_688)">
<path d="M37.5625 3H10.4375C6.32988 3 3 6.41526 3 10.6282V37.3718C3 41.5847 6.32988 45 10.4375 45H37.5625C41.6701 45 45 41.5847 45 37.3718V10.6282C45 6.41526 41.6701 3 37.5625 3Z" fill="#584CCC"/>
<path d="M36.771 27.3159C35.9367 26.3971 34.3406 25.9306 32.0274 25.9306C30.7438 25.9434 29.4629 26.0574 28.1963 26.2716C27.3851 25.4605 26.6463 24.5764 25.989 23.6299C25.4901 22.9226 25.0291 22.1879 24.6079 21.4292C25.4227 18.7992 25.8356 16.6642 25.8356 15.0815C25.8356 13.1384 25.085 11.061 22.9783 11.061C22.6204 11.0716 22.271 11.1751 21.9626 11.3618C21.6542 11.5484 21.397 11.8122 21.2149 12.1284C20.3162 13.7111 20.6762 16.9679 22.1105 20.2819C21.6111 21.8045 21.067 23.2869 20.4001 24.9296C19.8296 26.3377 19.184 27.7125 18.4663 29.0479C16.3175 29.9344 11.75 32.0866 11.3148 34.4641C11.2493 34.8084 11.2726 35.1642 11.3822 35.4965C11.4918 35.8288 11.6839 36.126 11.9397 36.3588C12.455 36.8168 13.1192 37.0598 13.8008 37.0398C16.5522 37.0398 19.2958 33.1332 21.1422 29.7705C22.1922 29.404 23.2629 29.0722 24.3288 28.7834C25.498 28.4658 26.6281 28.2054 27.6941 28.0116C30.6071 30.6188 33.1966 31.0138 34.494 31.0138C36.2771 31.0138 36.944 30.2209 37.1868 29.5543C37.3194 29.1772 37.3508 28.7705 37.2777 28.3767C37.2045 27.9829 37.0295 27.6165 36.771 27.3159ZM34.8736 28.6866C34.776 29.2046 34.2541 29.5395 33.5398 29.5395C33.3366 29.5387 33.1342 29.5127 32.9371 29.4622C31.6256 29.1416 30.37 28.4921 29.1172 27.4788C30.0526 27.3323 30.9975 27.2578 31.9438 27.2557C32.5748 27.2452 33.2053 27.295 33.8273 27.4045C34.3936 27.5246 35.0327 27.8452 34.8736 28.6866ZM22.3448 12.8033C22.4028 12.6872 22.4896 12.5888 22.5963 12.518C22.7031 12.4471 22.8262 12.4063 22.9531 12.3996C23.6201 12.3996 23.7651 13.2238 23.7651 13.9136C23.7707 15.0126 23.4472 16.764 22.8919 18.7016C21.7729 15.6621 21.9292 13.5329 22.3448 12.8033ZM26.2542 26.6405C25.498 26.8036 24.7166 26.9924 23.9242 27.2071C23.3551 27.3616 22.7774 27.5302 22.1998 27.7107C22.5067 27.0669 22.7886 26.4287 23.0342 25.822C23.3579 25.0204 23.6619 24.2192 23.941 23.4348C24.186 23.8297 24.439 24.2123 24.7 24.5826C25.2001 25.2948 25.7397 25.9768 26.3161 26.6254L26.2542 26.6405ZM17.791 30.7988C16.0303 33.7065 14.2976 35.5437 13.2847 35.5437C13.1187 35.5512 12.9564 35.4916 12.8327 35.3777C12.7384 35.2995 12.6668 35.1962 12.626 35.079C12.5851 34.9619 12.5765 34.8355 12.601 34.7136C12.7935 33.6721 14.7999 32.1696 17.791 30.7988Z" fill="white"/>
</g>
<defs>
<clipPath id="clip0_201_688">
<rect width="42" height="42" fill="white" transform="translate(3 3)"/>
</clipPath>
</defs>
</svg>
