<svg width="48" height="48" viewBox="0 0 48 48" fill="none" xmlns="http://www.w3.org/2000/svg">
<g clip-path="url(#clip0_1_1951)">
<path d="M27.1543 10.4229L24.8914 3.56571L8.16 0L0 9.25714L25.5086 22.2857L27.1543 10.4229Z" fill="url(#paint0_linear_1_1951)"/>
<path d="M19.2 28.3886L18.72 14.1257L0 9.25714L4.59429 36.7543L19.2 36.6171V28.3886Z" fill="url(#paint1_linear_1_1951)"/>
<path d="M15.1543 28.1143L16.0457 16.8L29.6229 2.88004L41.76 5.07432L48 20.64L41.4857 27.0857L30.8572 25.3715L24.2743 32.2972L15.1543 28.1143Z" fill="url(#paint2_linear_1_1951)"/>
<path d="M29.6229 2.88004L10.1486 20.16L13.92 42.3772L30.1028 48L48 37.3029L29.6229 2.88004Z" fill="url(#paint3_linear_1_1951)"/>
<path d="M9.18854 9.18855H38.8114V38.8114H9.18854V9.18855Z" fill="black"/>
<path d="M12 33.2571H23.1086V35.1086H12V33.2571Z" fill="white"/>
<path d="M11.8628 13.0286H16.8685C19.8171 13.0286 21.5999 14.7429 21.5999 17.28V17.3486C21.5999 20.2286 19.4057 21.6686 16.5942 21.6686H14.5371V25.3714H11.8628V13.0286ZM16.7314 19.2C18.1028 19.2 18.8571 18.3771 18.8571 17.3486V17.28C18.8571 16.0457 18.0342 15.4286 16.6628 15.4286H14.6057V19.2H16.7314Z" fill="white"/>
<path d="M22.2857 23.5885L23.8628 21.6685C24.96 22.5599 26.1257 23.1771 27.5657 23.1771C28.6628 23.1771 29.3486 22.7657 29.3486 22.0114V21.9428C29.3486 21.2571 28.9371 20.9142 26.88 20.3657C24.4114 19.7485 22.7657 19.0628 22.7657 16.5942V16.5257C22.7657 14.2628 24.5486 12.8228 27.0857 12.8228C28.8686 12.8228 30.4457 13.3714 31.68 14.3999L30.24 16.4571C29.1428 15.7028 28.0457 15.2228 27.0171 15.2228C25.9886 15.2228 25.44 15.7028 25.44 16.3199V16.3885C25.44 17.2114 25.9886 17.4857 28.1143 18.0342C30.5828 18.7199 32.0229 19.6114 32.0229 21.7371V21.8057C32.0229 24.2742 30.1714 25.6457 27.4971 25.6457C25.6457 25.5771 23.7943 24.8914 22.2857 23.5885Z" fill="white"/>
</g>
<defs>
<linearGradient id="paint0_linear_1_1951" x1="0.382628" y1="32.123" x2="20.5351" y2="5.50354" gradientUnits="userSpaceOnUse">
<stop offset="0.016" stop-color="#765AF8"/>
<stop offset="0.382" stop-color="#B345F1"/>
<stop offset="0.758" stop-color="#FA3293"/>
<stop offset="0.941" stop-color="#FF318C"/>
</linearGradient>
<linearGradient id="paint1_linear_1_1951" x1="1.872" y1="33.1742" x2="21.9922" y2="6.59726" gradientUnits="userSpaceOnUse">
<stop offset="0.016" stop-color="#765AF8"/>
<stop offset="0.382" stop-color="#B345F1"/>
<stop offset="0.758" stop-color="#FA3293"/>
<stop offset="0.941" stop-color="#FF318C"/>
</linearGradient>
<linearGradient id="paint2_linear_1_1951" x1="34.8734" y1="31.8206" x2="23.5022" y2="4.83295" gradientUnits="userSpaceOnUse">
<stop offset="0.183" stop-color="#765AF8"/>
<stop offset="0.238" stop-color="#8655F6"/>
<stop offset="0.345" stop-color="#9F4CF3"/>
<stop offset="0.443" stop-color="#AE47F2"/>
<stop offset="0.522" stop-color="#B345F1"/>
</linearGradient>
<linearGradient id="paint3_linear_1_1951" x1="43.3824" y1="39.3182" x2="16.9358" y2="18.8681" gradientUnits="userSpaceOnUse">
<stop offset="0.016" stop-color="#765AF8"/>
<stop offset="0.382" stop-color="#B345F1"/>
</linearGradient>
<clipPath id="clip0_1_1951">
<rect width="48" height="48" fill="white"/>
</clipPath>
</defs>
</svg>
