<svg width="48" height="48" viewBox="0 0 48 48" fill="none" xmlns="http://www.w3.org/2000/svg">
<g clip-path="url(#clip0_1_2042)">
<path d="M42.0343 0.617171C40.8686 0.0685992 39.5657 -0.0685437 38.2629 0.0685992C38.0572 0.0685992 7.20001 2.67431 7.20001 2.67431L29.0057 28.3886L32.9829 28.5943L45.4629 15.0857C49.6457 10.9029 48.7543 3.4286 42.0343 0.617171Z" fill="url(#paint0_linear_1_2042)"/>
<path d="M36.7543 32.3658L35.8629 33.7372L24.8914 20.3658L14.2629 27.4972L31.8857 46.6286C32.2286 46.9715 32.7086 47.2458 33.1886 47.52C34.1486 48 35.2457 48.1372 36.3429 47.7943C37.3714 47.52 38.1257 46.9715 38.7429 46.3543C38.8114 46.2858 46.1486 39.0172 46.1486 39.0172L36.7543 32.3658Z" fill="url(#paint1_linear_1_2042)"/>
<path d="M31.3371 28.5257L13.44 5.76001C12.6857 4.66287 11.52 3.77144 10.0114 3.1543C8.8457 2.6743 7.47427 2.53716 6.23999 2.81144C-0.342869 4.25144 -1.85144 11.4514 2.39999 15.2914L14.8114 28.0457L31.3371 28.5257Z" fill="url(#paint2_linear_1_2042)"/>
<path d="M43.3371 27.7714C41.0057 27.0857 39.7028 27.2914 36.6171 27.2228L10.56 23.52L3.0857 30.6514C-1.64573 35.3142 -0.891447 43.4742 6.10284 46.9714C7.8857 47.8628 9.87427 48.1371 11.7257 47.8628C24.96 45.3942 41.5543 41.4171 41.6914 41.4171C41.9657 41.3485 42.3086 41.28 42.5828 41.2114C46.9028 39.9085 48.6857 35.8628 47.6571 32.4342C47.1086 30.5142 45.6 28.4571 43.3371 27.7714Z" fill="url(#paint3_linear_1_2042)"/>
<path d="M9.18854 9.18855H38.8114V38.8114H9.18854V9.18855Z" fill="black"/>
<path d="M11.9314 13.0972H14.6743V18.0343H19.7485V13.0972H22.4914V25.5086H19.7485V20.5029H14.6743V25.5086H11.9314V13.0972Z" fill="white"/>
<path d="M24.4799 13.0972H30.2399C31.6799 13.0972 32.7771 13.5086 33.4628 14.1943C34.0114 14.7429 34.2857 15.4286 34.2857 16.32V16.3886C34.2857 17.76 33.5314 18.5829 32.6399 19.0629C34.0799 19.6115 34.9714 20.4343 34.9714 22.1486V22.2172C34.9714 24.48 33.1199 25.6457 30.3085 25.6457H24.4114V13.0972H24.4799ZM31.6799 16.7315C31.6799 15.9086 31.0628 15.4286 29.8971 15.4286H27.2228V18.0343H29.7599C30.9257 18.1029 31.6799 17.6915 31.6799 16.7315ZM30.3085 20.3657H27.1542V23.1086H30.3771C31.6114 23.1086 32.2971 22.6972 32.2971 21.7372V21.6686C32.3657 20.9143 31.7485 20.3657 30.3085 20.3657Z" fill="white"/>
<path d="M12 33.2571H23.1086V35.1086H12V33.2571Z" fill="white"/>
</g>
<defs>
<linearGradient id="paint0_linear_1_2042" x1="27.7132" y1="0.609628" x2="27.144" y2="26.9651" gradientUnits="userSpaceOnUse">
<stop offset="0.328" stop-color="#00B8F1"/>
<stop offset="0.973" stop-color="#9758FB"/>
</linearGradient>
<linearGradient id="paint1_linear_1_2042" x1="40.008" y1="43.8974" x2="8.18196" y2="9.35044" gradientUnits="userSpaceOnUse">
<stop stop-color="#FFEE45"/>
<stop offset="1" stop-color="#9758FB"/>
</linearGradient>
<linearGradient id="paint2_linear_1_2042" x1="21.2743" y1="6.50676" x2="14.6688" y2="20.6277" gradientUnits="userSpaceOnUse">
<stop offset="0.328" stop-color="#00B8F1"/>
<stop offset="0.79" stop-color="#9758FB"/>
</linearGradient>
<linearGradient id="paint3_linear_1_2042" x1="-2.23476" y1="35.7421" x2="47.1881" y2="35.7421" gradientUnits="userSpaceOnUse">
<stop stop-color="#00B8F1"/>
<stop offset="0.306" stop-color="#9758FB"/>
<stop offset="0.989" stop-color="#FFEE45"/>
</linearGradient>
<clipPath id="clip0_1_2042">
<rect width="48" height="48" fill="white"/>
</clipPath>
</defs>
</svg>
