<svg width="48" height="48" viewBox="0 0 48 48" fill="none" xmlns="http://www.w3.org/2000/svg">
<g clip-path="url(#clip0_1_2009)">
<path d="M30.3771 14.3314L3.56571 20.7771L0 27.9771L9.66857 48L33.8057 43.8171L30.3771 14.3314Z" fill="url(#paint0_linear_1_2009)"/>
<path d="M45.12 21.6L26.1943 9.6L0 15.1543V27.9771L42.9257 36.5486L45.12 21.6Z" fill="url(#paint1_linear_1_2009)"/>
<path d="M48 21.4629L27.1543 0L10.8343 4.93714L16.1829 21.1886L42.9257 36.5486L48 21.4629Z" fill="url(#paint2_linear_1_2009)"/>
<path d="M44.2286 13.44L42.3771 0H35.1771H27.1543L10.8343 4.93714L16.1829 21.1886L44.2286 13.44Z" fill="url(#paint3_linear_1_2009)"/>
<path d="M9.18854 9.18855H38.8114V38.8114H9.18854V9.18855Z" fill="black"/>
<path d="M11.9314 33.2571H23.04V35.1086H11.9314V33.2571Z" fill="white"/>
<path d="M12 13.0972H16.8C20.64 13.0972 23.3143 15.7715 23.3143 19.2V19.2686C23.3143 22.6972 20.64 25.3715 16.8 25.3715H12V13.0972ZM14.6743 15.5657V22.9715H16.7314C18.9257 22.9715 20.4343 21.4629 20.4343 19.3372V19.2686C20.4343 17.0743 18.9257 15.5657 16.7314 15.5657H14.6743Z" fill="white"/>
<path d="M24.48 13.0972H29.4172C32.3658 13.0972 34.1486 14.88 34.1486 17.4172C34.1486 20.2286 31.9543 21.7372 29.2115 21.7372H27.1543V25.3715H24.48V13.0972ZM29.2115 19.2686C30.5829 19.2686 31.3372 18.4457 31.3372 17.4172C31.3372 16.1829 30.5143 15.4972 29.1429 15.4972H27.0858V19.2686H29.2115Z" fill="white"/>
</g>
<defs>
<linearGradient id="paint0_linear_1_2009" x1="7.45988" y1="18.3723" x2="32.2622" y2="43.6916" gradientUnits="userSpaceOnUse">
<stop offset="0.097" stop-color="#E343E6"/>
<stop offset="0.108" stop-color="#D948E8"/>
<stop offset="0.165" stop-color="#AC5DEF"/>
<stop offset="0.222" stop-color="#876FF5"/>
<stop offset="0.279" stop-color="#6B7DF9"/>
<stop offset="0.336" stop-color="#5687FC"/>
<stop offset="0.392" stop-color="#4A8DFE"/>
<stop offset="0.446" stop-color="#468FFF"/>
<stop offset="0.935" stop-color="#00CAFF"/>
</linearGradient>
<linearGradient id="paint1_linear_1_2009" x1="6.624" y1="38.2258" x2="22.5209" y2="24.9785" gradientUnits="userSpaceOnUse">
<stop offset="0.097" stop-color="#E343E6"/>
<stop offset="0.118" stop-color="#DE45E7"/>
<stop offset="0.289" stop-color="#B951F0"/>
<stop offset="0.462" stop-color="#9D5AF6"/>
<stop offset="0.632" stop-color="#8861FB"/>
<stop offset="0.802" stop-color="#7C65FE"/>
<stop offset="0.968" stop-color="#7866FF"/>
</linearGradient>
<linearGradient id="paint2_linear_1_2009" x1="27.3292" y1="11.6071" x2="38.6441" y2="34.7335" gradientUnits="userSpaceOnUse">
<stop offset="0.199" stop-color="#E343E6"/>
<stop offset="0.31" stop-color="#DA46E8"/>
<stop offset="0.491" stop-color="#C24EEE"/>
<stop offset="0.718" stop-color="#9A5BF7"/>
<stop offset="0.887" stop-color="#7866FF"/>
</linearGradient>
<linearGradient id="paint3_linear_1_2009" x1="13.6286" y1="12.552" x2="42.0535" y2="5.66126" gradientUnits="userSpaceOnUse">
<stop offset="0.097" stop-color="#E343E6"/>
<stop offset="0.175" stop-color="#DA48E7"/>
<stop offset="0.302" stop-color="#C157EA"/>
<stop offset="0.464" stop-color="#996FEE"/>
<stop offset="0.653" stop-color="#6290F4"/>
<stop offset="0.863" stop-color="#1CB9FC"/>
<stop offset="0.941" stop-color="#00CAFF"/>
</linearGradient>
<clipPath id="clip0_1_2009">
<rect width="48" height="48" fill="white"/>
</clipPath>
</defs>
</svg>
