<svg width="48" height="48" viewBox="0 0 48 48" fill="none" xmlns="http://www.w3.org/2000/svg">
<g clip-path="url(#clip0_1_1914)">
<path d="M13.8514 10.4229L23.3143 25.1658L7.95429 48L0 15.84L13.8514 10.4229Z" fill="url(#paint0_linear_1_1914)"/>
<path d="M12.9601 10.7657L14.4001 0L35.1086 23.04L29.0743 29.0057L33.7372 48H7.95435L12.9601 10.7657Z" fill="url(#paint1_linear_1_1914)"/>
<path d="M24.2057 32.2971H48L40.0457 0H14.4L24.2057 32.2971Z" fill="url(#paint2_linear_1_1914)"/>
<path d="M9.1886 9.18855H38.8115V38.8114H9.1886V9.18855Z" fill="black"/>
<path d="M11.9315 13.0286H17.5543C19.1315 13.0286 20.2972 13.44 21.1201 14.2629C21.8058 14.9486 22.1486 15.9086 22.1486 17.0743V17.1429C22.1486 18.1714 21.8743 18.9257 21.3943 19.5429C20.9143 20.16 20.2972 20.64 19.4743 20.9143L22.4915 25.3029H19.3372L16.8001 21.5314H14.5372V25.3029H11.8629V13.0286H11.9315ZM17.4172 18.9943C18.1029 18.9943 18.5829 18.8572 18.9258 18.5143C19.2686 18.1714 19.4743 17.76 19.4743 17.28V17.2114C19.4743 16.5943 19.2686 16.1829 18.9258 15.9086C18.5829 15.6343 18.0343 15.4972 17.3486 15.4972H14.6743V18.9943H17.4172Z" fill="white"/>
<path d="M11.9314 33.2571H23.04V35.1086H11.9314V33.2571Z" fill="white"/>
<path d="M29.9658 16.7314H27.2229V14.2628H29.9658V11.52H32.5029V14.2628H35.2458V16.7314H32.5029V19.4742H29.9658V16.7314Z" fill="white"/>
<path d="M25.44 23.7257H22.6971V21.2571H25.44V18.5143H27.9771V21.2571H30.72V23.7257H27.9771V26.4686H25.44V23.7257Z" fill="white"/>
</g>
<defs>
<linearGradient id="paint0_linear_1_1914" x1="5.52891" y1="11.0682" x2="20.064" y2="47.8334" gradientUnits="userSpaceOnUse">
<stop offset="0.22" stop-color="#C40B55"/>
<stop offset="0.683" stop-color="#E343E6"/>
<stop offset="0.925" stop-color="#F59252"/>
</linearGradient>
<linearGradient id="paint1_linear_1_1914" x1="35.8499" y1="50.2574" x2="0.304514" y2="12.4471" gradientUnits="userSpaceOnUse">
<stop offset="0.113" stop-color="#FFBD00"/>
<stop offset="0.586" stop-color="#E343E6"/>
<stop offset="0.817" stop-color="#EC841B"/>
<stop offset="0.935" stop-color="#FFBD00"/>
</linearGradient>
<linearGradient id="paint2_linear_1_1914" x1="17.4857" y1="-1.32343" x2="47.9726" y2="35.0866" gradientUnits="userSpaceOnUse">
<stop offset="0.129" stop-color="#FFBD00"/>
<stop offset="0.64" stop-color="#E343E6"/>
<stop offset="0.909" stop-color="#C40B55"/>
</linearGradient>
<clipPath id="clip0_1_1914">
<rect width="48" height="48" fill="white"/>
</clipPath>
</defs>
</svg>
