<svg width="48" height="48" viewBox="0 0 48 48" fill="none" xmlns="http://www.w3.org/2000/svg">
<path fill-rule="evenodd" clip-rule="evenodd" d="M33.8907 29.7612L13.337 41.9999L39.9502 40.189L42 13.279L33.8907 29.7612Z" fill="url(#paint0_linear_1_2139)"/>
<path fill-rule="evenodd" clip-rule="evenodd" d="M39.9939 40.1706L37.7065 24.3388L31.4758 32.5891L39.9939 40.1706Z" fill="url(#paint1_linear_1_2139)"/>
<path fill-rule="evenodd" clip-rule="evenodd" d="M40.0247 40.1707L23.2668 38.8515L13.426 41.9656L40.0247 40.1707Z" fill="url(#paint2_linear_1_2139)"/>
<path fill-rule="evenodd" clip-rule="evenodd" d="M13.4496 41.9691L17.636 28.2163L8.42383 30.1916L13.4496 41.9691Z" fill="url(#paint3_linear_1_2139)"/>
<path fill-rule="evenodd" clip-rule="evenodd" d="M41.1261 17.7177L30.7056 9.1832L27.8039 18.5904L41.1261 17.7177Z" fill="url(#paint4_linear_1_2139)"/>
<path fill-rule="evenodd" clip-rule="evenodd" d="M36.2529 6.14022L30.1242 9.53651L26.2576 6.09467L36.2529 6.14022Z" fill="url(#paint5_linear_1_2139)"/>
<path fill-rule="evenodd" clip-rule="evenodd" d="M6 34.8047L8.56741 30.1093L6.49059 24.5156L6 34.8047Z" fill="url(#paint6_linear_1_2139)"/>
<path fill-rule="evenodd" clip-rule="evenodd" d="M6.35248 24.3389L8.44201 30.2824L17.5215 28.2397L27.8874 18.5792L30.8128 9.26146L26.2065 6L18.3753 8.93896C15.908 11.2402 11.1203 15.7935 10.9476 15.8791C10.7768 15.9666 7.78608 21.635 6.35248 24.3389Z" fill="white"/>
<path d="M17.5834 28.1821L27.8875 18.5792L27.8921 18.5645L31.4742 32.6347L17.5834 28.1821Z" fill="url(#paint7_linear_1_2139)"/>
<path fill-rule="evenodd" clip-rule="evenodd" d="M13.6895 13.6618C19.0369 8.34506 25.9306 5.20385 28.5761 7.88044C31.22 10.557 28.4162 17.0617 23.0688 22.3766C17.7214 27.6916 10.9132 31.0059 8.26945 28.3293C5.62391 25.6545 8.34213 18.9767 13.6895 13.6618Z" fill="url(#paint8_linear_1_2139)"/>
<path fill-rule="evenodd" clip-rule="evenodd" d="M13.4496 41.9636L17.6033 28.167L31.3979 32.611C26.4102 37.3009 20.863 41.2657 13.4496 41.9636Z" fill="url(#paint9_linear_1_2139)"/>
<path fill-rule="evenodd" clip-rule="evenodd" d="M27.9056 18.5521L31.447 32.6183C35.6133 28.2253 39.3527 23.5026 41.184 17.6611L27.9056 18.5521Z" fill="url(#paint10_linear_1_2139)"/>
<path fill-rule="evenodd" clip-rule="evenodd" d="M41.1478 17.7323C42.5651 13.4432 42.8921 7.2901 36.2091 6.14767L30.7254 9.18503L41.1478 17.7323Z" fill="url(#paint11_linear_1_2139)"/>
<path fill-rule="evenodd" clip-rule="evenodd" d="M6 34.7428C6.19623 41.8216 11.2893 41.9271 13.4587 41.9892L8.44748 30.2532L6 34.7428Z" fill="#9E1209"/>
<path fill-rule="evenodd" clip-rule="evenodd" d="M27.9254 18.574C31.1269 20.5473 37.5793 24.5102 37.7101 24.5831C37.9134 24.6979 40.4919 20.2229 41.077 17.6939L27.9254 18.574Z" fill="url(#paint12_radial_1_2139)"/>
<path fill-rule="evenodd" clip-rule="evenodd" d="M17.5978 28.167L23.1506 38.9098C26.4339 37.1242 29.0049 34.9487 31.3597 32.6183L17.5978 28.167Z" fill="url(#paint13_radial_1_2139)"/>
<path fill-rule="evenodd" clip-rule="evenodd" d="M8.42567 30.2678L7.63892 39.6623C9.1234 41.6957 11.1657 41.8725 13.3079 41.714C11.758 37.8457 8.66188 30.1112 8.42567 30.2678Z" fill="url(#paint14_linear_1_2139)"/>
<path fill-rule="evenodd" clip-rule="evenodd" d="M30.6929 9.20858L41.7238 10.761C41.1351 8.2593 39.3272 6.64497 36.2456 6.14026L30.6929 9.20858Z" fill="url(#paint15_linear_1_2139)"/>
<defs>
<linearGradient id="paint0_linear_1_2139" x1="37.629" y1="45.2739" x2="30.0024" y2="31.8462" gradientUnits="userSpaceOnUse">
<stop stop-color="#FB7655"/>
<stop offset="0.41" stop-color="#E42B1E"/>
<stop offset="0.99" stop-color="#990000"/>
<stop offset="1" stop-color="#990000"/>
</linearGradient>
<linearGradient id="paint1_linear_1_2139" x1="41.4122" y1="33.9789" x2="31.6077" y2="27.4177" gradientUnits="userSpaceOnUse">
<stop stop-color="#871101"/>
<stop offset="0.99" stop-color="#911209"/>
<stop offset="1" stop-color="#911209"/>
</linearGradient>
<linearGradient id="paint2_linear_1_2139" x1="33.581" y1="45.6815" x2="23.7768" y2="39.1205" gradientUnits="userSpaceOnUse">
<stop stop-color="#871101"/>
<stop offset="0.99" stop-color="#911209"/>
<stop offset="1" stop-color="#911209"/>
</linearGradient>
<linearGradient id="paint3_linear_1_2139" x1="13.031" y1="29.2112" x2="14.5566" y2="39.0983" gradientUnits="userSpaceOnUse">
<stop stop-color="white"/>
<stop offset="0.23" stop-color="#E57252"/>
<stop offset="0.46" stop-color="#DE3B20"/>
<stop offset="0.99" stop-color="#A60003"/>
<stop offset="1" stop-color="#A60003"/>
</linearGradient>
<linearGradient id="paint4_linear_1_2139" x1="32.7285" y1="10.6501" x2="34.411" y2="17.8807" gradientUnits="userSpaceOnUse">
<stop stop-color="white"/>
<stop offset="0.18" stop-color="#E46342"/>
<stop offset="0.4" stop-color="#C82410"/>
<stop offset="0.99" stop-color="#A80D00"/>
<stop offset="1" stop-color="#A80D00"/>
</linearGradient>
<linearGradient id="paint5_linear_1_2139" x1="27.6178" y1="8.10283" x2="34.8379" y2="4.50281" gradientUnits="userSpaceOnUse">
<stop stop-color="white"/>
<stop offset="0.54" stop-color="#C81F11"/>
<stop offset="0.99" stop-color="#BF0905"/>
<stop offset="1" stop-color="#BF0905"/>
</linearGradient>
<linearGradient id="paint6_linear_1_2139" x1="6.70923" y1="26.6902" x2="7.30609" y2="32.6494" gradientUnits="userSpaceOnUse">
<stop stop-color="white"/>
<stop offset="0.31" stop-color="#DE4024"/>
<stop offset="0.99" stop-color="#BF190B"/>
<stop offset="1" stop-color="#BF190B"/>
</linearGradient>
<linearGradient id="paint7_linear_1_2139" x1="23.4672" y1="19.9779" x2="24.0294" y2="30.0695" gradientUnits="userSpaceOnUse">
<stop stop-color="white"/>
<stop offset="0.23" stop-color="#E4714E"/>
<stop offset="0.56" stop-color="#BE1A0D"/>
<stop offset="0.99" stop-color="#A80D00"/>
<stop offset="1" stop-color="#A80D00"/>
</linearGradient>
<linearGradient id="paint8_linear_1_2139" x1="2.62848" y1="34.2609" x2="30.6119" y2="5.56598" gradientUnits="userSpaceOnUse">
<stop stop-color="#BD0012"/>
<stop offset="0.07" stop-color="white"/>
<stop offset="0.17" stop-color="white"/>
<stop offset="0.27" stop-color="#C82F1C"/>
<stop offset="0.33" stop-color="#820C01"/>
<stop offset="0.46" stop-color="#A31601"/>
<stop offset="0.72" stop-color="#B31301"/>
<stop offset="0.99" stop-color="#E82609"/>
<stop offset="1" stop-color="#E82609"/>
</linearGradient>
<linearGradient id="paint9_linear_1_2139" x1="24.0018" y1="37.1631" x2="15.5942" y2="35.0938" gradientUnits="userSpaceOnUse">
<stop stop-color="#8C0C01"/>
<stop offset="0.54" stop-color="#990C00"/>
<stop offset="0.99" stop-color="#A80D0E"/>
<stop offset="1" stop-color="#A80D0E"/>
</linearGradient>
<linearGradient id="paint10_linear_1_2139" x1="38.438" y1="27.0473" x2="30.9529" y2="20.3572" gradientUnits="userSpaceOnUse">
<stop stop-color="#7E110B"/>
<stop offset="0.99" stop-color="#9E0C00"/>
<stop offset="1" stop-color="#9E0C00"/>
</linearGradient>
<linearGradient id="paint11_linear_1_2139" x1="41.1812" y1="14.7344" x2="37.4509" y2="10.7576" gradientUnits="userSpaceOnUse">
<stop stop-color="#79130D"/>
<stop offset="0.99" stop-color="#9E120B"/>
<stop offset="1" stop-color="#9E120B"/>
</linearGradient>
<radialGradient id="paint12_radial_1_2139" cx="0" cy="0" r="1" gradientUnits="userSpaceOnUse" gradientTransform="translate(32.134 20.4649) scale(9.14992 9.17537)">
<stop stop-color="#A80D00"/>
<stop offset="0.99" stop-color="#7E0E08"/>
<stop offset="1" stop-color="#7E0E08"/>
</radialGradient>
<radialGradient id="paint13_radial_1_2139" cx="0" cy="0" r="1" gradientUnits="userSpaceOnUse" gradientTransform="translate(19.4625 32.5565) scale(12.1636 12.1975)">
<stop stop-color="#A30C00"/>
<stop offset="0.99" stop-color="#800E08"/>
<stop offset="1" stop-color="#800E08"/>
</radialGradient>
<linearGradient id="paint14_linear_1_2139" x1="10.8459" y1="41.9555" x2="7.79938" y2="31.6485" gradientUnits="userSpaceOnUse">
<stop stop-color="#8B2114"/>
<stop offset="0.43" stop-color="#9E100A"/>
<stop offset="0.99" stop-color="#B3100C"/>
<stop offset="1" stop-color="#B3100C"/>
</linearGradient>
<linearGradient id="paint15_linear_1_2139" x1="34.0981" y1="7.78518" x2="40.8994" y2="10.779" gradientUnits="userSpaceOnUse">
<stop stop-color="#B31000"/>
<stop offset="0.44" stop-color="#910F08"/>
<stop offset="0.99" stop-color="#791C12"/>
<stop offset="1" stop-color="#791C12"/>
</linearGradient>
</defs>
</svg>
