<svg width="48" height="48" viewBox="0 0 48 48" fill="none" xmlns="http://www.w3.org/2000/svg">
<circle cx="24" cy="24" r="21" fill="#4B4B4B"/>
<path fill-rule="evenodd" clip-rule="evenodd" d="M35.9967 24.0867C35.9967 23.7351 35.7267 23.5323 35.3953 23.6331L12.6013 30.59C12.2693 30.6913 12 31.059 12 31.41V38.5203C12 38.8719 12.2693 39.0753 12.6013 38.9739L35.3953 32.0177C35.7267 31.9163 35.9967 31.5486 35.9967 31.197V24.0867Z" fill="url(#paint0_linear_1_2037)"/>
<path fill-rule="evenodd" clip-rule="evenodd" d="M12 23.8637C12 24.2154 12.2693 24.583 12.6013 24.6844L35.3987 31.6419C35.7307 31.7433 36 31.5399 36 31.1889V24.078C36 23.7271 35.7307 23.3594 35.3987 23.258L12.6013 16.3005C12.2693 16.1991 12 16.4018 12 16.7535V23.8637V23.8637Z" fill="#FF9800"/>
<path fill-rule="evenodd" clip-rule="evenodd" d="M35.9967 9.47972C35.9967 9.12809 35.7267 8.92468 35.3953 9.02606L12.6013 15.9823C12.2693 16.0837 12 16.4514 12 16.803V23.9132C12 24.2649 12.2693 24.4676 12.6013 24.3669L35.3953 17.41C35.7267 17.3086 35.9967 16.941 35.9967 16.59V9.47972Z" fill="#FF9800"/>
<defs>
<linearGradient id="paint0_linear_1_2037" x1="25.2263" y1="34.3116" x2="27.7547" y2="27.8847" gradientUnits="userSpaceOnUse">
<stop stop-color="#FF9700"/>
<stop offset="0.53" stop-color="#F48E00"/>
<stop offset="1" stop-color="#D06F00"/>
</linearGradient>
</defs>
</svg>
