<svg width="48" height="48" viewBox="0 0 48 48" fill="none" xmlns="http://www.w3.org/2000/svg">
<g clip-path="url(#clip0_1_1894)">
<path d="M48 18.6768L43.4681 16.2857L14.3492 0L2.62421 12.2887L14.8244 28.1609L41.5111 30.4437L48 18.6768Z" fill="url(#paint0_linear_1_1894)"/>
<path d="M34.5757 11.0619L30.3572 0.759033L18.9552 11.9801L8.06946 34.4187L33.8818 47.9999L48 39.7577L34.5757 11.0619Z" fill="url(#paint1_linear_1_1894)"/>
<path d="M14.3493 0L0 9.66514L5.33417 42.6322L19.0958 47.9239L36.8777 33.4786L14.3493 0Z" fill="url(#paint2_linear_1_1894)"/>
<path d="M9.1214 9.04663H39.0281V38.9534H9.1214V9.04663Z" fill="black"/>
<path d="M11.8131 12.9346H17.5701C18.2343 12.8953 18.8998 12.9874 19.5284 13.2055C20.157 13.4236 20.7365 13.7634 21.2337 14.2056C21.9391 14.9803 22.3146 15.9995 22.2804 17.0467C22.3131 17.8988 22.0684 18.7385 21.583 19.4395C21.0977 20.1406 20.3979 20.6653 19.5888 20.9346L22.6543 25.4205H19.4393L16.7477 21.3832H14.5795V25.4205H11.8131V12.9346ZM17.3459 18.9906C18.6917 18.9906 19.4393 18.243 19.4393 17.1963C19.4393 16 18.6169 15.4019 17.2711 15.4019H14.5047V18.9906H17.3459V18.9906Z" fill="white"/>
<path d="M24.7477 12.9346H29.6823C33.6449 12.9346 36.3365 15.6262 36.3365 19.215C36.3365 22.729 33.6449 25.4953 29.6823 25.4953H24.7477V12.9346ZM27.514 15.4019V22.9533H29.6823C30.1848 22.9849 30.6884 22.9104 31.1603 22.7347C31.6323 22.559 32.062 22.286 32.4215 21.9335C32.7811 21.581 33.0625 21.1568 33.2475 20.6884C33.4325 20.2201 33.517 19.7181 33.4953 19.215C33.5248 18.7065 33.4464 18.1976 33.2652 17.7216C33.084 17.2456 32.8041 16.8134 32.444 16.4533C32.0839 16.0931 31.6516 15.8133 31.1756 15.6321C30.6996 15.4509 30.1907 15.3724 29.6823 15.4019H27.514Z" fill="white"/>
<path d="M11.8129 33.3456H23.0277V35.2148H11.8129V33.3456Z" fill="white"/>
</g>
<defs>
<linearGradient id="paint0_linear_1_1894" x1="48.1549" y1="29.8155" x2="-3.51774" y2="5.59406" gradientUnits="userSpaceOnUse">
<stop stop-color="#C90F5E"/>
<stop offset="0.221" stop-color="#C90F5E"/>
<stop offset="0.236" stop-color="#C90F5E"/>
<stop offset="0.356" stop-color="#CA135C"/>
<stop offset="0.466" stop-color="#CE1E57"/>
<stop offset="0.574" stop-color="#D4314E"/>
<stop offset="0.678" stop-color="#DC4B41"/>
<stop offset="0.782" stop-color="#E66D31"/>
<stop offset="0.883" stop-color="#F3961D"/>
<stop offset="0.942" stop-color="#FCB20F"/>
</linearGradient>
<linearGradient id="paint1_linear_1_1894" x1="16.909" y1="6.36612" x2="31.5757" y2="46.8658" gradientUnits="userSpaceOnUse">
<stop offset="0.042" stop-color="#077CFB"/>
<stop offset="0.445" stop-color="#C90F5E"/>
<stop offset="0.958" stop-color="#077CFB"/>
</linearGradient>
<linearGradient id="paint2_linear_1_1894" x1="11.9287" y1="5.44046" x2="22.7616" y2="43.9399" gradientUnits="userSpaceOnUse">
<stop offset="0.277" stop-color="#C90F5E"/>
<stop offset="0.974" stop-color="#FCB20F"/>
</linearGradient>
<clipPath id="clip0_1_1894">
<rect width="48" height="48" fill="white"/>
</clipPath>
</defs>
</svg>
