<svg width="48" height="48" viewBox="0 0 48 48" fill="none" xmlns="http://www.w3.org/2000/svg">
<path d="M32.6803 32.3341C34.3409 32.1651 35.6007 30.7577 35.5434 29.0686C35.4863 27.3797 34.0545 26.0284 32.3366 26.0284H32.2222C30.4468 26.0848 29.0725 27.5485 29.1298 29.2938C29.1871 30.1383 29.5306 30.8702 30.046 31.3769C28.099 35.1491 25.1213 37.9077 20.6547 40.216C17.6197 41.7925 14.4702 42.3555 11.3207 41.9615C8.74377 41.6236 6.73951 40.4977 5.47951 38.6396C3.64717 35.881 3.47543 32.897 5.0216 29.9131C6.10969 27.7737 7.82742 26.1973 8.91551 25.4091C8.68646 24.6772 8.34281 23.4386 8.17107 22.5379C-0.132307 28.4494 0.726736 36.444 3.24638 40.216C5.13603 43.0312 8.97281 44.7765 13.2104 44.7765C14.3556 44.7765 15.5008 44.6638 16.6462 44.3825C23.9761 42.9749 29.5308 38.696 32.6803 32.3341ZM42.7588 25.3529C38.4067 20.3421 31.9931 17.5835 24.6632 17.5835H23.747C23.2317 16.5701 22.1436 15.8944 20.9411 15.8944H20.8264C19.0514 15.9507 17.6771 17.4144 17.7343 19.1599C17.7916 20.8488 19.2231 22.2 20.9411 22.2H21.0555C22.3153 22.1437 23.4034 21.3555 23.8615 20.2858H24.8923C29.2444 20.2858 33.3674 21.5243 37.0897 23.9453C39.9529 25.8032 42.0144 28.2242 43.1596 31.1517C44.1331 33.5163 44.0758 35.8246 43.045 37.7952C41.4417 40.7791 38.7503 42.4118 35.1999 42.4118C32.9093 42.4118 30.7333 41.7361 29.5879 41.2294C28.9581 41.7925 27.8127 42.6932 27.011 43.2564C29.4735 44.3823 31.9931 45.0016 34.3982 45.0016C39.8955 45.0016 43.9614 42.0176 45.5075 39.0338C47.1681 35.7683 47.0535 30.1383 42.7588 25.3529ZM13.6685 33.291C13.7258 34.9801 15.1573 36.3312 16.8752 36.3312H16.9898C18.7651 36.275 20.1393 34.8111 20.082 33.0658C20.0249 31.3767 18.5931 30.0256 16.8752 30.0256H16.7608C16.6462 30.0256 16.4743 30.0256 16.36 30.0818C14.0121 26.2534 13.0386 22.0874 13.3823 17.5833C13.6112 14.2053 14.7565 11.2776 16.7608 8.85663C18.4214 6.77352 21.6282 5.76013 23.8044 5.70396C29.8743 5.59129 32.451 13.0229 32.6229 16.0069C33.3674 16.1757 34.6272 16.5699 35.4862 16.8514C34.7989 7.73091 29.0725 3.00165 23.5753 3.00165C18.4214 3.00165 13.6685 6.66119 11.7786 12.066C9.14455 19.2724 10.8625 26.1973 14.0692 31.6584C13.7831 32.0524 13.6112 32.6718 13.6685 33.2912V33.291Z" fill="#764ABC"/>
</svg>
