<svg width="48" height="48" viewBox="0 0 48 48" fill="none" xmlns="http://www.w3.org/2000/svg">
<path d="M38.3606 3.00055C41.1996 4.45631 43.6381 8.27648 43.5158 13.4603C43.1448 19.8474 38.5427 25.3521 33.5356 30.4237C33.2552 24.2387 31.9188 20.297 29.832 14.7541C27.8618 9.1684 33.6218 3.17933 38.3606 3.00055Z" fill="url(#paint0_linear_1_2054)"/>
<path d="M26.2806 25.2294C25.5309 26.721 24.4738 28.3667 23.0039 30.2065C20.4465 33.4502 17.8675 38.7697 18.6608 45.006C30.1207 43.7341 33.031 34.4532 32.8244 30.4386C32.8169 30.3491 32.809 30.2592 32.8006 30.1691C32.8001 30.1685 32.7996 30.168 32.7992 30.1674C32.8079 30.2576 32.8164 30.3483 32.8244 30.4386C31.0208 28.1012 28.866 26.4897 26.2806 25.2294Z" fill="url(#paint1_linear_1_2054)"/>
<path d="M27.6708 15.4839C30.5456 19.9757 32.3561 25.122 32.8242 30.4382C31.0203 28.1005 28.8654 26.4893 26.2797 25.2289C28.3665 21.0773 28.0734 18.1191 27.6708 15.4839Z" fill="url(#paint2_linear_1_2054)"/>
<path d="M26.5878 13.8964C21.5145 6.95694 12.7269 3.62627 4.56171 6.87768C4.18684 11.7566 6.26038 19.0117 14.6687 21.3208C15.595 21.5968 16.4486 21.8451 17.2524 22.0788C19.5211 22.7387 21.392 23.2828 23.3756 24.0079C24.3999 24.3823 25.3667 24.7837 26.2797 25.2289C28.3665 21.0773 28.0734 18.1191 27.6708 15.484C27.6708 15.484 26.7853 14.1666 26.5878 13.8964Z" fill="url(#paint3_linear_1_2054)"/>
<defs>
<linearGradient id="paint0_linear_1_2054" x1="36.4776" y1="3.00055" x2="36.4776" y2="30.4237" gradientUnits="userSpaceOnUse">
<stop stop-color="#73B723"/>
<stop offset="1" stop-color="#D8EE61"/>
</linearGradient>
<linearGradient id="paint1_linear_1_2054" x1="30.6662" y1="30.2988" x2="17.0495" y2="40.4158" gradientUnits="userSpaceOnUse">
<stop stop-color="#98C9EA"/>
<stop offset="0.68865" stop-color="#026FB2"/>
<stop offset="1" stop-color="#086EB6"/>
</linearGradient>
<linearGradient id="paint2_linear_1_2054" x1="28.3059" y1="20.1187" x2="34.0665" y2="22.4114" gradientUnits="userSpaceOnUse">
<stop stop-color="#D4C883"/>
<stop offset="1" stop-color="#A1D1A7"/>
</linearGradient>
<linearGradient id="paint3_linear_1_2054" x1="4.52026" y1="6.87404" x2="22.1616" y2="22.6058" gradientUnits="userSpaceOnUse">
<stop stop-color="#D73721"/>
<stop offset="1" stop-color="#F7D768"/>
</linearGradient>
</defs>
</svg>
